<svg xmlns="http://www.w3.org/2000/svg" xmlns:xlink="http://www.w3.org/1999/xlink" width="500" zoomAndPan="magnify" viewBox="0 0 375 374.999991" height="500" preserveAspectRatio="xMidYMid meet" version="1.0"><defs><clipPath id="3c6dbf7d38"><path d="M 86 43.148438 L 289 43.148438 L 289 331.898438 L 86 331.898438 Z M 86 43.148438 " clip-rule="nonzero"/></clipPath><clipPath id="3bf19f3326"><path d="M 194 211 L 291 211 L 291 331.898438 L 194 331.898438 Z M 194 211 " clip-rule="nonzero"/></clipPath></defs><path fill="#af8b45" d="M 34.472656 103.625 L 77.085938 252.535156 L 77.085938 217.675781 L 43.691406 100.988281 C 43.613281 100.71875 43.558594 100.441406 43.535156 100.164062 C 43.507812 99.882812 43.507812 99.601562 43.539062 99.324219 C 43.566406 99.042969 43.621094 98.769531 43.703125 98.5 C 43.785156 98.230469 43.890625 97.96875 44.023438 97.722656 C 44.152344 97.472656 44.308594 97.238281 44.484375 97.023438 C 44.664062 96.804688 44.859375 96.605469 45.074219 96.421875 C 45.292969 96.242188 45.523438 96.085938 45.769531 95.949219 C 46.015625 95.8125 46.273438 95.703125 46.542969 95.617188 L 77.085938 86.429688 L 77.085938 76.414062 L 43.777344 86.433594 C 42.914062 86.703125 42.082031 87.050781 41.289062 87.480469 C 40.492188 87.910156 39.742188 88.410156 39.042969 88.984375 C 38.34375 89.558594 37.707031 90.195312 37.128906 90.890625 C 36.554688 91.589844 36.050781 92.335938 35.621094 93.132812 C 35.1875 93.929688 34.839844 94.757812 34.570312 95.621094 C 34.300781 96.484375 34.117188 97.367188 34.015625 98.265625 C 33.917969 99.164062 33.90625 100.066406 33.984375 100.96875 C 34.058594 101.871094 34.222656 102.753906 34.472656 103.625 Z M 34.472656 103.625 " fill-opacity="1" fill-rule="nonzero"/><path fill="#af8b45" d="M 330.980469 86.433594 L 297.671875 76.414062 L 297.671875 86.429688 L 328.21875 95.617188 C 328.484375 95.703125 328.742188 95.8125 328.988281 95.949219 C 329.234375 96.085938 329.46875 96.242188 329.683594 96.421875 C 329.898438 96.601562 330.097656 96.800781 330.273438 97.019531 C 330.449219 97.238281 330.605469 97.472656 330.738281 97.722656 C 330.867188 97.96875 330.976562 98.230469 331.058594 98.496094 C 331.136719 98.765625 331.195312 99.042969 331.222656 99.320312 C 331.25 99.601562 331.25 99.882812 331.226562 100.160156 C 331.199219 100.441406 331.144531 100.714844 331.066406 100.988281 L 297.671875 217.675781 L 297.671875 252.535156 L 340.289062 103.625 C 340.535156 102.753906 340.699219 101.867188 340.773438 100.964844 C 340.851562 100.066406 340.839844 99.164062 340.742188 98.265625 C 340.644531 97.367188 340.460938 96.484375 340.191406 95.621094 C 339.921875 94.757812 339.570312 93.925781 339.140625 93.132812 C 338.707031 92.335938 338.207031 91.589844 337.628906 90.890625 C 337.054688 90.195312 336.414062 89.558594 335.714844 88.984375 C 335.015625 88.410156 334.269531 87.90625 333.472656 87.480469 C 332.675781 87.050781 331.84375 86.703125 330.980469 86.433594 Z M 330.980469 86.433594 " fill-opacity="1" fill-rule="nonzero"/><path fill="#af8b45" d="M 244.925781 74.808594 L 129.835938 74.808594 C 129.519531 74.808594 129.207031 74.839844 128.898438 74.898438 C 128.589844 74.960938 128.292969 75.050781 128 75.171875 C 127.710938 75.292969 127.433594 75.441406 127.171875 75.617188 C 126.910156 75.789062 126.667969 75.988281 126.445312 76.210938 C 126.222656 76.433594 126.023438 76.675781 125.847656 76.9375 C 125.671875 77.199219 125.527344 77.476562 125.40625 77.769531 C 125.285156 78.058594 125.195312 78.359375 125.132812 78.667969 C 125.070312 78.976562 125.039062 79.289062 125.039062 79.601562 C 125.039062 79.917969 125.070312 80.230469 125.132812 80.539062 C 125.195312 80.847656 125.285156 81.148438 125.40625 81.4375 C 125.527344 81.730469 125.671875 82.003906 125.847656 82.265625 C 126.023438 82.527344 126.222656 82.769531 126.445312 82.992188 C 126.667969 83.214844 126.910156 83.414062 127.171875 83.589844 C 127.433594 83.765625 127.710938 83.914062 128 84.03125 C 128.292969 84.152344 128.589844 84.246094 128.898438 84.304688 C 129.207031 84.367188 129.519531 84.398438 129.835938 84.398438 L 244.925781 84.398438 C 245.238281 84.398438 245.550781 84.367188 245.859375 84.304688 C 246.167969 84.246094 246.46875 84.152344 246.757812 84.03125 C 247.050781 83.914062 247.328125 83.765625 247.589844 83.589844 C 247.851562 83.414062 248.09375 83.214844 248.316406 82.992188 C 248.539062 82.769531 248.734375 82.527344 248.910156 82.265625 C 249.085938 82.003906 249.234375 81.730469 249.355469 81.4375 C 249.476562 81.148438 249.566406 80.847656 249.628906 80.539062 C 249.6875 80.230469 249.71875 79.917969 249.71875 79.601562 C 249.71875 79.289062 249.6875 78.976562 249.628906 78.667969 C 249.566406 78.359375 249.476562 78.058594 249.355469 77.769531 C 249.234375 77.476562 249.085938 77.199219 248.910156 76.9375 C 248.734375 76.675781 248.539062 76.433594 248.316406 76.210938 C 248.09375 75.988281 247.851562 75.789062 247.589844 75.617188 C 247.328125 75.441406 247.050781 75.292969 246.757812 75.171875 C 246.46875 75.050781 246.167969 74.960938 245.859375 74.898438 C 245.550781 74.839844 245.238281 74.808594 244.925781 74.808594 Z M 244.925781 74.808594 " fill-opacity="1" fill-rule="nonzero"/><path fill="#af8b45" d="M 244.925781 93.988281 L 129.835938 93.988281 C 129.519531 93.988281 129.207031 94.019531 128.898438 94.082031 C 128.589844 94.140625 128.292969 94.234375 128 94.355469 C 127.710938 94.472656 127.433594 94.621094 127.171875 94.796875 C 126.910156 94.972656 126.667969 95.171875 126.445312 95.394531 C 126.222656 95.617188 126.023438 95.859375 125.847656 96.121094 C 125.671875 96.382812 125.527344 96.660156 125.40625 96.949219 C 125.285156 97.238281 125.195312 97.539062 125.132812 97.847656 C 125.070312 98.15625 125.039062 98.46875 125.039062 98.785156 C 125.039062 99.097656 125.070312 99.410156 125.132812 99.71875 C 125.195312 100.027344 125.285156 100.328125 125.40625 100.621094 C 125.527344 100.910156 125.671875 101.1875 125.847656 101.449219 C 126.023438 101.710938 126.222656 101.953125 126.445312 102.175781 C 126.667969 102.398438 126.910156 102.597656 127.171875 102.769531 C 127.433594 102.945312 127.710938 103.09375 128 103.214844 C 128.292969 103.335938 128.589844 103.425781 128.898438 103.488281 C 129.207031 103.550781 129.519531 103.578125 129.835938 103.578125 L 244.925781 103.578125 C 245.238281 103.578125 245.550781 103.550781 245.859375 103.488281 C 246.167969 103.425781 246.46875 103.335938 246.757812 103.214844 C 247.050781 103.09375 247.328125 102.945312 247.589844 102.769531 C 247.851562 102.597656 248.09375 102.398438 248.316406 102.175781 C 248.539062 101.953125 248.734375 101.710938 248.910156 101.449219 C 249.085938 101.1875 249.234375 100.910156 249.355469 100.621094 C 249.476562 100.328125 249.566406 100.027344 249.628906 99.71875 C 249.6875 99.410156 249.71875 99.097656 249.71875 98.785156 C 249.71875 98.46875 249.6875 98.15625 249.628906 97.847656 C 249.566406 97.539062 249.476562 97.238281 249.355469 96.949219 C 249.234375 96.660156 249.085938 96.382812 248.910156 96.121094 C 248.734375 95.859375 248.539062 95.617188 248.316406 95.394531 C 248.09375 95.171875 247.851562 94.972656 247.589844 94.796875 C 247.328125 94.621094 247.050781 94.472656 246.757812 94.355469 C 246.46875 94.234375 246.167969 94.140625 245.859375 94.082031 C 245.550781 94.019531 245.238281 93.988281 244.925781 93.988281 Z M 244.925781 93.988281 " fill-opacity="1" fill-rule="nonzero"/><path fill="#af8b45" d="M 244.925781 113.171875 L 129.835938 113.171875 C 129.519531 113.171875 129.207031 113.199219 128.898438 113.261719 C 128.589844 113.324219 128.292969 113.414062 128 113.535156 C 127.710938 113.65625 127.433594 113.804688 127.171875 113.976562 C 126.910156 114.152344 126.667969 114.351562 126.445312 114.574219 C 126.222656 114.796875 126.023438 115.039062 125.847656 115.300781 C 125.671875 115.5625 125.527344 115.839844 125.40625 116.128906 C 125.285156 116.421875 125.195312 116.722656 125.132812 117.03125 C 125.070312 117.339844 125.039062 117.652344 125.039062 117.964844 C 125.039062 118.28125 125.070312 118.59375 125.132812 118.902344 C 125.195312 119.210938 125.285156 119.511719 125.40625 119.800781 C 125.527344 120.089844 125.671875 120.367188 125.847656 120.628906 C 126.023438 120.890625 126.222656 121.132812 126.445312 121.355469 C 126.667969 121.578125 126.910156 121.777344 127.171875 121.953125 C 127.433594 122.128906 127.710938 122.277344 128 122.394531 C 128.292969 122.515625 128.589844 122.609375 128.898438 122.667969 C 129.207031 122.730469 129.519531 122.761719 129.835938 122.761719 L 244.925781 122.761719 C 245.238281 122.761719 245.550781 122.730469 245.859375 122.667969 C 246.167969 122.609375 246.46875 122.515625 246.757812 122.394531 C 247.050781 122.277344 247.328125 122.128906 247.589844 121.953125 C 247.851562 121.777344 248.09375 121.578125 248.316406 121.355469 C 248.539062 121.132812 248.734375 120.890625 248.910156 120.628906 C 249.085938 120.367188 249.234375 120.089844 249.355469 119.800781 C 249.476562 119.511719 249.566406 119.210938 249.628906 118.902344 C 249.6875 118.59375 249.71875 118.28125 249.71875 117.964844 C 249.71875 117.652344 249.6875 117.339844 249.628906 117.03125 C 249.566406 116.722656 249.476562 116.421875 249.355469 116.128906 C 249.234375 115.839844 249.085938 115.5625 248.910156 115.300781 C 248.734375 115.039062 248.539062 114.796875 248.316406 114.574219 C 248.09375 114.351562 247.851562 114.152344 247.589844 113.976562 C 247.328125 113.804688 247.050781 113.65625 246.757812 113.535156 C 246.46875 113.414062 246.167969 113.324219 245.859375 113.261719 C 245.550781 113.199219 245.238281 113.171875 244.925781 113.171875 Z M 244.925781 113.171875 " fill-opacity="1" fill-rule="nonzero"/><path fill="#af8b45" d="M 244.925781 132.351562 L 129.835938 132.351562 C 129.519531 132.351562 129.207031 132.382812 128.898438 132.445312 C 128.589844 132.503906 128.292969 132.597656 128 132.714844 C 127.710938 132.835938 127.433594 132.984375 127.171875 133.160156 C 126.910156 133.335938 126.667969 133.535156 126.445312 133.757812 C 126.222656 133.980469 126.023438 134.222656 125.847656 134.484375 C 125.671875 134.746094 125.527344 135.019531 125.40625 135.3125 C 125.285156 135.601562 125.195312 135.902344 125.132812 136.210938 C 125.070312 136.519531 125.039062 136.832031 125.039062 137.148438 C 125.039062 137.460938 125.070312 137.773438 125.132812 138.082031 C 125.195312 138.390625 125.285156 138.691406 125.40625 138.980469 C 125.527344 139.273438 125.671875 139.550781 125.847656 139.8125 C 126.023438 140.074219 126.222656 140.316406 126.445312 140.539062 C 126.667969 140.761719 126.910156 140.960938 127.171875 141.132812 C 127.433594 141.308594 127.710938 141.457031 128 141.578125 C 128.292969 141.699219 128.589844 141.789062 128.898438 141.851562 C 129.207031 141.910156 129.519531 141.941406 129.835938 141.941406 L 244.925781 141.941406 C 245.238281 141.941406 245.550781 141.910156 245.859375 141.851562 C 246.167969 141.789062 246.46875 141.699219 246.757812 141.578125 C 247.050781 141.457031 247.328125 141.308594 247.589844 141.132812 C 247.851562 140.960938 248.09375 140.761719 248.316406 140.539062 C 248.539062 140.316406 248.734375 140.074219 248.910156 139.8125 C 249.085938 139.550781 249.234375 139.273438 249.355469 138.980469 C 249.476562 138.691406 249.566406 138.390625 249.628906 138.082031 C 249.6875 137.773438 249.71875 137.460938 249.71875 137.148438 C 249.71875 136.832031 249.6875 136.519531 249.628906 136.210938 C 249.566406 135.902344 249.476562 135.601562 249.355469 135.3125 C 249.234375 135.019531 249.085938 134.746094 248.910156 134.484375 C 248.734375 134.222656 248.539062 133.980469 248.316406 133.757812 C 248.09375 133.535156 247.851562 133.335938 247.589844 133.160156 C 247.328125 132.984375 247.050781 132.835938 246.757812 132.714844 C 246.46875 132.597656 246.167969 132.503906 245.859375 132.445312 C 245.550781 132.382812 245.238281 132.351562 244.925781 132.351562 Z M 244.925781 132.351562 " fill-opacity="1" fill-rule="nonzero"/><path fill="#af8b45" d="M 244.925781 151.53125 L 129.835938 151.53125 C 129.519531 151.53125 129.207031 151.5625 128.898438 151.625 C 128.589844 151.6875 128.292969 151.777344 128 151.898438 C 127.710938 152.019531 127.433594 152.167969 127.171875 152.339844 C 126.910156 152.515625 126.667969 152.714844 126.445312 152.9375 C 126.222656 153.160156 126.023438 153.402344 125.847656 153.664062 C 125.671875 153.925781 125.527344 154.203125 125.40625 154.492188 C 125.285156 154.785156 125.195312 155.085938 125.132812 155.394531 C 125.070312 155.703125 125.039062 156.011719 125.039062 156.328125 C 125.039062 156.644531 125.070312 156.957031 125.132812 157.265625 C 125.195312 157.574219 125.285156 157.871094 125.40625 158.164062 C 125.527344 158.453125 125.671875 158.730469 125.847656 158.992188 C 126.023438 159.253906 126.222656 159.496094 126.445312 159.71875 C 126.667969 159.941406 126.910156 160.140625 127.171875 160.316406 C 127.433594 160.492188 127.710938 160.636719 128 160.757812 C 128.292969 160.878906 128.589844 160.96875 128.898438 161.03125 C 129.207031 161.09375 129.519531 161.125 129.835938 161.125 L 244.925781 161.125 C 245.238281 161.125 245.550781 161.09375 245.859375 161.03125 C 246.167969 160.96875 246.46875 160.878906 246.757812 160.757812 C 247.050781 160.636719 247.328125 160.492188 247.589844 160.316406 C 247.851562 160.140625 248.09375 159.941406 248.316406 159.71875 C 248.539062 159.496094 248.734375 159.253906 248.910156 158.992188 C 249.085938 158.730469 249.234375 158.453125 249.355469 158.164062 C 249.476562 157.871094 249.566406 157.574219 249.628906 157.265625 C 249.6875 156.957031 249.71875 156.644531 249.71875 156.328125 C 249.71875 156.011719 249.6875 155.703125 249.628906 155.394531 C 249.566406 155.085938 249.476562 154.785156 249.355469 154.492188 C 249.234375 154.203125 249.085938 153.925781 248.910156 153.664062 C 248.734375 153.402344 248.539062 153.160156 248.316406 152.9375 C 248.09375 152.714844 247.851562 152.515625 247.589844 152.339844 C 247.328125 152.167969 247.050781 152.019531 246.757812 151.898438 C 246.46875 151.777344 246.167969 151.6875 245.859375 151.625 C 245.550781 151.5625 245.238281 151.53125 244.925781 151.53125 Z M 244.925781 151.53125 " fill-opacity="1" fill-rule="nonzero"/><path fill="#af8b45" d="M 244.925781 170.714844 L 129.835938 170.714844 C 129.519531 170.714844 129.207031 170.746094 128.898438 170.808594 C 128.589844 170.867188 128.292969 170.960938 128 171.078125 C 127.710938 171.199219 127.433594 171.347656 127.171875 171.523438 C 126.910156 171.699219 126.667969 171.894531 126.445312 172.117188 C 126.222656 172.339844 126.023438 172.582031 125.847656 172.847656 C 125.671875 173.109375 125.527344 173.382812 125.40625 173.675781 C 125.285156 173.964844 125.195312 174.265625 125.132812 174.574219 C 125.070312 174.882812 125.039062 175.195312 125.039062 175.511719 C 125.039062 175.824219 125.070312 176.136719 125.132812 176.445312 C 125.195312 176.753906 125.285156 177.054688 125.40625 177.34375 C 125.527344 177.636719 125.671875 177.914062 125.847656 178.175781 C 126.023438 178.4375 126.222656 178.679688 126.445312 178.902344 C 126.667969 179.125 126.910156 179.320312 127.171875 179.496094 C 127.433594 179.671875 127.710938 179.820312 128 179.941406 C 128.292969 180.0625 128.589844 180.152344 128.898438 180.214844 C 129.207031 180.273438 129.519531 180.304688 129.835938 180.304688 L 244.925781 180.304688 C 245.238281 180.304688 245.550781 180.273438 245.859375 180.214844 C 246.167969 180.152344 246.46875 180.0625 246.757812 179.941406 C 247.050781 179.820312 247.328125 179.671875 247.589844 179.496094 C 247.851562 179.320312 248.09375 179.125 248.316406 178.902344 C 248.539062 178.679688 248.734375 178.4375 248.910156 178.175781 C 249.085938 177.914062 249.234375 177.636719 249.355469 177.34375 C 249.476562 177.054688 249.566406 176.753906 249.628906 176.445312 C 249.6875 176.136719 249.71875 175.824219 249.71875 175.511719 C 249.71875 175.195312 249.6875 174.882812 249.628906 174.574219 C 249.566406 174.265625 249.476562 173.964844 249.355469 173.675781 C 249.234375 173.382812 249.085938 173.109375 248.910156 172.847656 C 248.734375 172.582031 248.539062 172.339844 248.316406 172.117188 C 248.09375 171.894531 247.851562 171.699219 247.589844 171.523438 C 247.328125 171.347656 247.050781 171.199219 246.757812 171.078125 C 246.46875 170.960938 246.167969 170.867188 245.859375 170.808594 C 245.550781 170.746094 245.238281 170.714844 244.925781 170.714844 Z M 244.925781 170.714844 " fill-opacity="1" fill-rule="nonzero"/><path fill="#af8b45" d="M 249.71875 194.691406 C 249.71875 194.375 249.6875 194.066406 249.628906 193.753906 C 249.566406 193.445312 249.476562 193.148438 249.355469 192.855469 C 249.234375 192.566406 249.085938 192.289062 248.910156 192.027344 C 248.734375 191.765625 248.539062 191.523438 248.316406 191.300781 C 248.09375 191.078125 247.851562 190.878906 247.589844 190.703125 C 247.328125 190.527344 247.050781 190.382812 246.757812 190.261719 C 246.46875 190.140625 246.167969 190.050781 245.859375 189.988281 C 245.550781 189.925781 245.238281 189.894531 244.925781 189.894531 L 129.835938 189.894531 C 129.519531 189.894531 129.207031 189.925781 128.898438 189.988281 C 128.589844 190.050781 128.292969 190.140625 128 190.261719 C 127.710938 190.382812 127.433594 190.527344 127.171875 190.703125 C 126.910156 190.878906 126.667969 191.078125 126.445312 191.300781 C 126.222656 191.523438 126.023438 191.765625 125.847656 192.027344 C 125.671875 192.289062 125.527344 192.566406 125.40625 192.855469 C 125.285156 193.148438 125.195312 193.445312 125.132812 193.753906 C 125.070312 194.066406 125.039062 194.375 125.039062 194.691406 C 125.039062 195.007812 125.070312 195.316406 125.132812 195.625 C 125.195312 195.9375 125.285156 196.234375 125.40625 196.527344 C 125.527344 196.816406 125.671875 197.09375 125.847656 197.355469 C 126.023438 197.617188 126.222656 197.859375 126.445312 198.082031 C 126.667969 198.304688 126.910156 198.503906 127.171875 198.679688 C 127.433594 198.851562 127.710938 199 128 199.121094 C 128.292969 199.242188 128.589844 199.332031 128.898438 199.394531 C 129.207031 199.457031 129.519531 199.488281 129.835938 199.488281 L 244.925781 199.488281 C 245.238281 199.488281 245.550781 199.457031 245.859375 199.394531 C 246.167969 199.332031 246.46875 199.242188 246.757812 199.121094 C 247.050781 199 247.328125 198.851562 247.589844 198.679688 C 247.851562 198.503906 248.09375 198.304688 248.316406 198.082031 C 248.539062 197.859375 248.734375 197.617188 248.910156 197.355469 C 249.085938 197.09375 249.234375 196.816406 249.355469 196.527344 C 249.476562 196.234375 249.566406 195.9375 249.628906 195.625 C 249.6875 195.316406 249.71875 195.007812 249.71875 194.691406 Z M 249.71875 194.691406 " fill-opacity="1" fill-rule="nonzero"/><path fill="#af8b45" d="M 125.039062 233.054688 C 125.039062 233.367188 125.070312 233.679688 125.132812 233.988281 C 125.195312 234.296875 125.285156 234.597656 125.40625 234.890625 C 125.527344 235.179688 125.671875 235.457031 125.847656 235.71875 C 126.023438 235.980469 126.222656 236.222656 126.445312 236.445312 C 126.667969 236.667969 126.910156 236.867188 127.171875 237.042969 C 127.433594 237.214844 127.710938 237.363281 128 237.484375 C 128.292969 237.605469 128.589844 237.695312 128.898438 237.757812 C 129.207031 237.820312 129.519531 237.847656 129.835938 237.847656 L 202.644531 237.847656 C 202.972656 234.5625 203.699219 231.363281 204.832031 228.257812 L 129.835938 228.257812 C 129.519531 228.257812 129.207031 228.289062 128.898438 228.351562 C 128.589844 228.414062 128.292969 228.503906 128 228.625 C 127.710938 228.746094 127.433594 228.890625 127.171875 229.066406 C 126.910156 229.242188 126.667969 229.441406 126.445312 229.664062 C 126.222656 229.886719 126.023438 230.128906 125.847656 230.390625 C 125.671875 230.652344 125.527344 230.929688 125.40625 231.21875 C 125.285156 231.511719 125.195312 231.808594 125.132812 232.117188 C 125.070312 232.425781 125.039062 232.738281 125.039062 233.054688 Z M 125.039062 233.054688 " fill-opacity="1" fill-rule="nonzero"/><g clip-path="url(#3c6dbf7d38)"><path fill="#af8b45" d="M 101.0625 321.769531 C 100.75 321.769531 100.4375 321.738281 100.128906 321.675781 C 99.820312 321.613281 99.519531 321.523438 99.230469 321.402344 C 98.9375 321.28125 98.664062 321.132812 98.402344 320.957031 C 98.140625 320.785156 97.898438 320.585938 97.675781 320.363281 C 97.453125 320.140625 97.253906 319.898438 97.078125 319.636719 C 96.902344 319.375 96.753906 319.097656 96.632812 318.808594 C 96.515625 318.515625 96.421875 318.214844 96.359375 317.90625 C 96.300781 317.597656 96.269531 317.289062 96.269531 316.972656 L 96.269531 58.023438 C 96.269531 57.710938 96.300781 57.398438 96.359375 57.089844 C 96.421875 56.78125 96.515625 56.480469 96.632812 56.191406 C 96.753906 55.898438 96.902344 55.621094 97.078125 55.359375 C 97.253906 55.097656 97.453125 54.855469 97.675781 54.632812 C 97.898438 54.410156 98.140625 54.214844 98.402344 54.039062 C 98.664062 53.863281 98.9375 53.714844 99.230469 53.59375 C 99.519531 53.472656 99.820312 53.382812 100.128906 53.320312 C 100.4375 53.261719 100.75 53.230469 101.0625 53.226562 L 273.695312 53.226562 C 274.011719 53.230469 274.324219 53.261719 274.632812 53.320312 C 274.941406 53.382812 275.238281 53.472656 275.53125 53.59375 C 275.820312 53.714844 276.097656 53.863281 276.359375 54.039062 C 276.621094 54.214844 276.863281 54.410156 277.085938 54.632812 C 277.308594 54.855469 277.507812 55.097656 277.679688 55.359375 C 277.855469 55.621094 278.003906 55.898438 278.125 56.191406 C 278.246094 56.480469 278.335938 56.78125 278.398438 57.089844 C 278.460938 57.398438 278.492188 57.710938 278.492188 58.023438 L 278.492188 224.988281 C 279.71875 227.59375 280.644531 230.300781 281.273438 233.113281 C 281.898438 235.921875 282.214844 238.765625 282.214844 241.644531 C 282.214844 244.523438 281.898438 247.367188 281.273438 250.175781 C 280.644531 252.984375 279.71875 255.691406 278.492188 258.296875 L 278.492188 284.605469 L 279.519531 284.605469 C 282.511719 284.605469 285.367188 285.238281 288.082031 286.496094 L 288.082031 58.023438 C 288.082031 57.078125 287.988281 56.144531 287.804688 55.21875 C 287.617188 54.292969 287.34375 53.394531 286.984375 52.519531 C 286.621094 51.648438 286.175781 50.820312 285.652344 50.035156 C 285.128906 49.25 284.53125 48.523438 283.863281 47.855469 C 283.195312 47.1875 282.46875 46.59375 281.683594 46.066406 C 280.898438 45.542969 280.070312 45.097656 279.199219 44.738281 C 278.328125 44.375 277.425781 44.101562 276.5 43.917969 C 275.574219 43.730469 274.640625 43.640625 273.695312 43.636719 L 101.0625 43.636719 C 100.117188 43.640625 99.183594 43.730469 98.257812 43.917969 C 97.332031 44.101562 96.433594 44.375 95.558594 44.738281 C 94.6875 45.097656 93.859375 45.542969 93.074219 46.066406 C 92.289062 46.59375 91.5625 47.1875 90.894531 47.855469 C 90.226562 48.523438 89.632812 49.25 89.105469 50.035156 C 88.582031 50.820312 88.136719 51.648438 87.777344 52.519531 C 87.414062 53.394531 87.140625 54.292969 86.957031 55.21875 C 86.769531 56.144531 86.679688 57.078125 86.675781 58.023438 L 86.675781 316.972656 C 86.679688 317.917969 86.769531 318.851562 86.957031 319.777344 C 87.140625 320.703125 87.414062 321.601562 87.777344 322.476562 C 88.136719 323.347656 88.582031 324.175781 89.105469 324.960938 C 89.632812 325.746094 90.226562 326.472656 90.894531 327.140625 C 91.5625 327.808594 92.289062 328.40625 93.074219 328.929688 C 93.859375 329.453125 94.6875 329.898438 95.558594 330.257812 C 96.433594 330.621094 97.332031 330.894531 98.257812 331.078125 C 99.183594 331.265625 100.117188 331.359375 101.0625 331.359375 L 188.171875 331.359375 C 186.3125 328.429688 185.273438 325.230469 185.050781 321.769531 Z M 101.0625 321.769531 " fill-opacity="1" fill-rule="nonzero"/></g><g clip-path="url(#3bf19f3326)"><path fill="#af8b45" d="M 279.519531 294.195312 L 264.277344 294.195312 L 264.277344 293.039062 C 264.277344 287.386719 261.308594 282.992188 257.191406 282.222656 C 258.273438 275.523438 260.417969 269.183594 263.628906 263.203125 L 263.722656 263.015625 C 265.136719 261.621094 266.398438 260.101562 267.511719 258.457031 C 268.625 256.8125 269.5625 255.074219 270.324219 253.238281 C 271.089844 251.40625 271.664062 249.515625 272.050781 247.570312 C 272.4375 245.621094 272.628906 243.65625 272.625 241.667969 C 272.625 241.042969 272.609375 240.417969 272.570312 239.792969 C 272.535156 239.167969 272.480469 238.546875 272.40625 237.925781 C 272.328125 237.304688 272.234375 236.6875 272.121094 236.070312 C 272.007812 235.457031 271.875 234.84375 271.726562 234.238281 C 271.574219 233.628906 271.402344 233.027344 271.214844 232.433594 C 271.027344 231.835938 270.820312 231.246094 270.59375 230.660156 C 270.371094 230.078125 270.125 229.5 269.867188 228.933594 C 269.605469 228.363281 269.328125 227.804688 269.03125 227.253906 C 268.734375 226.703125 268.421875 226.160156 268.09375 225.628906 C 267.765625 225.097656 267.417969 224.574219 267.058594 224.0625 C 266.695312 223.554688 266.320312 223.054688 265.929688 222.566406 C 265.535156 222.078125 265.128906 221.605469 264.707031 221.144531 C 264.285156 220.679688 263.847656 220.234375 263.398438 219.796875 C 262.949219 219.363281 262.488281 218.941406 262.011719 218.535156 C 261.535156 218.128906 261.050781 217.738281 260.550781 217.359375 C 260.050781 216.984375 259.539062 216.625 259.015625 216.28125 C 258.492188 215.933594 257.960938 215.605469 257.417969 215.296875 C 256.875 214.984375 256.324219 214.691406 255.765625 214.414062 C 255.203125 214.136719 254.636719 213.875 254.058594 213.632812 C 253.480469 213.390625 252.898438 213.167969 252.308594 212.960938 C 251.714844 212.753906 251.121094 212.566406 250.515625 212.398438 C 249.914062 212.230469 249.308594 212.078125 248.695312 211.949219 C 248.085938 211.816406 247.46875 211.703125 246.851562 211.609375 C 246.234375 211.515625 245.613281 211.441406 244.988281 211.386719 C 244.367188 211.332031 243.742188 211.296875 243.117188 211.28125 C 242.492188 211.265625 241.863281 211.269531 241.238281 211.292969 C 240.613281 211.3125 239.992188 211.355469 239.367188 211.417969 C 238.746094 211.476562 238.125 211.558594 237.507812 211.660156 C 236.890625 211.757812 236.277344 211.875 235.667969 212.015625 C 235.054688 212.152344 234.449219 212.308594 233.851562 212.484375 C 233.25 212.660156 232.65625 212.851562 232.066406 213.066406 C 231.476562 213.277344 230.894531 213.507812 230.320312 213.753906 C 229.746094 214.003906 229.183594 214.269531 228.625 214.550781 C 228.066406 214.835938 227.515625 215.136719 226.976562 215.453125 C 226.4375 215.769531 225.910156 216.101562 225.390625 216.453125 C 224.871094 216.800781 224.367188 217.167969 223.871094 217.550781 C 223.375 217.929688 222.890625 218.328125 222.417969 218.738281 C 221.949219 219.148438 221.488281 219.574219 221.042969 220.015625 C 220.597656 220.453125 220.167969 220.90625 219.75 221.375 C 219.335938 221.839844 218.933594 222.320312 218.542969 222.808594 C 218.15625 223.300781 217.785156 223.804688 217.429688 224.320312 C 217.074219 224.832031 216.734375 225.359375 216.410156 225.894531 C 216.085938 226.429688 215.78125 226.972656 215.488281 227.527344 C 215.199219 228.082031 214.925781 228.644531 214.671875 229.214844 C 214.417969 229.789062 214.179688 230.367188 213.960938 230.953125 C 213.742188 231.539062 213.542969 232.128906 213.359375 232.730469 C 213.175781 233.328125 213.011719 233.929688 212.867188 234.539062 C 212.722656 235.148438 212.597656 235.761719 212.488281 236.375 C 212.382812 236.992188 212.292969 237.613281 212.226562 238.234375 C 212.15625 238.855469 212.109375 239.480469 212.078125 240.101562 C 212.046875 240.726562 212.035156 241.355469 212.046875 241.980469 C 212.054688 242.605469 212.082031 243.230469 212.128906 243.851562 C 212.175781 244.476562 212.242188 245.097656 212.328125 245.71875 C 212.414062 246.339844 212.519531 246.953125 212.644531 247.566406 C 212.765625 248.179688 212.910156 248.789062 213.070312 249.394531 C 213.234375 250 213.414062 250.597656 213.613281 251.191406 C 213.8125 251.78125 214.027344 252.371094 214.265625 252.949219 C 214.5 253.527344 214.753906 254.101562 215.023438 254.664062 C 215.292969 255.230469 215.582031 255.785156 215.886719 256.332031 C 216.191406 256.875 216.511719 257.414062 216.851562 257.9375 C 217.1875 258.464844 217.542969 258.980469 217.914062 259.484375 C 218.285156 259.988281 218.667969 260.480469 219.070312 260.960938 C 219.46875 261.441406 219.886719 261.910156 220.316406 262.363281 C 220.746094 262.820312 221.1875 263.261719 221.644531 263.6875 L 221.710938 263.824219 C 224.742188 269.628906 226.792969 275.761719 227.855469 282.222656 C 223.742188 282.996094 220.777344 287.386719 220.777344 293.039062 L 220.777344 294.195312 L 205.53125 294.195312 C 204.816406 294.195312 204.101562 294.265625 203.398438 294.40625 C 202.691406 294.546875 202.007812 294.753906 201.34375 295.027344 C 200.679688 295.300781 200.050781 295.640625 199.453125 296.039062 C 198.855469 296.4375 198.300781 296.890625 197.792969 297.398438 C 197.28125 297.90625 196.828125 298.457031 196.429688 299.054688 C 196.027344 299.652344 195.691406 300.28125 195.414062 300.945312 C 195.136719 301.609375 194.929688 302.292969 194.789062 302.996094 C 194.644531 303.703125 194.574219 304.414062 194.574219 305.132812 L 194.574219 320.421875 C 194.574219 321.140625 194.644531 321.851562 194.789062 322.558594 C 194.929688 323.261719 195.136719 323.945312 195.414062 324.609375 C 195.691406 325.273438 196.027344 325.902344 196.429688 326.5 C 196.828125 327.097656 197.28125 327.648438 197.792969 328.15625 C 198.300781 328.664062 198.855469 329.117188 199.453125 329.515625 C 200.050781 329.914062 200.679688 330.25 201.34375 330.527344 C 202.007812 330.800781 202.691406 331.007812 203.398438 331.148438 C 204.101562 331.289062 204.816406 331.359375 205.53125 331.359375 L 279.519531 331.359375 C 280.238281 331.359375 280.949219 331.289062 281.65625 331.148438 C 282.359375 331.007812 283.042969 330.800781 283.707031 330.527344 C 284.371094 330.25 285.003906 329.914062 285.601562 329.515625 C 286.199219 329.117188 286.753906 328.664062 287.261719 328.15625 C 287.769531 327.648438 288.222656 327.097656 288.625 326.5 C 289.023438 325.902344 289.363281 325.273438 289.636719 324.609375 C 289.914062 323.945312 290.125 323.261719 290.265625 322.558594 C 290.40625 321.851562 290.476562 321.140625 290.480469 320.421875 L 290.480469 305.132812 C 290.476562 304.414062 290.40625 303.703125 290.265625 302.996094 C 290.125 302.292969 289.914062 301.609375 289.636719 300.945312 C 289.363281 300.28125 289.023438 299.652344 288.625 299.054688 C 288.222656 298.457031 287.769531 297.90625 287.261719 297.398438 C 286.753906 296.890625 286.199219 296.4375 285.601562 296.039062 C 285.003906 295.636719 284.371094 295.300781 283.707031 295.027344 C 283.042969 294.753906 282.359375 294.546875 281.65625 294.40625 C 280.949219 294.265625 280.238281 294.195312 279.519531 294.195312 Z M 280.890625 320.421875 C 280.886719 320.601562 280.851562 320.773438 280.78125 320.941406 C 280.710938 321.105469 280.609375 321.253906 280.484375 321.378906 C 280.355469 321.503906 280.207031 321.601562 280.039062 321.667969 C 279.871094 321.738281 279.699219 321.769531 279.519531 321.769531 L 205.53125 321.769531 C 205.351562 321.769531 205.179688 321.738281 205.011719 321.667969 C 204.847656 321.601562 204.699219 321.503906 204.570312 321.378906 C 204.441406 321.253906 204.34375 321.105469 204.273438 320.941406 C 204.199219 320.773438 204.164062 320.601562 204.164062 320.421875 L 204.164062 305.132812 C 204.164062 304.953125 204.199219 304.777344 204.273438 304.613281 C 204.34375 304.449219 204.441406 304.300781 204.570312 304.175781 C 204.699219 304.050781 204.847656 303.953125 205.011719 303.882812 C 205.179688 303.816406 205.351562 303.785156 205.53125 303.785156 L 225.570312 303.785156 C 225.886719 303.785156 226.199219 303.753906 226.507812 303.691406 C 226.816406 303.632812 227.117188 303.539062 227.40625 303.421875 C 227.699219 303.300781 227.972656 303.152344 228.234375 302.976562 C 228.496094 302.800781 228.738281 302.601562 228.960938 302.378906 C 229.183594 302.160156 229.382812 301.917969 229.558594 301.652344 C 229.734375 301.390625 229.882812 301.117188 230 300.824219 C 230.121094 300.535156 230.214844 300.234375 230.273438 299.925781 C 230.335938 299.617188 230.367188 299.304688 230.367188 298.988281 L 230.367188 293.039062 C 230.363281 292.582031 230.421875 292.132812 230.539062 291.691406 L 233.277344 291.691406 C 233.609375 291.691406 233.941406 291.660156 234.265625 291.589844 C 234.59375 291.519531 234.910156 291.417969 235.214844 291.285156 C 235.519531 291.148438 235.808594 290.984375 236.078125 290.789062 C 236.351562 290.59375 236.597656 290.375 236.824219 290.128906 C 237.046875 289.882812 237.242188 289.613281 237.414062 289.328125 C 237.582031 289.039062 237.71875 288.738281 237.824219 288.421875 C 237.929688 288.105469 238.003906 287.78125 238.039062 287.449219 C 238.078125 287.117188 238.082031 286.785156 238.050781 286.453125 C 237.300781 277.011719 234.738281 268.089844 230.363281 259.691406 L 229.894531 258.707031 C 229.609375 258.109375 229.21875 257.589844 228.714844 257.152344 C 228.394531 256.867188 228.082031 256.574219 227.78125 256.269531 C 227.476562 255.96875 227.1875 255.65625 226.902344 255.332031 C 226.621094 255.011719 226.347656 254.679688 226.085938 254.34375 C 225.820312 254.003906 225.570312 253.65625 225.328125 253.300781 C 225.089844 252.949219 224.859375 252.585938 224.640625 252.21875 C 224.421875 251.847656 224.214844 251.472656 224.019531 251.09375 C 223.824219 250.710938 223.640625 250.324219 223.472656 249.929688 C 223.300781 249.539062 223.140625 249.140625 222.996094 248.738281 C 222.851562 248.332031 222.714844 247.925781 222.59375 247.515625 C 222.476562 247.105469 222.367188 246.6875 222.273438 246.273438 C 222.175781 245.855469 222.09375 245.433594 222.027344 245.011719 C 221.957031 244.585938 221.902344 244.164062 221.859375 243.734375 C 221.816406 243.308594 221.789062 242.882812 221.773438 242.453125 C 221.757812 242.027344 221.753906 241.597656 221.765625 241.167969 C 221.777344 240.738281 221.800781 240.3125 221.839844 239.886719 C 221.878906 239.457031 221.929688 239.035156 221.992188 238.609375 C 222.058594 238.1875 222.132812 237.765625 222.226562 237.347656 C 222.316406 236.925781 222.417969 236.511719 222.535156 236.097656 C 222.652344 235.6875 222.78125 235.277344 222.921875 234.875 C 223.0625 234.46875 223.21875 234.070312 223.386719 233.675781 C 223.550781 233.28125 223.730469 232.890625 223.921875 232.507812 C 224.113281 232.125 224.316406 231.746094 224.53125 231.375 C 224.746094 231.003906 224.96875 230.640625 225.207031 230.28125 C 225.445312 229.925781 225.691406 229.578125 225.953125 229.234375 C 226.210938 228.894531 226.480469 228.558594 226.757812 228.234375 C 227.039062 227.910156 227.328125 227.59375 227.628906 227.289062 C 227.925781 226.980469 228.234375 226.683594 228.554688 226.398438 C 228.871094 226.109375 229.199219 225.832031 229.53125 225.566406 C 229.867188 225.296875 230.210938 225.042969 230.5625 224.796875 C 230.914062 224.550781 231.273438 224.316406 231.636719 224.09375 C 232.003906 223.867188 232.375 223.65625 232.753906 223.457031 C 233.132812 223.257812 233.519531 223.066406 233.910156 222.890625 C 234.300781 222.714844 234.695312 222.550781 235.097656 222.398438 C 235.496094 222.25 235.902344 222.109375 236.3125 221.984375 C 236.722656 221.855469 237.132812 221.742188 237.550781 221.640625 C 237.96875 221.542969 238.386719 221.453125 238.808594 221.378906 C 239.230469 221.304688 239.65625 221.242188 240.082031 221.195312 C 240.507812 221.148438 240.933594 221.113281 241.363281 221.089844 C 241.789062 221.070312 242.21875 221.0625 242.644531 221.066406 C 243.074219 221.074219 243.503906 221.089844 243.929688 221.121094 C 244.359375 221.15625 244.785156 221.199219 245.207031 221.257812 C 245.632812 221.316406 246.054688 221.386719 246.476562 221.472656 C 246.894531 221.558594 247.3125 221.65625 247.726562 221.765625 C 248.140625 221.875 248.550781 222 248.957031 222.136719 C 249.363281 222.273438 249.765625 222.421875 250.160156 222.582031 C 250.558594 222.742188 250.949219 222.917969 251.335938 223.101562 C 251.722656 223.289062 252.101562 223.484375 252.476562 223.695312 C 252.851562 223.90625 253.21875 224.125 253.578125 224.359375 C 253.9375 224.589844 254.292969 224.832031 254.636719 225.085938 C 254.980469 225.339844 255.316406 225.605469 255.648438 225.882812 C 255.976562 226.15625 256.296875 226.441406 256.605469 226.738281 C 256.917969 227.03125 257.21875 227.335938 257.507812 227.648438 C 257.800781 227.964844 258.082031 228.285156 258.355469 228.617188 C 258.625 228.949219 258.886719 229.289062 259.136719 229.636719 C 259.390625 229.984375 259.628906 230.339844 259.855469 230.703125 C 260.085938 231.066406 260.300781 231.433594 260.507812 231.808594 C 260.714844 232.1875 260.90625 232.570312 261.089844 232.957031 C 261.269531 233.34375 261.4375 233.738281 261.597656 234.136719 C 261.753906 234.535156 261.898438 234.9375 262.03125 235.347656 C 262.160156 235.753906 262.28125 236.167969 262.386719 236.582031 C 262.492188 236.996094 262.585938 237.414062 262.667969 237.835938 C 262.746094 238.257812 262.816406 238.679688 262.867188 239.105469 C 262.921875 239.53125 262.964844 239.957031 262.992188 240.382812 C 263.019531 240.8125 263.03125 241.238281 263.03125 241.667969 C 263.035156 243.074219 262.894531 244.46875 262.609375 245.84375 C 262.324219 247.222656 261.898438 248.554688 261.339844 249.84375 C 260.777344 251.136719 260.085938 252.351562 259.273438 253.5 C 258.457031 254.648438 257.535156 255.699219 256.503906 256.652344 C 256.074219 257.054688 255.730469 257.523438 255.472656 258.050781 L 255.015625 258.984375 C 252.757812 263.242188 250.953125 267.683594 249.601562 272.308594 C 248.253906 276.933594 247.386719 281.648438 247 286.453125 C 246.96875 286.785156 246.972656 287.117188 247.011719 287.449219 C 247.050781 287.78125 247.121094 288.105469 247.226562 288.421875 C 247.332031 288.738281 247.472656 289.039062 247.640625 289.328125 C 247.808594 289.613281 248.003906 289.882812 248.230469 290.128906 C 248.457031 290.375 248.703125 290.59375 248.972656 290.789062 C 249.246094 290.984375 249.53125 291.148438 249.835938 291.285156 C 250.144531 291.417969 250.457031 291.519531 250.785156 291.589844 C 251.113281 291.660156 251.441406 291.691406 251.773438 291.691406 L 254.515625 291.691406 C 254.632812 292.132812 254.6875 292.582031 254.683594 293.039062 L 254.683594 298.988281 C 254.683594 299.304688 254.714844 299.617188 254.777344 299.925781 C 254.839844 300.234375 254.929688 300.535156 255.050781 300.824219 C 255.171875 301.117188 255.320312 301.390625 255.492188 301.65625 C 255.667969 301.917969 255.867188 302.160156 256.089844 302.382812 C 256.3125 302.605469 256.554688 302.800781 256.816406 302.976562 C 257.078125 303.152344 257.355469 303.300781 257.644531 303.421875 C 257.9375 303.539062 258.238281 303.632812 258.546875 303.695312 C 258.855469 303.753906 259.167969 303.785156 259.480469 303.785156 L 279.519531 303.785156 C 279.699219 303.785156 279.871094 303.816406 280.039062 303.882812 C 280.207031 303.953125 280.355469 304.050781 280.484375 304.175781 C 280.609375 304.300781 280.710938 304.449219 280.78125 304.613281 C 280.851562 304.777344 280.886719 304.953125 280.890625 305.132812 Z M 280.890625 320.421875 " fill-opacity="1" fill-rule="nonzero"/></g><path fill="#af8b45" d="M 187.535156 256.289062 C 186.371094 255.460938 185.082031 254.945312 183.671875 254.738281 C 182.261719 254.53125 180.878906 254.65625 179.527344 255.109375 C 174.4375 256.945312 172.398438 263.132812 170.238281 269.683594 C 169.257812 273.28125 167.820312 276.683594 165.929688 279.894531 C 165.742188 279.308594 165.5625 278.691406 165.414062 278.179688 C 164.164062 273.875 161.828125 265.867188 153.621094 266.738281 C 147.023438 267.449219 144.179688 273.335938 141.667969 278.53125 C 138.96875 284.125 137.050781 287.5625 133.1875 288.148438 C 132.957031 288.1875 132.726562 288.203125 132.496094 288.199219 C 131.613281 286.253906 132.828125 279.066406 135.070312 273.226562 C 135.179688 272.933594 135.265625 272.628906 135.316406 272.320312 C 135.371094 272.007812 135.394531 271.695312 135.386719 271.382812 C 135.378906 271.066406 135.339844 270.757812 135.269531 270.449219 C 135.199219 270.144531 135.101562 269.847656 134.972656 269.558594 C 134.84375 269.269531 134.691406 269 134.507812 268.742188 C 134.328125 268.484375 134.121094 268.246094 133.894531 268.03125 C 133.667969 267.8125 133.417969 267.621094 133.152344 267.453125 C 132.886719 267.285156 132.609375 267.144531 132.3125 267.03125 C 132.019531 266.917969 131.71875 266.835938 131.410156 266.78125 C 131.097656 266.726562 130.785156 266.703125 130.472656 266.710938 C 130.15625 266.71875 129.847656 266.757812 129.539062 266.828125 C 129.230469 266.898438 128.933594 266.996094 128.648438 267.125 C 128.359375 267.25 128.085938 267.40625 127.828125 267.585938 C 127.570312 267.769531 127.335938 267.972656 127.117188 268.199219 C 126.902344 268.429688 126.707031 268.675781 126.539062 268.941406 C 126.371094 269.207031 126.230469 269.488281 126.117188 269.78125 C 124.535156 273.878906 119.796875 287.769531 125.121094 294.394531 C 126.03125 295.511719 127.148438 296.371094 128.460938 296.964844 C 129.777344 297.5625 131.15625 297.839844 132.597656 297.789062 C 133.277344 297.789062 133.953125 297.734375 134.625 297.632812 C 143.765625 296.246094 147.546875 288.417969 150.308594 282.703125 C 151.59375 280.035156 153.179688 276.753906 154.523438 276.3125 C 155.261719 277.761719 155.820312 279.277344 156.203125 280.859375 C 157.269531 284.515625 158.472656 288.65625 162.390625 290.164062 C 163.660156 290.605469 164.960938 290.730469 166.289062 290.539062 C 167.621094 290.34375 168.832031 289.855469 169.921875 289.066406 C 174.976562 285.949219 177.199219 279.207031 179.347656 272.683594 C 180.160156 269.851562 181.242188 267.125 182.597656 264.507812 C 182.867188 264.664062 183.148438 264.789062 183.445312 264.890625 C 183.738281 264.992188 184.039062 265.0625 184.347656 265.101562 C 184.65625 265.144531 184.964844 265.15625 185.277344 265.136719 C 185.585938 265.117188 185.890625 265.070312 186.191406 264.992188 C 186.492188 264.914062 186.785156 264.804688 187.0625 264.671875 C 187.34375 264.535156 187.609375 264.375 187.859375 264.1875 C 188.105469 264.003906 188.335938 263.792969 188.542969 263.5625 C 188.753906 263.332031 188.9375 263.085938 189.097656 262.816406 C 189.257812 262.550781 189.390625 262.273438 189.496094 261.980469 C 189.601562 261.6875 189.675781 261.386719 189.726562 261.082031 C 189.773438 260.773438 189.789062 260.464844 189.777344 260.152344 C 189.765625 259.84375 189.722656 259.535156 189.648438 259.234375 C 189.578125 258.929688 189.476562 258.640625 189.347656 258.355469 C 189.21875 258.074219 189.0625 257.804688 188.882812 257.554688 C 188.699219 257.300781 188.496094 257.066406 188.269531 256.855469 C 188.042969 256.640625 187.796875 256.453125 187.535156 256.289062 Z M 187.535156 256.289062 " fill-opacity="1" fill-rule="nonzero"/><path fill="#af8b45" d="M 125.039062 213.871094 C 125.039062 214.1875 125.070312 214.5 125.132812 214.808594 C 125.195312 215.117188 125.285156 215.417969 125.40625 215.707031 C 125.527344 216 125.671875 216.273438 125.847656 216.535156 C 126.023438 216.796875 126.222656 217.039062 126.445312 217.261719 C 126.667969 217.484375 126.910156 217.683594 127.171875 217.859375 C 127.433594 218.035156 127.710938 218.183594 128 218.304688 C 128.292969 218.421875 128.589844 218.515625 128.898438 218.574219 C 129.207031 218.636719 129.519531 218.667969 129.835938 218.667969 L 209.851562 218.667969 C 212.527344 214.914062 215.753906 211.71875 219.53125 209.078125 L 129.835938 209.078125 C 129.519531 209.078125 129.207031 209.109375 128.898438 209.167969 C 128.589844 209.230469 128.292969 209.320312 128 209.441406 C 127.710938 209.5625 127.433594 209.710938 127.171875 209.886719 C 126.910156 210.0625 126.667969 210.257812 126.445312 210.480469 C 126.222656 210.703125 126.023438 210.945312 125.847656 211.207031 C 125.671875 211.46875 125.527344 211.746094 125.40625 212.039062 C 125.285156 212.328125 125.195312 212.628906 125.132812 212.9375 C 125.070312 213.246094 125.039062 213.558594 125.039062 213.871094 Z M 125.039062 213.871094 " fill-opacity="1" fill-rule="nonzero"/></svg>