<svg xmlns="http://www.w3.org/2000/svg" xmlns:xlink="http://www.w3.org/1999/xlink" width="500" zoomAndPan="magnify" viewBox="0 0 375 374.999991" height="500" preserveAspectRatio="xMidYMid meet" version="1.0"><defs><clipPath id="71e474f75a"><path d="M 34.226562 328 L 340.976562 328 L 340.976562 338 L 34.226562 338 Z M 34.226562 328 " clip-rule="nonzero"/></clipPath></defs><path fill="#af8b45" d="M 77.332031 167.859375 L 89.308594 167.859375 L 89.308594 184.625 L 77.332031 184.625 Z M 77.332031 167.859375 " fill-opacity="1" fill-rule="nonzero"/><path fill="#af8b45" d="M 116.128906 221.027344 L 128.105469 221.027344 L 128.105469 237.789062 L 116.128906 237.789062 Z M 116.128906 221.027344 " fill-opacity="1" fill-rule="nonzero"/><path fill="#af8b45" d="M 154.445312 221.027344 L 166.421875 221.027344 L 166.421875 237.789062 L 154.445312 237.789062 Z M 154.445312 221.027344 " fill-opacity="1" fill-rule="nonzero"/><path fill="#af8b45" d="M 116.128906 167.859375 L 128.105469 167.859375 L 128.105469 184.625 L 116.128906 184.625 Z M 116.128906 167.859375 " fill-opacity="1" fill-rule="nonzero"/><path fill="#af8b45" d="M 193.242188 136.25 L 51.46875 136.25 C 49.074219 136.25 47.160156 138.164062 47.160156 140.558594 L 47.160156 319.214844 L 97.929688 319.214844 L 97.929688 273.234375 C 97.929688 270.839844 99.84375 268.921875 102.238281 268.921875 L 142.472656 268.921875 C 144.867188 268.921875 146.785156 270.839844 146.785156 273.234375 L 146.785156 319.214844 L 197.554688 319.214844 L 197.554688 140.558594 C 197.554688 138.164062 195.636719 136.25 193.242188 136.25 Z M 98.40625 242.101562 C 98.40625 244.496094 96.492188 246.410156 94.097656 246.410156 L 73.023438 246.410156 C 70.628906 246.410156 68.710938 244.496094 68.710938 242.101562 L 68.710938 216.714844 C 68.710938 214.320312 70.628906 212.402344 73.023438 212.402344 L 94.097656 212.402344 C 96.492188 212.402344 98.40625 214.320312 98.40625 216.714844 Z M 98.40625 188.933594 C 98.40625 191.328125 96.492188 193.246094 94.097656 193.246094 L 73.023438 193.246094 C 70.628906 193.246094 68.710938 191.328125 68.710938 188.933594 L 68.710938 163.550781 C 68.710938 161.15625 70.628906 159.238281 73.023438 159.238281 L 94.097656 159.238281 C 96.492188 159.238281 98.40625 161.15625 98.40625 163.550781 Z M 137.203125 242.101562 C 137.203125 244.496094 135.289062 246.410156 132.894531 246.410156 L 111.820312 246.410156 C 109.425781 246.410156 107.507812 244.496094 107.507812 242.101562 L 107.507812 216.714844 C 107.507812 214.320312 109.425781 212.402344 111.820312 212.402344 L 132.894531 212.402344 C 135.289062 212.402344 137.203125 214.320312 137.203125 216.714844 Z M 137.203125 188.933594 C 137.203125 191.328125 135.289062 193.246094 132.894531 193.246094 L 111.820312 193.246094 C 109.425781 193.246094 107.507812 191.328125 107.507812 188.933594 L 107.507812 163.550781 C 107.507812 161.15625 109.425781 159.238281 111.820312 159.238281 L 132.894531 159.238281 C 135.289062 159.238281 137.203125 161.15625 137.203125 163.550781 Z M 176 242.101562 C 176 244.496094 174.085938 246.410156 171.691406 246.410156 L 150.613281 246.410156 C 148.21875 246.410156 146.304688 244.496094 146.304688 242.101562 L 146.304688 216.714844 C 146.304688 214.320312 148.21875 212.402344 150.613281 212.402344 L 171.691406 212.402344 C 174.085938 212.402344 176 214.320312 176 216.714844 Z M 176 188.933594 C 176 191.328125 174.085938 193.246094 171.691406 193.246094 L 150.613281 193.246094 C 148.21875 193.246094 146.304688 191.328125 146.304688 188.933594 L 146.304688 163.550781 C 146.304688 161.15625 148.21875 159.238281 150.613281 159.238281 L 171.691406 159.238281 C 174.085938 159.238281 176 161.15625 176 163.550781 Z M 176 188.933594 " fill-opacity="1" fill-rule="nonzero"/><path fill="#af8b45" d="M 106.550781 278.023438 L 137.683594 278.023438 L 137.683594 319.691406 L 106.550781 319.691406 Z M 106.550781 278.023438 " fill-opacity="1" fill-rule="nonzero"/><path fill="#af8b45" d="M 77.332031 221.027344 L 89.308594 221.027344 L 89.308594 237.789062 L 77.332031 237.789062 Z M 77.332031 221.027344 " fill-opacity="1" fill-rule="nonzero"/><path fill="#af8b45" d="M 154.445312 167.859375 L 166.421875 167.859375 L 166.421875 184.625 L 154.445312 184.625 Z M 154.445312 167.859375 " fill-opacity="1" fill-rule="nonzero"/><path fill="#af8b45" d="M 229.164062 233 L 242.578125 233 L 242.578125 249.761719 L 229.164062 249.761719 Z M 229.164062 233 " fill-opacity="1" fill-rule="nonzero"/><path fill="#af8b45" d="M 278.976562 233 L 292.390625 233 L 292.390625 249.761719 L 278.976562 249.761719 Z M 278.976562 233 " fill-opacity="1" fill-rule="nonzero"/><path fill="#af8b45" d="M 310.109375 201.386719 L 206.65625 201.386719 L 206.65625 319.214844 L 238.265625 319.214844 L 238.265625 281.855469 C 238.265625 279.460938 240.183594 277.542969 242.578125 277.542969 L 278.5 277.542969 C 280.894531 277.542969 282.808594 279.460938 282.808594 281.855469 L 282.808594 319.214844 L 314.421875 319.214844 L 314.421875 206.175781 C 314.902344 203.78125 312.507812 201.386719 310.109375 201.386719 Z M 251.199219 254.074219 C 251.199219 256.46875 249.28125 258.386719 246.886719 258.386719 L 224.375 258.386719 C 221.980469 258.386719 220.066406 256.46875 220.066406 254.074219 L 220.066406 228.6875 C 220.066406 226.292969 221.980469 224.378906 224.375 224.378906 L 246.886719 224.378906 C 249.28125 224.378906 251.199219 226.292969 251.199219 228.6875 Z M 301.011719 254.074219 C 301.011719 256.46875 299.09375 258.386719 296.699219 258.386719 L 274.1875 258.386719 C 271.792969 258.386719 269.878906 256.46875 269.878906 254.074219 L 269.878906 228.6875 C 269.878906 226.292969 271.792969 224.378906 274.1875 224.378906 L 296.699219 224.378906 C 299.09375 224.378906 301.011719 226.292969 301.011719 228.6875 Z M 301.011719 254.074219 " fill-opacity="1" fill-rule="nonzero"/><path fill="#af8b45" d="M 247.367188 286.644531 L 274.1875 286.644531 L 274.1875 319.214844 L 247.367188 319.214844 Z M 247.367188 286.644531 " fill-opacity="1" fill-rule="nonzero"/><path fill="#af8b45" d="M 253.113281 134.8125 C 255.03125 136.25 255.988281 138.644531 255.988281 141.039062 C 255.988281 143.433594 255.03125 145.828125 253.113281 147.265625 L 244.972656 155.886719 C 241.617188 159.238281 235.871094 159.238281 232.519531 155.886719 L 187.972656 111.34375 C 184.621094 107.988281 184.621094 102.242188 187.972656 98.890625 L 196.117188 90.746094 C 199.46875 87.394531 205.21875 87.394531 208.570312 90.746094 Z M 253.113281 134.8125 " fill-opacity="1" fill-rule="nonzero"/><path fill="#af8b45" d="M 302.925781 97.929688 L 294.785156 106.074219 C 291.429688 109.425781 285.683594 109.425781 282.332031 106.074219 L 237.789062 61.53125 C 234.433594 58.175781 234.433594 52.429688 237.789062 49.078125 L 245.929688 40.933594 C 249.28125 37.582031 255.03125 37.582031 258.382812 40.933594 L 302.925781 85.476562 C 306.28125 88.832031 306.28125 94.578125 302.925781 97.929688 Z M 302.925781 97.929688 " fill-opacity="1" fill-rule="nonzero"/><path fill="#af8b45" d="M 272.75 109.425781 L 256.46875 125.710938 L 217.671875 87.394531 L 234.433594 70.628906 Z M 272.75 109.425781 " fill-opacity="1" fill-rule="nonzero"/><path fill="#af8b45" d="M 335.976562 188.933594 C 334.058594 190.851562 331.1875 190.371094 329.75 188.933594 L 267.960938 127.148438 L 274.1875 120.921875 L 335.976562 182.707031 C 337.414062 184.144531 337.414062 187.019531 335.976562 188.933594 Z M 335.976562 188.933594 " fill-opacity="1" fill-rule="nonzero"/><g clip-path="url(#71e474f75a)"><path fill="#af8b45" d="M 340.765625 333.105469 C 340.765625 335.5 338.847656 337.414062 336.453125 337.414062 L 38.535156 337.414062 C 36.140625 337.414062 34.226562 335.5 34.226562 333.105469 C 34.226562 330.710938 36.140625 328.792969 38.535156 328.792969 L 335.976562 328.792969 C 338.847656 328.792969 340.765625 330.710938 340.765625 333.105469 Z M 340.765625 333.105469 " fill-opacity="1" fill-rule="nonzero"/><path fill="#af8b45" d="M 340.765625 333.105469 C 340.765625 335.5 338.847656 337.414062 336.453125 337.414062 L 38.535156 337.414062 C 36.140625 337.414062 34.226562 335.5 34.226562 333.105469 C 34.226562 330.710938 36.140625 328.792969 38.535156 328.792969 L 335.976562 328.792969 C 338.847656 328.792969 340.765625 330.710938 340.765625 333.105469 Z M 340.765625 333.105469 " fill-opacity="1" fill-rule="nonzero"/></g></svg>