<svg xmlns="http://www.w3.org/2000/svg" xmlns:xlink="http://www.w3.org/1999/xlink" width="500" zoomAndPan="magnify" viewBox="0 0 375 374.999991" height="500" preserveAspectRatio="xMidYMid meet" version="1.0"><defs><clipPath id="4f825ea88c"><path d="M 201 217.523438 L 351.707031 217.523438 L 351.707031 337.714844 L 201 337.714844 Z M 201 217.523438 " clip-rule="nonzero"/></clipPath><clipPath id="c69c007a8e"><path d="M 23.207031 217.523438 L 174 217.523438 L 174 337.714844 L 23.207031 337.714844 Z M 23.207031 217.523438 " clip-rule="nonzero"/></clipPath></defs><g clip-path="url(#4f825ea88c)"><path fill="#af8b45" d="M 340.058594 235.769531 C 334.320312 247.285156 324.734375 264.25 311.5625 286.195312 C 305.644531 296.058594 293.804688 297.347656 281.273438 298.710938 C 268.695312 300.082031 255.6875 301.5 250.621094 313.277344 C 248.875 317.335938 248.566406 321.003906 248.34375 323.679688 C 248.050781 327.15625 247.832031 327.925781 246.882812 328.820312 C 243.203125 332.273438 235.128906 332.988281 226.308594 330.640625 C 216.726562 328.085938 208.828125 322.445312 206.980469 316.867188 C 207.054688 314.539062 210.941406 304.457031 212.234375 301.105469 L 212.3125 300.898438 C 212.375 300.738281 212.421875 300.570312 212.457031 300.402344 L 212.5 300.183594 C 214.496094 290.023438 219.554688 282.625 227.121094 278.785156 C 227.148438 278.773438 227.175781 278.757812 227.203125 278.742188 L 227.34375 278.664062 C 227.371094 278.652344 227.394531 278.636719 227.421875 278.621094 C 236.6875 273.167969 247.765625 272.382812 255.09375 271.867188 C 255.878906 271.808594 256.609375 271.757812 257.289062 271.703125 C 269.886719 270.699219 286.703125 263.726562 296.996094 257.671875 C 298.339844 256.878906 300.007812 256.855469 302.074219 257.605469 L 285.25 267.503906 C 282.636719 269.042969 281.761719 272.417969 283.300781 275.03125 C 284.042969 276.296875 285.238281 277.199219 286.660156 277.566406 C 288.082031 277.933594 289.5625 277.726562 290.828125 276.984375 L 315.953125 262.199219 C 316.148438 262.082031 316.332031 261.949219 316.492188 261.792969 C 320.503906 259.597656 323.914062 253.867188 329.289062 244.847656 C 333.613281 237.585938 338.515625 229.355469 342.824219 225.335938 C 343.835938 224.636719 344.652344 224.203125 345.285156 223.933594 C 344.613281 225.945312 343.171875 229.53125 340.058594 235.769531 Z M 349.5625 218.195312 C 349.523438 218.175781 349.484375 218.15625 349.445312 218.136719 C 347.996094 217.414062 344.789062 216.773438 339.4375 220.480469 C 339.210938 220.636719 339 220.804688 338.808594 220.984375 C 333.875 225.574219 328.738281 234.203125 324.203125 241.816406 C 319.742188 249.304688 315.894531 255.769531 313.316406 256.757812 C 312.867188 256.929688 312.46875 257.210938 312.15625 257.566406 L 307.914062 260.0625 C 308.363281 259.195312 308.578125 258.210938 308.515625 257.191406 C 308.390625 255.117188 307.128906 253.316406 305.222656 252.488281 C 300.988281 250.648438 297.207031 250.675781 293.992188 252.570312 C 283.957031 258.472656 267.96875 264.914062 256.820312 265.800781 C 256.15625 265.855469 255.441406 265.90625 254.675781 265.960938 C 247.28125 266.484375 234.917969 267.359375 224.460938 273.496094 L 224.398438 273.527344 C 215.179688 278.21875 209.0625 287.027344 206.699219 299.003906 C 201.722656 311.921875 200.550781 316.089844 201.253906 318.390625 C 203.613281 326.128906 212.851562 333.179688 224.785156 336.359375 C 228.785156 337.425781 232.617188 337.949219 236.128906 337.949219 C 242.339844 337.949219 247.554688 336.3125 250.9375 333.132812 C 253.710938 330.527344 253.957031 327.582031 254.242188 324.175781 C 254.453125 321.652344 254.695312 318.789062 256.0625 315.617188 C 259.761719 307.011719 270.027344 305.890625 281.914062 304.597656 C 294.707031 303.203125 309.207031 301.625 316.640625 289.238281 C 329.886719 267.164062 339.550781 250.0625 345.355469 238.414062 C 351.042969 227.011719 351.742188 223.421875 351.777344 221.710938 C 351.777344 221.710938 351.777344 221.707031 351.777344 221.707031 C 351.804688 220.308594 350.933594 218.933594 349.5625 218.195312 " fill-opacity="1" fill-rule="nonzero"/></g><g clip-path="url(#c69c007a8e)"><path fill="#af8b45" d="M 148.675781 330.640625 C 139.855469 332.988281 131.78125 332.273438 128.101562 328.820312 C 127.148438 327.925781 126.929688 327.15625 126.640625 323.679688 C 126.414062 321.003906 126.109375 317.335938 124.363281 313.277344 C 119.296875 301.5 106.289062 300.082031 93.710938 298.710938 C 81.179688 297.347656 69.34375 296.058594 63.421875 286.195312 C 50.25 264.25 40.664062 247.285156 34.925781 235.769531 C 31.816406 229.53125 30.367188 225.945312 29.699219 223.933594 C 30.332031 224.203125 31.148438 224.636719 32.160156 225.335938 C 36.46875 229.351562 41.371094 237.585938 45.695312 244.847656 C 51.070312 253.867188 54.480469 259.597656 58.492188 261.792969 C 58.65625 261.949219 58.835938 262.082031 59.03125 262.199219 L 84.15625 276.984375 C 85.421875 277.726562 86.902344 277.933594 88.324219 277.566406 C 89.746094 277.199219 90.9375 276.296875 91.683594 275.03125 C 93.222656 272.417969 92.347656 269.042969 89.734375 267.503906 L 72.910156 257.605469 C 74.976562 256.855469 76.644531 256.878906 77.992188 257.671875 C 88.28125 263.726562 105.09375 270.699219 117.695312 271.703125 C 118.375 271.757812 119.109375 271.808594 119.890625 271.867188 C 127.21875 272.382812 138.296875 273.167969 147.5625 278.621094 C 147.589844 278.636719 147.617188 278.652344 147.640625 278.664062 L 147.78125 278.742188 C 147.808594 278.757812 147.835938 278.773438 147.863281 278.785156 C 155.429688 282.625 160.488281 290.023438 162.484375 300.1875 L 162.527344 300.402344 C 162.5625 300.570312 162.609375 300.738281 162.671875 300.898438 L 162.75 301.101562 C 164.042969 304.457031 167.929688 314.539062 168.007812 316.867188 C 166.15625 322.445312 158.253906 328.085938 148.675781 330.640625 Z M 150.582031 273.527344 L 150.523438 273.496094 C 140.066406 267.359375 127.703125 266.484375 120.308594 265.960938 C 119.542969 265.90625 118.828125 265.855469 118.164062 265.800781 C 107.019531 264.914062 91.027344 258.472656 80.992188 252.570312 C 77.777344 250.675781 74 250.648438 69.757812 252.488281 C 67.855469 253.316406 66.59375 255.117188 66.46875 257.191406 C 66.40625 258.210938 66.621094 259.195312 67.070312 260.0625 L 62.828125 257.566406 C 62.515625 257.210938 62.121094 256.929688 61.667969 256.757812 C 59.089844 255.769531 55.238281 249.304688 50.78125 241.816406 C 46.246094 234.203125 41.109375 225.574219 36.179688 220.988281 C 35.984375 220.804688 35.773438 220.636719 35.542969 220.476562 C 30.195312 216.773438 26.984375 217.414062 25.539062 218.136719 C 25.5 218.15625 25.460938 218.175781 25.421875 218.195312 C 24.050781 218.933594 23.179688 220.308594 23.207031 221.707031 C 23.207031 221.707031 23.207031 221.710938 23.207031 221.710938 C 23.242188 223.421875 23.945312 227.011719 29.625 238.414062 C 35.433594 250.0625 45.097656 267.164062 58.34375 289.238281 C 65.777344 301.625 80.277344 303.203125 93.070312 304.597656 C 104.957031 305.890625 115.222656 307.011719 118.921875 315.617188 C 120.289062 318.789062 120.527344 321.652344 120.742188 324.175781 C 121.027344 327.582031 121.273438 330.527344 124.046875 333.132812 C 127.429688 336.3125 132.640625 337.949219 138.855469 337.949219 C 142.367188 337.949219 146.199219 337.425781 150.199219 336.359375 C 162.136719 333.179688 171.371094 326.128906 173.734375 318.390625 C 174.433594 316.089844 173.261719 311.921875 168.285156 299.003906 C 165.921875 287.027344 159.800781 278.21875 150.582031 273.527344 " fill-opacity="1" fill-rule="nonzero"/></g><path fill="#af8b45" d="M 206.207031 123.617188 C 205.101562 124.074219 204.378906 125.152344 204.378906 126.347656 L 204.378906 168.058594 C 204.378906 168.195312 204.390625 168.328125 204.40625 168.460938 C 204.433594 168.640625 204.445312 168.816406 204.445312 168.980469 L 204.445312 206.324219 C 204.445312 206.363281 204.445312 206.402344 204.449219 206.441406 C 204.449219 206.496094 204.453125 206.550781 204.453125 206.605469 L 204.453125 244.601562 C 204.453125 246.691406 202.753906 248.390625 200.667969 248.390625 L 197.945312 248.390625 C 195.859375 248.390625 194.160156 246.691406 194.160156 244.601562 L 194.160156 207.261719 C 194.160156 207.222656 194.160156 207.183594 194.15625 207.140625 C 194.15625 207.089844 194.152344 207.035156 194.152344 206.980469 L 194.152344 176.714844 C 194.152344 175.082031 192.828125 173.757812 191.191406 173.757812 L 183.855469 173.757812 C 182.222656 173.757812 180.894531 175.082031 180.894531 176.714844 L 180.894531 206.324219 C 180.894531 206.367188 180.898438 206.410156 180.898438 206.453125 C 180.902344 206.503906 180.902344 206.554688 180.902344 206.605469 L 180.902344 244.601562 C 180.902344 246.691406 179.207031 248.390625 177.117188 248.390625 L 174.398438 248.390625 C 172.308594 248.390625 170.613281 246.691406 170.613281 244.601562 L 170.613281 207.261719 C 170.613281 207.222656 170.609375 207.179688 170.609375 207.140625 C 170.605469 207.085938 170.605469 207.035156 170.605469 206.980469 L 170.605469 126.347656 C 170.605469 125.152344 169.882812 124.074219 168.777344 123.617188 C 167.671875 123.15625 166.398438 123.410156 165.550781 124.257812 L 140.640625 149.167969 C 139.539062 150.269531 138.070312 150.878906 136.507812 150.878906 C 134.949219 150.878906 133.480469 150.269531 132.378906 149.167969 C 130.101562 146.890625 130.101562 143.183594 132.378906 140.90625 L 171.128906 102.15625 C 171.359375 101.925781 171.617188 101.710938 171.894531 101.515625 C 172.109375 101.359375 172.304688 101.179688 172.46875 100.976562 C 174.039062 99.0625 176.359375 97.964844 178.832031 97.964844 L 185.75 97.964844 C 186.328125 98.007812 186.90625 98.039062 187.492188 98.039062 C 188.078125 98.039062 188.65625 98.007812 189.234375 97.964844 L 196.152344 97.964844 C 198.625 97.964844 200.941406 99.0625 202.515625 100.976562 C 202.683594 101.179688 202.875 101.359375 203.089844 101.515625 C 203.367188 101.710938 203.625 101.925781 203.855469 102.15625 L 242.605469 140.90625 C 243.710938 142.011719 244.316406 143.476562 244.316406 145.039062 C 244.316406 146.597656 243.710938 148.066406 242.605469 149.167969 C 240.328125 151.445312 236.621094 151.445312 234.34375 149.167969 L 209.433594 124.257812 C 208.585938 123.410156 207.3125 123.15625 206.207031 123.617188 Z M 141.84375 229.210938 C 141.84375 231.296875 140.148438 232.996094 138.058594 232.996094 L 135.339844 232.996094 C 133.25 232.996094 131.554688 231.296875 131.554688 229.210938 L 131.554688 191.867188 C 131.554688 191.828125 131.550781 191.789062 131.550781 191.75 C 131.546875 191.695312 131.546875 191.640625 131.546875 191.585938 L 131.546875 161.324219 C 131.546875 159.6875 130.222656 158.363281 128.585938 158.363281 L 121.25 158.363281 C 119.613281 158.363281 118.289062 159.6875 118.289062 161.324219 L 118.289062 190.933594 C 118.289062 190.972656 118.289062 191.015625 118.292969 191.058594 C 118.292969 191.109375 118.296875 191.160156 118.296875 191.214844 L 118.296875 229.210938 C 118.296875 231.296875 116.597656 232.996094 114.511719 232.996094 L 111.789062 232.996094 C 109.703125 232.996094 108.003906 231.296875 108.003906 229.210938 L 108.003906 191.867188 C 108.003906 191.828125 108.003906 191.789062 108.003906 191.75 C 108 191.695312 108 191.640625 108 191.585938 L 108 110.957031 C 108 109.757812 107.277344 108.679688 106.171875 108.222656 C 105.066406 107.765625 103.789062 108.015625 102.945312 108.863281 L 78.03125 133.773438 C 75.757812 136.054688 72.050781 136.050781 69.773438 133.773438 C 67.496094 131.5 67.496094 127.792969 69.773438 125.515625 L 108.523438 86.761719 C 108.753906 86.535156 109.011719 86.316406 109.289062 86.121094 C 109.503906 85.96875 109.695312 85.789062 109.863281 85.585938 C 111.433594 83.671875 113.753906 82.574219 116.226562 82.574219 L 123.144531 82.574219 C 123.71875 82.617188 124.300781 82.648438 124.886719 82.648438 C 125.472656 82.648438 126.050781 82.617188 126.625 82.574219 L 133.546875 82.574219 C 136.019531 82.574219 138.335938 83.671875 139.910156 85.585938 C 140.074219 85.789062 140.269531 85.96875 140.484375 86.121094 C 140.761719 86.316406 141.019531 86.535156 141.246094 86.761719 L 159.683594 105.230469 L 128.191406 136.722656 C 123.609375 141.308594 123.609375 148.769531 128.191406 153.355469 C 131.878906 157.039062 137.421875 157.761719 141.839844 155.519531 L 141.839844 190.933594 C 141.839844 190.972656 141.839844 191.011719 141.839844 191.050781 C 141.84375 191.105469 141.84375 191.160156 141.84375 191.214844 Z M 108 59.839844 C 108 50.527344 115.574219 42.953125 124.886719 42.953125 C 134.199219 42.953125 141.773438 50.527344 141.773438 59.839844 C 141.773438 68.632812 135.015625 75.875 126.425781 76.652344 L 123.347656 76.652344 C 114.753906 75.875 108 68.632812 108 59.839844 Z M 170.605469 75.230469 C 170.605469 65.917969 178.179688 58.34375 187.492188 58.34375 C 196.804688 58.34375 204.378906 65.917969 204.378906 75.230469 C 204.378906 84.023438 197.625 91.265625 189.03125 92.046875 L 185.953125 92.046875 C 177.359375 91.265625 170.605469 84.023438 170.605469 75.230469 Z M 233.738281 86.761719 C 233.964844 86.535156 234.222656 86.316406 234.5 86.121094 C 234.714844 85.96875 234.910156 85.789062 235.078125 85.585938 C 236.648438 83.671875 238.96875 82.574219 241.4375 82.574219 L 248.359375 82.574219 C 248.933594 82.617188 249.511719 82.648438 250.097656 82.648438 C 250.6875 82.648438 251.265625 82.617188 251.839844 82.574219 L 258.757812 82.574219 C 261.230469 82.574219 263.550781 83.671875 265.121094 85.585938 C 265.289062 85.789062 265.480469 85.96875 265.695312 86.121094 C 265.972656 86.316406 266.230469 86.535156 266.460938 86.761719 L 305.210938 125.515625 C 306.316406 126.617188 306.921875 128.085938 306.921875 129.644531 C 306.921875 131.203125 306.316406 132.671875 305.210938 133.773438 C 302.933594 136.054688 299.226562 136.050781 296.949219 133.773438 L 272.039062 108.863281 C 271.195312 108.015625 269.921875 107.765625 268.8125 108.222656 C 267.707031 108.679688 266.988281 109.757812 266.988281 110.957031 L 266.988281 152.667969 C 266.988281 152.800781 266.996094 152.9375 267.015625 153.066406 C 267.039062 153.246094 267.050781 153.425781 267.050781 153.589844 L 267.050781 190.933594 C 267.050781 190.972656 267.050781 191.011719 267.054688 191.050781 C 267.054688 191.105469 267.058594 191.160156 267.058594 191.214844 L 267.058594 229.210938 C 267.058594 231.296875 265.359375 232.996094 263.273438 232.996094 L 260.550781 232.996094 C 258.464844 232.996094 256.765625 231.296875 256.765625 229.210938 L 256.765625 191.867188 C 256.765625 191.828125 256.765625 191.789062 256.765625 191.75 C 256.761719 191.695312 256.757812 191.640625 256.757812 191.585938 L 256.757812 161.324219 C 256.757812 159.6875 255.433594 158.363281 253.800781 158.363281 L 246.460938 158.363281 C 244.828125 158.363281 243.503906 159.6875 243.503906 161.324219 L 243.503906 190.933594 C 243.503906 190.972656 243.503906 191.015625 243.503906 191.058594 C 243.507812 191.109375 243.511719 191.160156 243.511719 191.214844 L 243.511719 229.210938 C 243.511719 231.296875 241.8125 232.996094 239.722656 232.996094 L 237.003906 232.996094 C 234.917969 232.996094 233.21875 231.296875 233.21875 229.210938 L 233.21875 191.867188 C 233.21875 191.828125 233.21875 191.789062 233.214844 191.75 C 233.214844 191.695312 233.210938 191.640625 233.210938 191.585938 L 233.210938 155.550781 C 237.617188 157.753906 243.125 157.023438 246.792969 153.355469 C 249.011719 151.132812 250.238281 148.179688 250.238281 145.039062 C 250.238281 141.894531 249.011719 138.941406 246.792969 136.722656 L 215.300781 105.230469 Z M 233.210938 59.839844 C 233.210938 50.527344 240.785156 42.953125 250.097656 42.953125 C 259.410156 42.953125 266.988281 50.527344 266.988281 59.839844 C 266.988281 68.632812 260.230469 75.875 251.636719 76.652344 L 248.5625 76.652344 C 239.96875 75.875 233.210938 68.632812 233.210938 59.839844 Z M 210.371094 244.601562 L 210.371094 206.605469 C 210.371094 206.492188 210.371094 206.382812 210.363281 206.269531 L 210.363281 168.980469 C 210.363281 168.621094 210.34375 168.246094 210.300781 167.875 L 210.300781 133.496094 L 227.289062 150.484375 L 227.289062 191.585938 C 227.289062 191.699219 227.292969 191.8125 227.296875 191.925781 L 227.296875 229.210938 C 227.296875 234.5625 231.652344 238.917969 237.003906 238.917969 L 239.722656 238.917969 C 245.074219 238.917969 249.429688 234.5625 249.429688 229.210938 L 249.429688 191.214844 C 249.429688 191.097656 249.425781 190.984375 249.421875 190.871094 L 249.421875 164.285156 L 250.839844 164.285156 L 250.839844 191.585938 C 250.839844 191.699219 250.84375 191.8125 250.847656 191.925781 L 250.847656 229.210938 C 250.847656 234.5625 255.199219 238.917969 260.550781 238.917969 L 263.273438 238.917969 C 268.625 238.917969 272.980469 234.5625 272.980469 229.210938 L 272.980469 191.214844 C 272.980469 191.101562 272.976562 190.988281 272.972656 190.875 L 272.972656 153.589844 C 272.972656 153.226562 272.949219 152.855469 272.90625 152.484375 L 272.90625 118.105469 L 292.765625 137.960938 C 297.351562 142.546875 304.8125 142.546875 309.398438 137.960938 C 311.621094 135.738281 312.84375 132.785156 312.84375 129.644531 C 312.84375 126.503906 311.621094 123.550781 309.398438 121.328125 L 270.648438 82.574219 C 270.273438 82.203125 269.871094 81.851562 269.445312 81.527344 C 267.992188 79.855469 266.195312 78.574219 264.203125 77.742188 C 269.496094 73.5625 272.90625 67.09375 272.90625 59.839844 C 272.90625 47.261719 262.675781 37.03125 250.097656 37.03125 C 237.523438 37.03125 227.289062 47.261719 227.289062 59.839844 C 227.289062 67.09375 230.699219 73.5625 235.996094 77.742188 C 234.003906 78.574219 232.207031 79.855469 230.753906 81.527344 C 230.328125 81.851562 229.921875 82.203125 229.546875 82.578125 L 211.117188 101.042969 L 208.039062 97.96875 C 207.667969 97.597656 207.265625 97.246094 206.835938 96.921875 C 205.386719 95.246094 203.589844 93.964844 201.597656 93.136719 C 206.890625 88.957031 210.300781 82.484375 210.300781 75.230469 C 210.300781 62.65625 200.070312 52.425781 187.492188 52.425781 C 174.914062 52.425781 164.683594 62.65625 164.683594 75.230469 C 164.683594 82.484375 168.09375 88.957031 173.386719 93.136719 C 171.394531 93.964844 169.597656 95.246094 168.148438 96.921875 C 167.71875 97.246094 167.316406 97.597656 166.945312 97.96875 L 163.867188 101.042969 L 145.433594 82.574219 C 145.0625 82.203125 144.65625 81.851562 144.230469 81.527344 C 142.777344 79.855469 140.980469 78.574219 138.988281 77.742188 C 144.285156 73.5625 147.695312 67.09375 147.695312 59.839844 C 147.695312 47.261719 137.460938 37.03125 124.886719 37.03125 C 112.308594 37.03125 102.078125 47.261719 102.078125 59.839844 C 102.078125 67.09375 105.484375 73.5625 110.78125 77.742188 C 108.789062 78.574219 106.992188 79.855469 105.539062 81.527344 C 105.113281 81.851562 104.710938 82.203125 104.339844 82.574219 L 65.585938 121.328125 C 61 125.914062 61 133.375 65.585938 137.960938 C 70.171875 142.546875 77.632812 142.546875 82.21875 137.960938 L 102.078125 118.105469 L 102.078125 191.585938 C 102.078125 191.699219 102.082031 191.8125 102.085938 191.925781 L 102.085938 229.210938 C 102.085938 234.5625 106.4375 238.917969 111.789062 238.917969 L 114.511719 238.917969 C 119.863281 238.917969 124.214844 234.5625 124.214844 229.210938 L 124.214844 191.214844 C 124.214844 191.097656 124.214844 190.984375 124.210938 190.871094 L 124.210938 164.285156 L 125.625 164.285156 L 125.625 191.585938 C 125.625 191.699219 125.628906 191.8125 125.632812 191.925781 L 125.632812 229.210938 C 125.632812 234.5625 129.988281 238.917969 135.339844 238.917969 L 138.058594 238.917969 C 143.410156 238.917969 147.765625 234.5625 147.765625 229.210938 L 147.765625 191.214844 C 147.765625 191.097656 147.761719 190.988281 147.757812 190.875 L 147.757812 150.421875 L 164.683594 133.496094 L 164.683594 206.980469 C 164.683594 207.09375 164.6875 207.207031 164.691406 207.316406 L 164.691406 244.601562 C 164.691406 249.953125 169.042969 254.308594 174.398438 254.308594 L 177.117188 254.308594 C 182.46875 254.308594 186.824219 249.953125 186.824219 244.601562 L 186.824219 206.605469 C 186.824219 206.492188 186.820312 206.378906 186.816406 206.265625 L 186.816406 179.675781 L 188.234375 179.675781 L 188.234375 206.980469 C 188.234375 207.09375 188.234375 207.207031 188.238281 207.316406 L 188.238281 244.601562 C 188.238281 249.953125 192.59375 254.308594 197.945312 254.308594 L 200.667969 254.308594 C 206.019531 254.308594 210.371094 249.953125 210.371094 244.601562 " fill-opacity="1" fill-rule="nonzero"/></svg>