<svg xmlns="http://www.w3.org/2000/svg" xmlns:xlink="http://www.w3.org/1999/xlink" width="500" zoomAndPan="magnify" viewBox="0 0 375 374.999991" height="500" preserveAspectRatio="xMidYMid meet" version="1.0"><defs><g/><clipPath id="cff7763063"><path d="M 131.59375 106 L 243.34375 106 L 243.34375 213.222656 L 131.59375 213.222656 Z M 131.59375 106 " clip-rule="nonzero"/></clipPath></defs><rect x="-37.5" width="450" fill="#ffffff" y="-37.499999" height="449.999989" fill-opacity="1"/><rect x="-37.5" width="450" fill="#161717" y="-37.499999" height="449.999989" fill-opacity="1"/><g clip-path="url(#cff7763063)"><path fill="#d4a160" d="M 163.632812 106.914062 C 164.140625 106.574219 164.582031 105.976562 165.269531 106.144531 C 164.921875 106.914062 164.128906 107.339844 163.730469 108.070312 C 161.71875 113.339844 157.996094 113.5 157.804688 115.964844 C 159.335938 115.074219 160.75 113.984375 162.324219 113.15625 C 162.832031 112.921875 163.253906 112.539062 163.570312 112.078125 C 167.128906 107.246094 172.984375 106.25 178.816406 107.671875 C 179.136719 107.707031 179.234375 107.996094 179.308594 108.265625 C 178.40625 108.390625 177.484375 108.347656 176.582031 108.480469 C 172.964844 109.546875 171.992188 114.328125 166.140625 113.386719 C 165.320312 113.410156 164.515625 113.171875 163.703125 113.1875 C 161.941406 114.054688 158.390625 116.285156 157.5625 117.152344 C 158.148438 117.46875 158.828125 117.371094 159.46875 117.339844 C 160.46875 117.21875 161.269531 116.566406 162.144531 116.125 C 165.03125 114.621094 165.21875 115.015625 169.085938 115.496094 C 170.476562 115.777344 171.894531 115.535156 173.296875 115.609375 C 173.269531 115.695312 173.21875 115.871094 173.191406 115.957031 C 172.402344 116.234375 171.5625 116.273438 170.746094 116.40625 C 169.109375 117.015625 167.710938 118.195312 166 118.613281 C 162.65625 118.6875 159.332031 118.167969 155.992188 118.289062 C 153.726562 120.136719 151.550781 122.113281 149.679688 124.371094 C 151.050781 125.246094 153.464844 122.574219 154.578125 121.871094 C 155.535156 121.164062 156.730469 120.875 157.902344 120.851562 C 163.855469 120.328125 160.660156 120.75 164.351562 119.949219 C 164.347656 120.066406 164.339844 120.296875 164.339844 120.414062 C 163.613281 120.761719 162.8125 120.929688 162.085938 121.269531 C 160.742188 122.003906 158.808594 124.222656 157.496094 124.390625 C 147.707031 125.902344 148.867188 125.417969 148.269531 126.074219 C 146.371094 128.40625 143.980469 132.121094 143.71875 133.039062 C 145.679688 133.007812 146.96875 129.601562 148.871094 128.628906 C 151.253906 127.296875 152.320312 128.015625 156.925781 125.75 C 156.941406 125.859375 156.96875 126.085938 156.980469 126.195312 C 156.265625 126.859375 155.246094 127.097656 154.585938 127.828125 C 153.042969 129.523438 152.304688 130.945312 150.917969 131.496094 C 142.332031 134.613281 142.984375 134.152344 142.558594 135.109375 C 141.449219 137.558594 140.367188 140.050781 139.75 142.671875 C 141.238281 142.726562 142.042969 139.203125 143.71875 137.488281 C 145.464844 135.976562 147.792969 135.453125 149.65625 134.128906 C 150.21875 133.738281 150.746094 133.308594 151.3125 132.921875 C 151.324219 133.152344 151.433594 133.421875 151.222656 133.601562 C 150.679688 134.226562 149.90625 134.625 149.4375 135.324219 C 148.507812 136.726562 148.011719 138.445312 146.742188 139.609375 C 144.382812 141.132812 139.769531 143.875 139.207031 144.554688 C 138.640625 146.875 138.328125 149.242188 138.03125 151.609375 C 139.183594 151.46875 139.339844 148.132812 140.824219 146.148438 C 142.25 144.542969 144.292969 143.6875 145.859375 142.246094 C 146.257812 141.878906 146.285156 141.230469 146.792969 140.960938 C 146.851562 141.765625 146.203125 142.363281 146.054688 143.121094 C 144.996094 148.125 143.925781 147.75 139.410156 152.105469 C 138.945312 152.570312 138.375 152.933594 137.996094 153.476562 C 137.871094 155 137.929688 159.683594 138.332031 161.476562 L 138.617188 161.476562 C 138.957031 160.894531 139.253906 160.25 139.238281 159.5625 C 139.261719 154.726562 140.183594 155.265625 143.71875 151.332031 C 144.25 150.867188 144.414062 150.164062 144.574219 149.507812 C 144.652344 149.484375 144.796875 149.4375 144.875 149.414062 C 144.96875 150.195312 144.484375 150.878906 144.488281 151.648438 C 144.230469 156.714844 143.621094 154.765625 138.558594 162.910156 C 138.863281 165.519531 139.589844 168.078125 140.398438 170.582031 C 140.453125 170.902344 140.972656 170.722656 140.960938 170.449219 C 141.242188 169.105469 140.917969 167.746094 140.796875 166.40625 C 140.75 165.9375 140.519531 165.460938 140.707031 164.992188 C 141.316406 162.777344 143.007812 161.101562 143.933594 159.039062 C 144.167969 158.589844 143.855469 157.871094 144.339844 157.59375 C 145.039062 166.542969 145.140625 160.992188 141.304688 171.578125 C 141.222656 171.871094 141.050781 172.175781 141.132812 172.484375 C 142.023438 174.96875 143.285156 177.300781 144.5625 179.605469 C 144.632812 179.625 144.773438 179.667969 144.839844 179.691406 C 144.910156 178.917969 144.992188 178.089844 144.660156 177.363281 C 142.71875 172.863281 143.914062 172.945312 145.5625 167.53125 C 145.738281 166.871094 145.476562 166.191406 145.636719 165.53125 C 145.886719 165.902344 146.085938 166.316406 146.09375 166.773438 C 146.195312 168.3125 148.027344 171.6875 147.15625 173.730469 C 146.3125 176.015625 145.90625 178.429688 145.355469 180.792969 C 147.265625 183.863281 150.222656 187.433594 151 187.960938 C 151.195312 186.003906 148.667969 183.742188 148.601562 181.664062 C 148.648438 179.710938 149.183594 177.808594 149.300781 175.863281 C 149.382812 175.246094 149.058594 174.691406 148.988281 174.089844 C 149.800781 174.46875 149.707031 175.566406 150.144531 176.242188 C 152.980469 180.472656 152.257812 183.863281 151.84375 188.277344 C 151.847656 188.519531 151.699219 188.835938 151.933594 189.019531 C 152.652344 189.734375 157.40625 194.273438 158.359375 194.246094 C 158.382812 192.578125 156.019531 190.566406 155 189.132812 C 153.984375 187.21875 154.464844 184.988281 154.160156 182.933594 C 154.117188 182.265625 153.550781 181.777344 153.523438 181.109375 C 154.296875 181.667969 154.523438 182.664062 155.207031 183.308594 C 156.5 184.59375 157.402344 186.21875 158.121094 187.878906 C 158.574219 189.328125 158.628906 190.855469 158.867188 192.347656 C 159.070312 195.589844 159.246094 195.015625 160.164062 195.722656 C 162.09375 196.925781 164.058594 198.097656 166.144531 199.003906 C 166.089844 198.777344 166.132812 198.503906 165.964844 198.320312 C 164.984375 197.160156 163.527344 196.566406 162.417969 195.558594 C 161.082031 193.726562 160.414062 189.472656 159.859375 188.144531 C 159.609375 187.691406 159.21875 187.34375 158.96875 186.890625 C 159.617188 186.945312 159.941406 187.558594 160.347656 187.984375 C 160.820312 188.550781 163.234375 189.988281 164.589844 192.484375 C 165.832031 195.257812 166.757812 199.382812 167.824219 199.804688 C 170.355469 200.882812 172.976562 201.769531 175.652344 202.429688 C 175.675781 202.320312 175.730469 202.105469 175.757812 202 C 175.082031 200.929688 172.96875 200.273438 171.03125 199.179688 C 168.90625 197.988281 169.046875 195.90625 167.503906 193.636719 C 167.074219 192.933594 166.105469 192.707031 165.839844 191.878906 C 166.796875 192.011719 167.484375 192.75 168.300781 193.191406 C 169.222656 193.757812 170.269531 194.089844 171.148438 194.71875 C 173.921875 196.980469 175.058594 200.660156 177.867188 202.886719 C 179 203.175781 183.554688 203.878906 184.371094 203.734375 C 184.355469 202.378906 181.417969 202.410156 179.277344 201.132812 C 177.425781 199.898438 177.054688 197.285156 175.03125 196.25 C 174.722656 196.078125 174.449219 195.847656 174.261719 195.542969 C 175.144531 195.613281 175.9375 196.070312 176.785156 196.300781 C 177.988281 196.753906 179.34375 196.804688 180.433594 197.535156 C 182.84375 199.152344 183.949219 202.050781 186.265625 203.769531 C 186.65625 203.957031 187.121094 203.851562 187.539062 203.886719 C 188.046875 203.84375 188.636719 204 189.066406 203.65625 C 189.835938 203.15625 190.300781 202.339844 190.941406 201.703125 C 195.328125 196.039062 195.136719 197.472656 198.339844 196.3125 C 199.179688 196.035156 199.996094 195.632812 200.882812 195.542969 C 200.550781 196.199219 199.738281 196.34375 199.242188 196.847656 C 198 198.097656 197.472656 199.925781 196.042969 201.015625 C 194.660156 201.980469 192.90625 202.113281 191.421875 202.855469 C 191.078125 202.992188 190.898438 203.316406 190.707031 203.605469 C 191.105469 203.925781 191.609375 203.6875 192.066406 203.6875 C 197.871094 202.984375 197.203125 202.996094 197.984375 202.261719 C 200.109375 200.171875 201.304688 197.34375 203.40625 195.234375 C 204.351562 194.273438 205.679688 193.90625 206.796875 193.21875 C 207.609375 192.75 208.328125 192.117188 209.234375 191.832031 C 209.226562 191.945312 209.21875 192.167969 209.210938 192.28125 C 208.527344 192.820312 207.773438 193.335938 207.355469 194.125 C 206.605469 195.316406 206.292969 196.71875 205.519531 197.894531 C 204.226562 199.972656 199.734375 200.535156 199.324219 202.289062 C 200.839844 202.421875 206.167969 200.316406 207.648438 199.664062 C 209.867188 196.542969 209.070312 191.992188 214.328125 188.464844 C 215.019531 188.019531 215.273438 186.992188 216.164062 186.882812 C 215.921875 187.460938 215.328125 187.828125 215.175781 188.449219 C 214.003906 192.859375 213.667969 194.183594 212.792969 195.507812 C 211.714844 196.496094 210.308594 197.078125 209.320312 198.171875 C 209.128906 198.382812 209.078125 198.671875 209.003906 198.9375 C 211.125 198.195312 215.527344 195.515625 215.957031 194.949219 C 216.207031 194.117188 216.359375 190.964844 216.800781 188.773438 C 217.097656 187.347656 217.890625 186.089844 218.667969 184.875 C 219.230469 183.941406 220.164062 183.296875 220.675781 182.328125 C 220.902344 181.882812 221.183594 181.457031 221.5625 181.128906 C 221.59375 181.214844 221.652344 181.386719 221.683594 181.472656 C 220.308594 183.253906 221.40625 184.113281 220.605469 187.921875 C 220.484375 188.613281 220.175781 189.273438 219.6875 189.78125 C 216.78125 192.960938 216.917969 193.25 216.847656 194.273438 C 218.023438 193.902344 221.863281 190.429688 223.402344 188.851562 C 223.164062 187.800781 223.242188 186.71875 223.058594 185.660156 C 222.839844 182.503906 222.558594 181.542969 224.097656 177.867188 C 224.445312 176.964844 225.160156 176.246094 225.410156 175.304688 C 225.605469 174.863281 225.609375 174.171875 226.203125 174.082031 C 225.113281 176.566406 227.199219 180.539062 226.34375 182.796875 C 225.640625 184.496094 224.246094 185.957031 224.121094 187.859375 C 225.054688 187.546875 228.492188 182.878906 229.71875 180.9375 C 229.769531 179.804688 228.644531 175.898438 228.542969 175.40625 C 228.035156 173.027344 227.359375 173.84375 228.085938 170.261719 C 228.414062 168.632812 228.765625 169.125 229.226562 165.824219 C 229.316406 165.792969 229.492188 165.730469 229.578125 165.699219 C 229.582031 166.277344 229.417969 166.863281 229.554688 167.4375 C 230.148438 169.347656 231.054688 171.164062 231.4375 173.132812 C 231.722656 174.847656 230.828125 176.417969 230.273438 177.976562 C 230.238281 178.558594 230.101562 179.238281 230.472656 179.738281 C 231.859375 177.492188 233.015625 175.105469 233.988281 172.648438 C 234.207031 172.265625 233.9375 171.859375 233.832031 171.488281 C 232.984375 169.285156 232.183594 167.050781 231.078125 164.960938 C 229.707031 162.816406 230.945312 160.859375 230.757812 157.726562 C 230.847656 157.714844 231.023438 157.6875 231.109375 157.671875 C 231.121094 158.0625 231.105469 158.453125 231.164062 158.839844 C 232.054688 161.132812 234.070312 162.898438 234.503906 165.375 C 234.371094 166.621094 233.503906 171.230469 234.71875 170.710938 C 235.023438 169.789062 237.019531 163.390625 236.429688 162.625 C 231.542969 155.011719 231.351562 156.488281 230.847656 153.660156 C 230.664062 152.863281 230.8125 152.027344 230.613281 151.234375 C 230.5 150.601562 230.144531 149.925781 230.476562 149.304688 C 230.726562 149.949219 230.808594 150.691406 231.304688 151.207031 C 232.304688 152.308594 233.433594 153.289062 234.429688 154.394531 C 237.039062 157.589844 235.15625 159.183594 236.457031 161.308594 C 236.535156 161.5 236.667969 161.550781 236.859375 161.457031 C 237.117188 160.238281 237.371094 155.746094 237.167969 153.460938 C 231.59375 147.738281 230.386719 148.875 229.136719 143.238281 C 228.949219 142.449219 228.382812 141.78125 228.359375 140.945312 C 228.894531 141.289062 228.941406 142 229.441406 142.378906 C 231.058594 143.8125 233.175781 144.664062 234.515625 146.414062 C 235.84375 148.453125 235.945312 151.304688 237.035156 151.441406 C 237.042969 149.277344 235.984375 144.671875 235.96875 144.503906 C 233.503906 142.6875 230.820312 141.199219 228.28125 139.503906 C 227.082031 138.273438 226.589844 136.554688 225.601562 135.175781 C 225.003906 134.5 224.230469 133.996094 223.691406 133.265625 C 223.789062 133.167969 223.890625 133.070312 223.988281 132.96875 C 228 136.292969 230.835938 135.90625 232.375 138.734375 C 232.964844 139.566406 234.28125 142.902344 235.417969 142.660156 C 234.6875 139.828125 233.59375 137.082031 232.246094 134.488281 C 229.894531 133.402344 227.386719 132.671875 224.957031 131.757812 C 224.359375 131.519531 223.671875 131.394531 223.21875 130.902344 C 222.230469 129.890625 221.410156 128.734375 220.441406 127.707031 C 219.84375 127.085938 218.976562 126.859375 218.308594 126.335938 C 218.105469 126.210938 218.15625 125.941406 218.105469 125.746094 C 219.132812 126.042969 219.996094 126.75 221.050781 126.984375 C 222.773438 127.542969 224.640625 127.710938 226.25 128.59375 C 228.429688 129.785156 229.339844 132.921875 231.4375 133.023438 C 230.265625 130.539062 228.609375 128.308594 226.957031 126.125 C 226.519531 125.34375 223.238281 125.304688 217.59375 124.378906 C 216.527344 124.203125 214.714844 122.464844 213.589844 121.582031 C 212.867188 121.015625 211.917969 120.929688 211.109375 120.539062 C 210.867188 120.453125 210.785156 120.1875 210.6875 119.976562 C 211.746094 120.035156 212.722656 120.550781 213.785156 120.570312 C 215.292969 120.773438 216.816406 120.765625 218.324219 120.945312 C 221.484375 121.375 222.324219 124.574219 225.359375 124.570312 C 225.363281 124.136719 225.039062 123.84375 224.78125 123.546875 C 222.980469 121.695312 221.183594 119.808594 219.101562 118.273438 C 215.628906 118.21875 209.648438 118.875 208.777344 118.523438 C 207.535156 118.082031 206.414062 117.375 205.246094 116.773438 C 204.273438 116.144531 203.058594 116.363281 201.996094 115.992188 C 201.984375 115.886719 201.960938 115.667969 201.949219 115.558594 C 207.757812 115.789062 208.242188 114.796875 210.617188 115.140625 C 213.550781 115.824219 214.890625 118.136719 217.542969 117.164062 C 216.554688 116.074219 212.84375 113.90625 211.550781 113.199219 C 210.710938 113.054688 207.414062 114.050781 204.738281 112.890625 C 202.660156 111.914062 201.402344 109.8125 199.367188 108.777344 C 198.257812 108.175781 196.953125 108.5625 195.78125 108.207031 C 196.367188 107.324219 197.585938 107.527344 198.488281 107.261719 C 209.761719 106.429688 210.710938 112.023438 212.546875 112.996094 C 213.910156 113.78125 215.265625 114.585938 216.550781 115.496094 C 216.804688 115.679688 217.078125 115.832031 217.378906 115.941406 C 217.039062 113.566406 213.46875 113.074219 211.671875 108.636719 C 211.046875 107.035156 210.035156 106.976562 209.976562 106.101562 C 210.644531 106.054688 211.074219 106.613281 211.578125 106.949219 C 212.4375 107.644531 213.566406 107.839844 214.46875 108.464844 C 217.199219 110.121094 217.804688 114.703125 218.539062 116.839844 C 219.105469 117.554688 219.980469 117.945312 220.605469 118.605469 C 221.753906 119.558594 222.804688 120.613281 223.886719 121.636719 C 224.351562 122.128906 224.773438 122.675781 225.332031 123.066406 C 225.410156 120.210938 221.414062 118.453125 220.953125 115.183594 C 220.808594 114.003906 220.613281 112.664062 219.597656 111.894531 C 219.027344 111.304688 218.082031 111.007812 217.84375 110.160156 C 218.648438 109.96875 219.136719 110.675781 219.636719 111.160156 C 220.820312 112.390625 222.347656 113.21875 223.539062 114.433594 C 226.589844 117.699219 225.898438 122.039062 226.261719 124.179688 C 227.722656 126 229.175781 127.835938 230.410156 129.824219 C 230.679688 130.222656 230.859375 130.726562 231.324219 130.945312 C 231.457031 128.574219 228.828125 126.777344 228.828125 123.101562 C 228.832031 121.960938 228.832031 120.792969 228.445312 119.707031 C 227.996094 118.484375 226.402344 117.503906 226.3125 116.683594 C 226.511719 116.675781 226.710938 116.664062 226.910156 116.660156 C 227.402344 117.171875 227.84375 117.734375 228.246094 118.320312 C 229.5625 119.996094 231.507812 121.300781 232.113281 123.445312 C 232.675781 125.996094 231.914062 128.585938 232.011719 131.15625 C 231.835938 133.085938 233.070312 133.59375 235.457031 140.289062 C 235.546875 140.3125 235.730469 140.355469 235.820312 140.378906 C 235.960938 137.761719 234.054688 135.714844 234.964844 132.234375 C 235.132812 131.191406 235.40625 130.136719 235.253906 129.074219 C 234.902344 127.632812 233.808594 126.535156 233.34375 125.136719 C 233.554688 125.136719 233.859375 124.964844 234.015625 125.1875 C 234.96875 126.339844 235.53125 127.746094 236.324219 129.003906 C 237.136719 130.488281 238.03125 132.042969 238.046875 133.785156 C 237.941406 136.578125 236.917969 139.207031 236.28125 141.902344 C 235.96875 143.195312 237.023438 144.5 237.5 149.394531 C 237.605469 149.417969 237.8125 149.46875 237.917969 149.496094 C 238.085938 147.699219 237.472656 145.890625 237.867188 144.101562 C 238.195312 142.429688 239.335938 141.058594 239.683594 139.390625 C 239.914062 137.808594 238.882812 136.425781 238.753906 134.882812 C 238.875 134.886719 239.121094 134.886719 239.242188 134.890625 C 239.675781 135.507812 241.785156 141.074219 241.230469 144.230469 C 240.316406 147.320312 238.136719 150.25 237.789062 151.664062 C 238.101562 154.613281 237.941406 157.585938 237.695312 160.53125 C 239.089844 160.402344 238.121094 155.941406 240.363281 152.929688 C 243.402344 148.675781 241.820312 148.535156 242.121094 145.378906 C 242.238281 145.386719 242.464844 145.410156 242.578125 145.417969 C 243.007812 146.738281 242.964844 148.148438 243.070312 149.515625 C 243.300781 150.691406 243.234375 151.894531 243.242188 153.082031 C 243.328125 155.226562 241.230469 157.597656 239.644531 159.597656 C 237.785156 161.996094 237.449219 161.472656 237.242188 163.589844 C 236.9375 165.570312 236.347656 167.496094 235.914062 169.449219 C 236.820312 169.273438 237.015625 166.371094 238.320312 164.566406 C 239.1875 163.046875 241.527344 162.269531 242.132812 160.125 C 242.375 159.234375 242.445312 158.300781 242.746094 157.425781 C 242.882812 157.167969 243.300781 157.394531 243.234375 157.667969 C 243.078125 159.230469 242.589844 160.746094 242.460938 162.316406 C 241.5625 165.9375 241.769531 165.605469 239.578125 167.570312 C 238.378906 168.671875 237.058594 169.628906 235.765625 170.617188 C 235.230469 170.984375 235.105469 171.664062 234.878906 172.230469 C 234.234375 174.125 233.25 175.875 232.488281 177.714844 C 234.03125 177.621094 234.253906 172.984375 237.632812 172.003906 C 241.554688 170.730469 240.511719 168.59375 241.742188 167.953125 C 241.835938 168.347656 241.785156 168.757812 241.628906 169.132812 C 238.402344 177.085938 237.582031 175.664062 231.839844 178.792969 C 231.609375 179.085938 229.617188 182.824219 226.589844 186.324219 C 226.542969 186.445312 226.449219 186.675781 226.40625 186.792969 C 228.714844 186.085938 228.949219 183.203125 231.8125 181.957031 C 232.921875 181.523438 234.15625 181.390625 235.160156 180.71875 C 236.976562 179.492188 236.234375 179.777344 237.894531 177.480469 C 238.007812 177.484375 238.234375 177.492188 238.347656 177.496094 C 238.429688 178.605469 237.570312 179.441406 237.085938 180.363281 C 233.746094 185.609375 234.3125 184.625 226.214844 187.6875 C 225.722656 187.882812 225.164062 187.984375 224.785156 188.386719 C 220.28125 193.148438 219.148438 193.074219 218.984375 194 C 221.613281 193.460938 222.800781 190.5 225.402344 189.910156 C 226.753906 189.574219 228.234375 190.113281 229.535156 189.484375 C 230.246094 189.050781 230.785156 188.394531 231.445312 187.898438 C 231.785156 187.683594 231.949219 188.246094 231.753906 188.460938 C 231.136719 189.464844 227.617188 192.878906 225.742188 193.699219 C 223.800781 194.617188 218.007812 194.417969 217.304688 194.933594 C 215.414062 196.296875 213.4375 197.542969 211.355469 198.59375 C 211.027344 198.765625 210.675781 198.917969 210.484375 199.25 C 210.996094 199.265625 211.53125 199.3125 212.03125 199.160156 C 213.695312 198.734375 214.75 197.0625 216.488281 196.820312 C 217.910156 196.722656 219.351562 196.988281 220.753906 196.6875 C 223.015625 196.25 221.871094 196.695312 224.515625 195.027344 C 224.601562 195.082031 224.773438 195.1875 224.859375 195.246094 C 224.554688 196.167969 223.632812 196.648438 222.894531 197.179688 C 220.957031 198.523438 218.941406 200.117188 216.480469 200.203125 C 208.972656 199.785156 209.132812 199.636719 208.410156 200.050781 C 206.6875 200.839844 204.910156 201.503906 203.105469 202.085938 C 202.558594 202.265625 201.996094 202.402344 201.480469 202.664062 C 203.007812 203.742188 205.355469 202.117188 206.824219 201.636719 C 207.726562 201.355469 208.605469 201.828125 209.464844 202.03125 C 210.695312 202.382812 211.984375 202.277344 213.246094 202.25 C 214.40625 202.289062 215.3125 201.449219 216.398438 201.183594 C 216.460938 201.253906 216.582031 201.394531 216.640625 201.464844 C 215.953125 202.242188 214.945312 202.628906 214.003906 203.003906 C 211.753906 203.875 209.464844 204.890625 207.007812 204.863281 C 202.289062 204.277344 201.03125 203.289062 200 202.996094 C 193.496094 204.679688 192.652344 203.84375 191.9375 204.621094 C 192.644531 204.84375 193.390625 205.164062 194.144531 204.953125 C 195.292969 204.789062 196.488281 204.308594 197.636719 204.722656 C 198.261719 204.925781 198.769531 205.363281 199.367188 205.621094 C 200.648438 206.242188 203.09375 206.671875 206.050781 206.082031 C 206.105469 206.164062 206.210938 206.328125 206.265625 206.410156 C 205.460938 207.089844 204.34375 207.085938 203.359375 207.25 C 196.585938 208.476562 196.433594 207.851562 194.109375 206.789062 C 192.839844 206.167969 191.621094 205.445312 190.511719 204.570312 C 190.046875 204.496094 189.578125 204.546875 189.117188 204.570312 C 189.5 205.105469 190.15625 205.328125 190.65625 205.738281 C 195.914062 209.703125 195.789062 212.238281 200.59375 212.265625 C 198.371094 213.039062 195.984375 213.425781 193.632812 213.296875 C 192.332031 207.179688 188.683594 204.566406 187.390625 204.726562 C 184.210938 205.679688 182.277344 209.964844 181.5 213.328125 C 179.136719 213.382812 176.746094 213.058594 174.519531 212.253906 C 179.523438 212.171875 179.464844 209.433594 184.773438 205.542969 C 185.164062 205.226562 185.722656 205.066406 185.925781 204.566406 C 185.410156 204.589844 184.796875 204.359375 184.375 204.761719 C 183.082031 205.757812 181.640625 206.539062 180.164062 207.210938 C 177.921875 208.429688 175.273438 207.847656 172.890625 207.460938 C 171.640625 207.089844 170.253906 207.242188 169.082031 206.597656 C 169.03125 206.425781 168.992188 206.253906 168.964844 206.082031 C 169.957031 206.164062 170.933594 206.496094 171.9375 206.40625 C 173.003906 206.257812 174.097656 206.269531 175.121094 205.90625 C 176.28125 205.578125 177.183594 204.574219 178.433594 204.53125 C 179.441406 204.582031 180.414062 204.894531 181.410156 205.015625 C 181.996094 205.089844 182.542969 204.847656 183.089844 204.683594 C 183.097656 204.609375 183.113281 204.457031 183.125 204.382812 C 180.429688 204.078125 177.742188 203.664062 175.113281 202.984375 C 173.019531 203.996094 170.722656 204.511719 168.429688 204.839844 C 165.757812 204.972656 163.28125 203.800781 160.832031 202.898438 C 160.105469 202.566406 159.316406 202.273438 158.757812 201.679688 C 158.542969 201.5 158.617188 201.042969 158.96875 201.253906 C 160.734375 201.878906 160.523438 202.511719 164.90625 202.21875 C 166.101562 202.101562 167.25 201.269531 168.472656 201.6875 C 170.386719 202.242188 170.921875 203.351562 173.347656 202.894531 C 173.402344 202.804688 173.511719 202.625 173.566406 202.535156 C 171.214844 201.894531 168.914062 201.050781 166.699219 200.023438 C 166.0625 199.65625 165.3125 199.816406 164.613281 199.84375 C 163.023438 200.039062 161.410156 199.929688 159.820312 200.144531 C 158.816406 200.269531 157.789062 200.183594 156.824219 199.878906 C 154.867188 199.199219 151.097656 196.472656 150.476562 195.746094 C 150.371094 195.527344 150.347656 195.019531 150.703125 195.0625 C 151.804688 195.738281 152.621094 197.136719 157.910156 196.796875 C 160.621094 196.546875 161.757812 199.765625 164.675781 199.226562 C 164.507812 199.035156 164.308594 198.875 164.078125 198.765625 C 161.910156 197.613281 159.796875 196.347656 157.800781 194.914062 C 156.480469 194.511719 155.054688 194.632812 153.699219 194.398438 C 150.230469 194.183594 149.09375 194.089844 146.238281 191.398438 C 145.214844 190.40625 144.035156 189.542969 143.292969 188.304688 C 143.339844 188.175781 143.429688 187.917969 143.476562 187.785156 C 144.328125 188.222656 144.855469 189.082031 145.699219 189.53125 C 147.152344 190.144531 148.796875 189.472656 150.261719 190.0625 C 152.5625 190.871094 153.714844 193.609375 156.242188 193.949219 C 156.109375 193.703125 155.941406 193.480469 155.71875 193.3125 C 153.84375 191.8125 152.070312 190.183594 150.4375 188.425781 C 149.761719 187.601562 142.820312 186.007812 141.027344 184.328125 C 139.441406 182.8125 138.363281 180.875 137.257812 179.007812 C 136.96875 178.480469 136.503906 177.796875 137.0625 177.285156 C 138.339844 178.621094 138.09375 179.667969 140.277344 180.894531 C 141.441406 181.546875 142.835938 181.59375 143.980469 182.28125 C 146.019531 183.410156 146.882812 186.507812 148.917969 186.828125 C 148.5 186.144531 147.921875 185.585938 147.429688 184.957031 C 140.578125 175.878906 146.613281 180.855469 137.980469 176.148438 C 136.367188 175.242188 135.316406 173.027344 134.191406 170.6875 C 133.824219 169.808594 133.21875 168.941406 133.457031 167.941406 C 134.328125 168.652344 134.3125 169.984375 135.1875 170.710938 C 136.183594 171.832031 137.820312 171.835938 138.960938 172.738281 C 140.902344 174.191406 141.21875 177.300781 142.707031 177.863281 C 142.652344 177.605469 142.585938 177.355469 142.457031 177.125 C 139.761719 171.761719 140.148438 171.105469 139.535156 170.734375 C 133.382812 166.132812 133.371094 165.65625 132.773438 162.664062 C 132.339844 159.40625 131.800781 158.359375 131.996094 157.332031 C 132.101562 157.328125 132.316406 157.324219 132.421875 157.320312 C 132.800781 158.671875 132.757812 160.199219 133.667969 161.34375 C 134.585938 162.652344 136.128906 163.351562 136.972656 164.71875 C 138.398438 167.023438 138.253906 169.195312 139.242188 169.3125 C 138.683594 167.136719 138.054688 164.96875 137.792969 162.730469 C 137.695312 161.511719 135.042969 159.679688 132.542969 155.496094 C 131.59375 153.683594 131.902344 151.566406 132.074219 149.613281 C 132.324219 148.222656 132.007812 146.71875 132.628906 145.40625 C 132.746094 145.402344 132.980469 145.398438 133.09375 145.398438 C 133.1875 146.675781 132.832031 147.933594 132.929688 149.207031 C 133.523438 152.28125 135.78125 152.828125 136.289062 156.921875 C 136.523438 158.328125 136.574219 160.359375 137.457031 160.367188 C 137.324219 157.996094 137.027344 155.617188 137.265625 153.242188 C 137.25 152.46875 137.554688 151.617188 137.117188 150.914062 C 134.015625 145.027344 132.949219 144.011719 134.503906 138.917969 C 134.882812 137.683594 135.125 136.390625 135.730469 135.234375 C 135.859375 134.976562 136.128906 134.847656 136.355469 134.691406 C 136.457031 136.132812 135.433594 137.414062 135.429688 138.851562 C 135.578125 140.777344 136.964844 142.300781 137.3125 144.167969 C 137.628906 147.800781 136.78125 148.546875 137.402344 149.558594 C 137.921875 148.921875 137.417969 148.824219 138.832031 143.222656 C 139.105469 141.890625 138.507812 140.617188 138.175781 139.355469 C 136.605469 132.902344 136.558594 133.074219 139.578125 127.714844 C 140.105469 126.847656 140.492188 125.878906 141.199219 125.132812 C 141.386719 125.082031 141.578125 125.054688 141.773438 125.042969 C 141.460938 126.636719 140 127.777344 139.867188 129.429688 C 139.78125 131.253906 140.625 133.011719 140.378906 134.84375 C 140.3125 136.75 139.179688 138.484375 139.394531 140.421875 C 139.476562 140.410156 139.644531 140.386719 139.730469 140.375 C 140.449219 137.902344 141.589844 135.574219 142.710938 133.269531 C 143.550781 131.582031 142.851562 127.738281 142.886719 126.246094 C 142.945312 123.46875 142.367188 122.980469 146.152344 119.222656 C 146.914062 118.457031 147.40625 117.457031 148.222656 116.738281 C 148.402344 116.679688 148.589844 116.636719 148.78125 116.613281 C 148.734375 116.882812 148.765625 117.203125 148.53125 117.398438 C 146.167969 119.917969 146.570312 119.570312 146.292969 123.273438 C 146.40625 126.367188 143.789062 128.679688 143.820312 130.878906 C 144.554688 130.71875 143.890625 130.46875 148.847656 124.253906 C 149.222656 122.753906 148.726562 119.152344 150.433594 115.949219 C 151.273438 114.5 152.660156 113.492188 153.96875 112.496094 C 154.859375 111.882812 155.539062 111.027344 156.378906 110.355469 C 156.589844 110.15625 156.890625 110.148438 157.160156 110.082031 C 157.160156 110.210938 157.160156 110.46875 157.160156 110.597656 C 156.464844 111.253906 155.59375 111.726562 154.996094 112.488281 C 154.058594 113.785156 154.449219 115.539062 153.625 116.882812 C 152.371094 119.125 149.925781 120.644531 149.828125 123 C 150.394531 122.675781 150.78125 122.132812 151.238281 121.679688 C 152.152344 120.78125 153.046875 119.859375 154.042969 119.046875 C 154.8125 118.285156 155.761719 117.730469 156.511719 116.949219 C 157.367188 115.472656 157.511719 110.085938 161.199219 108.167969 C 161.992188 107.71875 162.914062 107.496094 163.632812 106.914062 Z M 163.632812 106.914062 " fill-opacity="1" fill-rule="nonzero"/></g><path fill="#d4a160" d="M 186.558594 119.644531 C 187.222656 119.59375 187.886719 119.609375 188.546875 119.652344 C 188.738281 121.457031 188.542969 123.28125 188.65625 125.09375 C 189.84375 123.910156 190.585938 122.324219 191.789062 121.152344 C 191.671875 134.164062 191.96875 134.207031 191.621094 134.726562 C 190.648438 136.078125 189.582031 137.367188 188.664062 138.753906 C 188.59375 139.621094 188.582031 140.511719 188.691406 141.378906 C 192.316406 138.085938 195.382812 139.113281 201.832031 138.351562 C 204.457031 137.933594 207.242188 137.363281 209.300781 135.558594 C 209.988281 134.960938 210.292969 134.09375 210.5 133.238281 C 211.289062 132.324219 212.847656 132.15625 213.761719 132.984375 C 214.410156 133.785156 214.367188 135.003906 213.769531 135.824219 C 213.332031 136.34375 212.660156 136.5625 212.09375 136.914062 C 212.238281 137.285156 224.738281 165.390625 225.570312 166.082031 C 217.640625 174.207031 204.792969 173.625 197.675781 166.058594 C 198.515625 165.726562 197.335938 167.859375 210.457031 138.960938 C 210.707031 138.421875 210.96875 137.886719 211.140625 137.316406 C 204.054688 139.027344 191.539062 139.851562 188.714844 146.375 C 188.589844 146.675781 188.566406 186.230469 188.679688 187.253906 C 189.585938 186.765625 190.496094 186.28125 191.425781 185.84375 C 190.351562 188.527344 189.023438 191.105469 187.886719 193.765625 C 187.765625 193.921875 187.757812 194.367188 187.476562 194.1875 C 186.214844 191.398438 184.929688 188.621094 183.679688 185.824219 C 184.667969 186.226562 185.550781 186.855469 186.546875 187.25 C 186.570312 181.058594 186.574219 149.101562 186.542969 146.589844 C 183.921875 139.808594 170.292969 138.875 164.035156 137.3125 C 164.164062 137.820312 163.398438 136.089844 176.664062 165.316406 C 176.78125 165.695312 177.074219 165.933594 177.417969 166.101562 C 170.175781 173.875 156.941406 173.921875 149.648438 166.082031 C 150.332031 165.476562 162.644531 137.953125 163.046875 136.914062 C 162.5 136.589844 161.890625 136.332031 161.429688 135.886719 C 159.859375 133.769531 162.035156 131.191406 164.582031 133.085938 C 165.011719 134.015625 164.714844 135.8125 169.214844 137.414062 C 176.007812 139.75 181.566406 137.386719 185.675781 140.753906 C 185.957031 140.976562 186.238281 141.203125 186.542969 141.394531 C 186.5625 140.554688 186.578125 139.710938 186.554688 138.871094 C 185.621094 137.371094 184.433594 136.039062 183.453125 134.566406 C 183.382812 134.097656 183.421875 121.207031 183.421875 121.140625 C 184.960938 122.941406 185.867188 124.613281 186.539062 125.105469 C 186.597656 123.285156 186.542969 121.464844 186.558594 119.644531 M 187.121094 120.773438 C 187.199219 121.644531 186.949219 122.570312 187.289062 123.398438 C 188.109375 123.035156 188.011719 124.140625 187.996094 120.710938 C 187.707031 120.734375 187.414062 120.75 187.121094 120.773438 M 188.878906 126.363281 C 188.457031 126.835938 188.601562 127.519531 188.546875 128.097656 C 188.636719 128.074219 188.8125 128.023438 188.902344 128 C 189.523438 127.257812 190.050781 126.433594 190.660156 125.675781 C 191.140625 125.128906 190.933594 124.351562 190.921875 123.691406 C 190.179688 124.53125 189.578125 125.484375 188.878906 126.363281 M 184.148438 123.820312 C 184.148438 124.28125 184.128906 124.738281 184.160156 125.199219 C 184.601562 125.964844 185.207031 126.621094 185.714844 127.34375 C 185.957031 127.660156 186.125 128.101562 186.582031 128.140625 C 186.5625 127.640625 186.648438 127.121094 186.503906 126.636719 C 186.089844 125.996094 185.574219 125.429688 185.152344 124.796875 C 184.875 124.417969 184.660156 123.914062 184.148438 123.820312 M 190.050781 127.898438 C 189.574219 128.59375 189 129.214844 188.5625 129.933594 C 188.511719 130.34375 188.527344 130.757812 188.527344 131.167969 C 188.617188 131.128906 188.800781 131.050781 188.890625 131.011719 C 191.519531 127.414062 190.917969 128.664062 190.964844 126.886719 C 190.527344 127.082031 190.324219 127.535156 190.050781 127.898438 M 184.144531 126.925781 C 184.152344 127.332031 184.09375 127.746094 184.191406 128.144531 C 184.550781 128.773438 185.050781 129.304688 185.460938 129.894531 C 185.785156 130.347656 186.058594 130.863281 186.558594 131.148438 C 186.574219 130.742188 186.597656 130.332031 186.550781 129.925781 C 185.972656 128.914062 185.199219 128.042969 184.5 127.117188 C 184.414062 127.070312 184.234375 126.972656 184.144531 126.925781 M 184.160156 129.839844 C 184.140625 130.277344 184.121094 130.714844 184.164062 131.152344 C 184.558594 131.757812 185.050781 132.296875 185.4375 132.90625 C 185.738281 133.308594 185.996094 133.84375 186.550781 133.925781 C 186.539062 133.535156 186.613281 133.136719 186.53125 132.753906 C 184.710938 130.164062 184.566406 130.027344 184.160156 129.839844 M 189.742188 131.273438 C 189.390625 131.789062 188.980469 132.265625 188.632812 132.785156 C 188.597656 133.203125 188.617188 133.621094 188.628906 134.035156 C 188.824219 133.929688 189.035156 133.828125 189.148438 133.625 C 189.730469 132.785156 190.410156 132.011719 190.972656 131.160156 C 191.015625 130.699219 190.984375 130.234375 190.945312 129.773438 C 190.414062 130.160156 190.121094 130.757812 189.742188 131.273438 M 189.757812 134.257812 C 189.359375 134.808594 188.890625 135.308594 188.566406 135.90625 C 188.5 136.277344 188.605469 136.652344 188.640625 137.023438 C 189.480469 136.457031 189.894531 135.445312 190.574219 134.707031 C 191.101562 134.21875 190.976562 133.480469 190.949219 132.839844 C 190.421875 133.191406 190.140625 133.773438 189.757812 134.257812 M 184.136719 132.941406 C 184.144531 133.328125 184.105469 133.722656 184.175781 134.113281 C 184.535156 134.695312 184.988281 135.210938 185.363281 135.78125 C 185.730469 136.25 186.015625 136.820312 186.5625 137.105469 C 186.472656 135.285156 187.144531 136.667969 184.804688 133.390625 C 184.652344 133.144531 184.410156 133 184.136719 132.941406 M 151.335938 164.21875 C 151.09375 164.78125 150.765625 165.320312 150.667969 165.9375 C 159.199219 165.96875 167.730469 165.957031 176.261719 165.941406 C 175.839844 164.726562 163.796875 138.191406 163.386719 137.738281 C 159.335938 146.546875 155.355469 155.390625 151.335938 164.21875 M 211.59375 137.832031 C 198.3125 167.09375 199.027344 165.371094 198.941406 165.945312 C 207.472656 165.960938 216.003906 165.957031 224.535156 165.945312 C 224.339844 165.238281 217.136719 149.554688 212.027344 138.25 C 211.9375 138.050781 211.863281 137.800781 211.59375 137.832031 Z M 211.59375 137.832031 " fill-opacity="1" fill-rule="nonzero"/><g fill="#d4a160" fill-opacity="1"><g transform="translate(139.910639, 263.540722)"><g><path d="M 1.921875 -2.46875 L 1.53125 -1.484375 C 1.425781 -1.203125 1.378906 -0.992188 1.390625 -0.859375 C 1.410156 -0.722656 1.457031 -0.625 1.53125 -0.5625 C 1.601562 -0.507812 1.671875 -0.460938 1.734375 -0.421875 C 1.804688 -0.390625 1.84375 -0.328125 1.84375 -0.234375 C 1.84375 -0.148438 1.804688 -0.0859375 1.734375 -0.046875 C 1.660156 -0.015625 1.5625 0 1.4375 0 L 0.4375 0 C 0.300781 0 0.1875 -0.0078125 0.09375 -0.03125 C 0.0078125 -0.0625 -0.03125 -0.113281 -0.03125 -0.1875 C -0.03125 -0.289062 0 -0.363281 0.0625 -0.40625 C 0.132812 -0.445312 0.222656 -0.492188 0.328125 -0.546875 C 0.441406 -0.597656 0.5625 -0.691406 0.6875 -0.828125 C 0.820312 -0.960938 0.945312 -1.179688 1.0625 -1.484375 L 3.625 -8.109375 C 3.6875 -8.273438 3.695312 -8.398438 3.65625 -8.484375 C 3.625 -8.566406 3.566406 -8.628906 3.484375 -8.671875 C 3.398438 -8.710938 3.320312 -8.757812 3.25 -8.8125 C 3.1875 -8.863281 3.15625 -8.929688 3.15625 -9.015625 C 3.15625 -9.078125 3.175781 -9.128906 3.21875 -9.171875 C 3.257812 -9.222656 3.347656 -9.25 3.484375 -9.25 L 4.515625 -9.25 C 4.640625 -9.25 4.722656 -9.191406 4.765625 -9.078125 L 7.75 -1.46875 C 7.851562 -1.195312 7.960938 -0.992188 8.078125 -0.859375 C 8.191406 -0.722656 8.296875 -0.625 8.390625 -0.5625 C 8.484375 -0.5 8.5625 -0.445312 8.625 -0.40625 C 8.6875 -0.375 8.71875 -0.3125 8.71875 -0.21875 C 8.71875 -0.132812 8.664062 -0.078125 8.5625 -0.046875 C 8.46875 -0.015625 8.320312 0 8.125 0 L 6.9375 0 C 6.800781 0 6.6875 -0.0078125 6.59375 -0.03125 C 6.5 -0.0625 6.453125 -0.113281 6.453125 -0.1875 C 6.453125 -0.28125 6.488281 -0.347656 6.5625 -0.390625 C 6.644531 -0.441406 6.722656 -0.503906 6.796875 -0.578125 C 6.878906 -0.648438 6.929688 -0.75 6.953125 -0.875 C 6.984375 -1.007812 6.945312 -1.207031 6.84375 -1.46875 L 6.4375 -2.515625 C 6.394531 -2.617188 6.351562 -2.691406 6.3125 -2.734375 C 6.269531 -2.785156 6.179688 -2.820312 6.046875 -2.84375 C 5.921875 -2.863281 5.71875 -2.875 5.4375 -2.875 C 5.15625 -2.882812 4.757812 -2.890625 4.25 -2.890625 C 3.707031 -2.890625 3.28125 -2.882812 2.96875 -2.875 C 2.664062 -2.875 2.445312 -2.859375 2.3125 -2.828125 C 2.175781 -2.804688 2.082031 -2.765625 2.03125 -2.703125 C 1.988281 -2.648438 1.953125 -2.570312 1.921875 -2.46875 Z M 4.265625 -3.28125 C 4.734375 -3.28125 5.09375 -3.28125 5.34375 -3.28125 C 5.601562 -3.289062 5.78125 -3.304688 5.875 -3.328125 C 5.976562 -3.347656 6.03125 -3.378906 6.03125 -3.421875 C 6.039062 -3.472656 6.03125 -3.539062 6 -3.625 L 4.140625 -8.3125 L 2.328125 -3.53125 C 2.296875 -3.46875 2.285156 -3.421875 2.296875 -3.390625 C 2.316406 -3.359375 2.382812 -3.332031 2.5 -3.3125 C 2.613281 -3.300781 2.804688 -3.289062 3.078125 -3.28125 C 3.359375 -3.28125 3.753906 -3.28125 4.265625 -3.28125 Z M 4.265625 -3.28125 "/></g></g></g><g fill="#d4a160" fill-opacity="1"><g transform="translate(152.812243, 263.540722)"><g><path d="M 4.21875 -5.484375 C 4.800781 -5.429688 5.328125 -5.289062 5.796875 -5.0625 C 6.273438 -4.84375 6.648438 -4.546875 6.921875 -4.171875 C 7.191406 -3.796875 7.328125 -3.359375 7.328125 -2.859375 C 7.328125 -2.117188 7.15625 -1.539062 6.8125 -1.125 C 6.476562 -0.707031 6.003906 -0.414062 5.390625 -0.25 C 4.773438 -0.0820312 4.054688 0 3.234375 0 L 1.25 0 C 1.0625 0 0.914062 -0.00390625 0.8125 -0.015625 C 0.707031 -0.0351562 0.65625 -0.0976562 0.65625 -0.203125 C 0.65625 -0.285156 0.691406 -0.34375 0.765625 -0.375 C 0.847656 -0.40625 0.929688 -0.445312 1.015625 -0.5 C 1.109375 -0.550781 1.191406 -0.65625 1.265625 -0.8125 C 1.347656 -0.96875 1.390625 -1.210938 1.390625 -1.546875 L 1.390625 -7.703125 C 1.390625 -8.035156 1.347656 -8.273438 1.265625 -8.421875 C 1.191406 -8.578125 1.109375 -8.679688 1.015625 -8.734375 C 0.929688 -8.785156 0.847656 -8.828125 0.765625 -8.859375 C 0.691406 -8.890625 0.65625 -8.953125 0.65625 -9.046875 C 0.65625 -9.148438 0.707031 -9.207031 0.8125 -9.21875 C 0.914062 -9.238281 1.0625 -9.25 1.25 -9.25 L 3.0625 -9.25 C 4.101562 -9.25 4.867188 -9.0625 5.359375 -8.6875 C 5.859375 -8.3125 6.109375 -7.8125 6.109375 -7.1875 C 6.109375 -6.914062 6.046875 -6.660156 5.921875 -6.421875 C 5.804688 -6.179688 5.613281 -5.972656 5.34375 -5.796875 C 5.070312 -5.628906 4.695312 -5.523438 4.21875 -5.484375 Z M 2.203125 -8.203125 L 2.203125 -5.984375 C 2.203125 -5.859375 2.28125 -5.785156 2.4375 -5.765625 C 2.59375 -5.742188 2.789062 -5.734375 3.03125 -5.734375 C 3.863281 -5.734375 4.429688 -5.847656 4.734375 -6.078125 C 5.046875 -6.304688 5.203125 -6.648438 5.203125 -7.109375 C 5.203125 -7.640625 5.007812 -8.054688 4.625 -8.359375 C 4.238281 -8.660156 3.75 -8.8125 3.15625 -8.8125 C 2.820312 -8.8125 2.578125 -8.773438 2.421875 -8.703125 C 2.273438 -8.640625 2.203125 -8.472656 2.203125 -8.203125 Z M 3.21875 -0.4375 C 4.269531 -0.4375 5.0625 -0.609375 5.59375 -0.953125 C 6.125 -1.304688 6.390625 -1.898438 6.390625 -2.734375 C 6.390625 -3.546875 6.097656 -4.171875 5.515625 -4.609375 C 4.941406 -5.046875 4.132812 -5.265625 3.09375 -5.265625 C 2.8125 -5.265625 2.609375 -5.242188 2.484375 -5.203125 C 2.359375 -5.160156 2.28125 -5.097656 2.25 -5.015625 C 2.21875 -4.929688 2.203125 -4.832031 2.203125 -4.71875 L 2.203125 -1.359375 C 2.203125 -1.035156 2.265625 -0.800781 2.390625 -0.65625 C 2.515625 -0.507812 2.789062 -0.4375 3.21875 -0.4375 Z M 3.21875 -0.4375 "/></g></g></g><g fill="#d4a160" fill-opacity="1"><g transform="translate(164.644297, 263.540722)"><g><path d="M 4.78125 0.125 C 3.894531 0.125 3.132812 -0.0625 2.5 -0.4375 C 1.863281 -0.8125 1.375 -1.328125 1.03125 -1.984375 C 0.6875 -2.648438 0.515625 -3.40625 0.515625 -4.25 C 0.515625 -4.96875 0.628906 -5.632812 0.859375 -6.25 C 1.097656 -6.863281 1.429688 -7.40625 1.859375 -7.875 C 2.296875 -8.34375 2.804688 -8.707031 3.390625 -8.96875 C 3.972656 -9.238281 4.617188 -9.375 5.328125 -9.375 C 6.203125 -9.375 6.957031 -9.179688 7.59375 -8.796875 C 8.226562 -8.410156 8.71875 -7.890625 9.0625 -7.234375 C 9.40625 -6.578125 9.578125 -5.828125 9.578125 -4.984375 C 9.578125 -4.015625 9.378906 -3.140625 8.984375 -2.359375 C 8.585938 -1.585938 8.03125 -0.976562 7.3125 -0.53125 C 6.59375 -0.09375 5.75 0.125 4.78125 0.125 Z M 5.265625 -0.46875 C 5.828125 -0.46875 6.320312 -0.578125 6.75 -0.796875 C 7.175781 -1.015625 7.535156 -1.3125 7.828125 -1.6875 C 8.128906 -2.0625 8.351562 -2.484375 8.5 -2.953125 C 8.65625 -3.421875 8.734375 -3.898438 8.734375 -4.390625 C 8.734375 -5.234375 8.578125 -5.984375 8.265625 -6.640625 C 7.953125 -7.304688 7.507812 -7.832031 6.9375 -8.21875 C 6.375 -8.613281 5.695312 -8.8125 4.90625 -8.8125 C 4.332031 -8.8125 3.820312 -8.703125 3.375 -8.484375 C 2.925781 -8.265625 2.550781 -7.96875 2.25 -7.59375 C 1.945312 -7.226562 1.71875 -6.828125 1.5625 -6.390625 C 1.40625 -5.953125 1.328125 -5.507812 1.328125 -5.0625 C 1.328125 -4.15625 1.488281 -3.351562 1.8125 -2.65625 C 2.144531 -1.957031 2.601562 -1.414062 3.1875 -1.03125 C 3.78125 -0.65625 4.472656 -0.46875 5.265625 -0.46875 Z M 5.265625 -0.46875 "/></g></g></g><g fill="#d4a160" fill-opacity="1"><g transform="translate(178.839925, 263.540722)"><g><path d="M 5.09375 0.125 C 4.363281 0.125 3.710938 0.0078125 3.140625 -0.21875 C 2.578125 -0.445312 2.097656 -0.769531 1.703125 -1.1875 C 1.316406 -1.601562 1.019531 -2.082031 0.8125 -2.625 C 0.613281 -3.175781 0.515625 -3.765625 0.515625 -4.390625 C 0.515625 -5.085938 0.632812 -5.738281 0.875 -6.34375 C 1.113281 -6.957031 1.445312 -7.488281 1.875 -7.9375 C 2.3125 -8.394531 2.828125 -8.75 3.421875 -9 C 4.023438 -9.25 4.6875 -9.375 5.40625 -9.375 C 5.8125 -9.375 6.125 -9.347656 6.34375 -9.296875 C 6.5625 -9.242188 6.773438 -9.21875 6.984375 -9.21875 C 7.128906 -9.21875 7.226562 -9.238281 7.28125 -9.28125 C 7.34375 -9.320312 7.421875 -9.34375 7.515625 -9.34375 C 7.640625 -9.34375 7.726562 -9.296875 7.78125 -9.203125 C 7.84375 -9.109375 7.90625 -8.921875 7.96875 -8.640625 C 8.019531 -8.472656 8.078125 -8.253906 8.140625 -7.984375 C 8.210938 -7.722656 8.28125 -7.398438 8.34375 -7.015625 C 8.382812 -6.796875 8.335938 -6.671875 8.203125 -6.640625 C 8.109375 -6.628906 8.023438 -6.660156 7.953125 -6.734375 C 7.878906 -6.804688 7.796875 -6.90625 7.703125 -7.03125 C 7.523438 -7.28125 7.316406 -7.535156 7.078125 -7.796875 C 6.847656 -8.066406 6.550781 -8.289062 6.1875 -8.46875 C 5.832031 -8.65625 5.359375 -8.742188 4.765625 -8.734375 C 4.234375 -8.734375 3.757812 -8.625 3.34375 -8.40625 C 2.925781 -8.195312 2.570312 -7.910156 2.28125 -7.546875 C 1.988281 -7.179688 1.765625 -6.773438 1.609375 -6.328125 C 1.460938 -5.890625 1.390625 -5.4375 1.390625 -4.96875 C 1.378906 -4.125 1.535156 -3.363281 1.859375 -2.6875 C 2.179688 -2.019531 2.640625 -1.488281 3.234375 -1.09375 C 3.828125 -0.695312 4.519531 -0.5 5.3125 -0.5 C 5.695312 -0.5 6.070312 -0.546875 6.4375 -0.640625 C 6.800781 -0.734375 7.101562 -0.859375 7.34375 -1.015625 C 7.582031 -1.179688 7.703125 -1.367188 7.703125 -1.578125 L 7.703125 -3.03125 C 7.703125 -3.332031 7.628906 -3.554688 7.484375 -3.703125 C 7.347656 -3.847656 7.1875 -3.953125 7 -4.015625 C 6.8125 -4.085938 6.644531 -4.148438 6.5 -4.203125 C 6.363281 -4.265625 6.296875 -4.359375 6.296875 -4.484375 C 6.296875 -4.617188 6.5 -4.6875 6.90625 -4.6875 L 8.609375 -4.671875 C 8.703125 -4.671875 8.785156 -4.65625 8.859375 -4.625 C 8.941406 -4.601562 8.984375 -4.550781 8.984375 -4.46875 C 8.984375 -4.363281 8.957031 -4.289062 8.90625 -4.25 C 8.863281 -4.207031 8.8125 -4.15625 8.75 -4.09375 C 8.6875 -4.039062 8.632812 -3.929688 8.59375 -3.765625 C 8.550781 -3.609375 8.53125 -3.363281 8.53125 -3.03125 L 8.53125 -1.609375 C 8.53125 -1.421875 8.425781 -1.222656 8.21875 -1.015625 C 8.019531 -0.816406 7.753906 -0.632812 7.421875 -0.46875 C 7.097656 -0.300781 6.734375 -0.160156 6.328125 -0.046875 C 5.921875 0.0546875 5.507812 0.113281 5.09375 0.125 Z M 5.09375 0.125 "/></g></g></g><g fill="#d4a160" fill-opacity="1"><g transform="translate(192.69224, 263.540722)"><g><path d="M 1.921875 -2.46875 L 1.53125 -1.484375 C 1.425781 -1.203125 1.378906 -0.992188 1.390625 -0.859375 C 1.410156 -0.722656 1.457031 -0.625 1.53125 -0.5625 C 1.601562 -0.507812 1.671875 -0.460938 1.734375 -0.421875 C 1.804688 -0.390625 1.84375 -0.328125 1.84375 -0.234375 C 1.84375 -0.148438 1.804688 -0.0859375 1.734375 -0.046875 C 1.660156 -0.015625 1.5625 0 1.4375 0 L 0.4375 0 C 0.300781 0 0.1875 -0.0078125 0.09375 -0.03125 C 0.0078125 -0.0625 -0.03125 -0.113281 -0.03125 -0.1875 C -0.03125 -0.289062 0 -0.363281 0.0625 -0.40625 C 0.132812 -0.445312 0.222656 -0.492188 0.328125 -0.546875 C 0.441406 -0.597656 0.5625 -0.691406 0.6875 -0.828125 C 0.820312 -0.960938 0.945312 -1.179688 1.0625 -1.484375 L 3.625 -8.109375 C 3.6875 -8.273438 3.695312 -8.398438 3.65625 -8.484375 C 3.625 -8.566406 3.566406 -8.628906 3.484375 -8.671875 C 3.398438 -8.710938 3.320312 -8.757812 3.25 -8.8125 C 3.1875 -8.863281 3.15625 -8.929688 3.15625 -9.015625 C 3.15625 -9.078125 3.175781 -9.128906 3.21875 -9.171875 C 3.257812 -9.222656 3.347656 -9.25 3.484375 -9.25 L 4.515625 -9.25 C 4.640625 -9.25 4.722656 -9.191406 4.765625 -9.078125 L 7.75 -1.46875 C 7.851562 -1.195312 7.960938 -0.992188 8.078125 -0.859375 C 8.191406 -0.722656 8.296875 -0.625 8.390625 -0.5625 C 8.484375 -0.5 8.5625 -0.445312 8.625 -0.40625 C 8.6875 -0.375 8.71875 -0.3125 8.71875 -0.21875 C 8.71875 -0.132812 8.664062 -0.078125 8.5625 -0.046875 C 8.46875 -0.015625 8.320312 0 8.125 0 L 6.9375 0 C 6.800781 0 6.6875 -0.0078125 6.59375 -0.03125 C 6.5 -0.0625 6.453125 -0.113281 6.453125 -0.1875 C 6.453125 -0.28125 6.488281 -0.347656 6.5625 -0.390625 C 6.644531 -0.441406 6.722656 -0.503906 6.796875 -0.578125 C 6.878906 -0.648438 6.929688 -0.75 6.953125 -0.875 C 6.984375 -1.007812 6.945312 -1.207031 6.84375 -1.46875 L 6.4375 -2.515625 C 6.394531 -2.617188 6.351562 -2.691406 6.3125 -2.734375 C 6.269531 -2.785156 6.179688 -2.820312 6.046875 -2.84375 C 5.921875 -2.863281 5.71875 -2.875 5.4375 -2.875 C 5.15625 -2.882812 4.757812 -2.890625 4.25 -2.890625 C 3.707031 -2.890625 3.28125 -2.882812 2.96875 -2.875 C 2.664062 -2.875 2.445312 -2.859375 2.3125 -2.828125 C 2.175781 -2.804688 2.082031 -2.765625 2.03125 -2.703125 C 1.988281 -2.648438 1.953125 -2.570312 1.921875 -2.46875 Z M 4.265625 -3.28125 C 4.734375 -3.28125 5.09375 -3.28125 5.34375 -3.28125 C 5.601562 -3.289062 5.78125 -3.304688 5.875 -3.328125 C 5.976562 -3.347656 6.03125 -3.378906 6.03125 -3.421875 C 6.039062 -3.472656 6.03125 -3.539062 6 -3.625 L 4.140625 -8.3125 L 2.328125 -3.53125 C 2.296875 -3.46875 2.285156 -3.421875 2.296875 -3.390625 C 2.316406 -3.359375 2.382812 -3.332031 2.5 -3.3125 C 2.613281 -3.300781 2.804688 -3.289062 3.078125 -3.28125 C 3.359375 -3.28125 3.753906 -3.28125 4.265625 -3.28125 Z M 4.265625 -3.28125 "/></g></g></g><g fill="#d4a160" fill-opacity="1"><g transform="translate(205.593847, 263.540722)"><g><path d="M 4.875 0.125 C 3.957031 0.125 3.171875 -0.0664062 2.515625 -0.453125 C 1.867188 -0.835938 1.375 -1.367188 1.03125 -2.046875 C 0.6875 -2.722656 0.515625 -3.5 0.515625 -4.375 C 0.515625 -5.082031 0.628906 -5.738281 0.859375 -6.34375 C 1.097656 -6.957031 1.425781 -7.488281 1.84375 -7.9375 C 2.257812 -8.394531 2.742188 -8.75 3.296875 -9 C 3.859375 -9.25 4.46875 -9.375 5.125 -9.375 C 5.488281 -9.375 5.796875 -9.34375 6.046875 -9.28125 C 6.296875 -9.21875 6.523438 -9.1875 6.734375 -9.1875 C 6.867188 -9.1875 6.976562 -9.210938 7.0625 -9.265625 C 7.15625 -9.316406 7.25 -9.34375 7.34375 -9.34375 C 7.46875 -9.34375 7.554688 -9.296875 7.609375 -9.203125 C 7.671875 -9.109375 7.738281 -8.921875 7.8125 -8.640625 C 7.851562 -8.472656 7.898438 -8.265625 7.953125 -8.015625 C 8.015625 -7.773438 8.085938 -7.460938 8.171875 -7.078125 C 8.210938 -6.859375 8.164062 -6.734375 8.03125 -6.703125 C 7.9375 -6.691406 7.851562 -6.726562 7.78125 -6.8125 C 7.707031 -6.894531 7.632812 -6.992188 7.5625 -7.109375 C 7.375 -7.410156 7.160156 -7.6875 6.921875 -7.9375 C 6.679688 -8.1875 6.382812 -8.382812 6.03125 -8.53125 C 5.6875 -8.675781 5.253906 -8.75 4.734375 -8.75 C 4.210938 -8.75 3.742188 -8.640625 3.328125 -8.421875 C 2.910156 -8.203125 2.554688 -7.898438 2.265625 -7.515625 C 1.972656 -7.140625 1.753906 -6.71875 1.609375 -6.25 C 1.460938 -5.78125 1.390625 -5.296875 1.390625 -4.796875 C 1.390625 -3.953125 1.550781 -3.203125 1.875 -2.546875 C 2.195312 -1.898438 2.644531 -1.390625 3.21875 -1.015625 C 3.789062 -0.648438 4.441406 -0.46875 5.171875 -0.46875 C 5.671875 -0.46875 6.097656 -0.523438 6.453125 -0.640625 C 6.816406 -0.765625 7.128906 -0.925781 7.390625 -1.125 C 7.660156 -1.320312 7.890625 -1.53125 8.078125 -1.75 C 8.160156 -1.84375 8.234375 -1.878906 8.296875 -1.859375 C 8.359375 -1.835938 8.398438 -1.78125 8.421875 -1.6875 C 8.441406 -1.59375 8.40625 -1.476562 8.3125 -1.34375 C 8.238281 -1.269531 8.113281 -1.148438 7.9375 -0.984375 C 7.769531 -0.828125 7.546875 -0.660156 7.265625 -0.484375 C 6.992188 -0.304688 6.660156 -0.160156 6.265625 -0.046875 C 5.867188 0.0664062 5.40625 0.125 4.875 0.125 Z M 4.875 0.125 "/></g></g></g><g fill="#d4a160" fill-opacity="1"><g transform="translate(218.587881, 263.540722)"><g><path d="M 1.125 -10.125 C 1.0625 -10.15625 1.035156 -10.191406 1.046875 -10.234375 C 1.066406 -10.285156 1.082031 -10.320312 1.09375 -10.34375 C 1.125 -10.394531 1.203125 -10.492188 1.328125 -10.640625 C 1.460938 -10.785156 1.65625 -10.976562 1.90625 -11.21875 C 2.132812 -11.445312 2.328125 -11.625 2.484375 -11.75 C 2.648438 -11.882812 2.816406 -11.921875 2.984375 -11.859375 C 3.109375 -11.816406 3.195312 -11.734375 3.25 -11.609375 C 3.3125 -11.484375 3.3125 -11.34375 3.25 -11.1875 C 3.195312 -11.070312 3.082031 -10.941406 2.90625 -10.796875 C 2.726562 -10.660156 2.523438 -10.53125 2.296875 -10.40625 C 2.078125 -10.289062 1.859375 -10.203125 1.640625 -10.140625 C 1.429688 -10.078125 1.257812 -10.070312 1.125 -10.125 Z M 1.390625 -1.734375 L 1.390625 -7.515625 C 1.390625 -7.867188 1.351562 -8.128906 1.28125 -8.296875 C 1.207031 -8.472656 1.125 -8.597656 1.03125 -8.671875 C 0.9375 -8.742188 0.851562 -8.800781 0.78125 -8.84375 C 0.71875 -8.882812 0.6875 -8.953125 0.6875 -9.046875 C 0.6875 -9.179688 0.882812 -9.25 1.28125 -9.25 L 2.34375 -9.25 C 2.738281 -9.25 2.9375 -9.179688 2.9375 -9.046875 C 2.9375 -8.953125 2.898438 -8.882812 2.828125 -8.84375 C 2.753906 -8.800781 2.664062 -8.742188 2.5625 -8.671875 C 2.46875 -8.597656 2.382812 -8.472656 2.3125 -8.296875 C 2.238281 -8.128906 2.203125 -7.867188 2.203125 -7.515625 L 2.203125 -1.734375 C 2.203125 -1.367188 2.238281 -1.097656 2.3125 -0.921875 C 2.382812 -0.753906 2.46875 -0.632812 2.5625 -0.5625 C 2.65625 -0.5 2.738281 -0.445312 2.8125 -0.40625 C 2.882812 -0.363281 2.921875 -0.296875 2.921875 -0.203125 C 2.921875 -0.0664062 2.71875 0 2.3125 0 L 1.25 0 C 0.851562 0 0.65625 -0.0664062 0.65625 -0.203125 C 0.65625 -0.296875 0.691406 -0.363281 0.765625 -0.40625 C 0.847656 -0.445312 0.929688 -0.5 1.015625 -0.5625 C 1.109375 -0.632812 1.191406 -0.753906 1.265625 -0.921875 C 1.347656 -1.097656 1.390625 -1.367188 1.390625 -1.734375 Z M 1.390625 -1.734375 "/></g></g></g><g fill="#d4a160" fill-opacity="1"><g transform="translate(226.273774, 263.540722)"><g><path d="M 1.921875 -2.46875 L 1.53125 -1.484375 C 1.425781 -1.203125 1.378906 -0.992188 1.390625 -0.859375 C 1.410156 -0.722656 1.457031 -0.625 1.53125 -0.5625 C 1.601562 -0.507812 1.671875 -0.460938 1.734375 -0.421875 C 1.804688 -0.390625 1.84375 -0.328125 1.84375 -0.234375 C 1.84375 -0.148438 1.804688 -0.0859375 1.734375 -0.046875 C 1.660156 -0.015625 1.5625 0 1.4375 0 L 0.4375 0 C 0.300781 0 0.1875 -0.0078125 0.09375 -0.03125 C 0.0078125 -0.0625 -0.03125 -0.113281 -0.03125 -0.1875 C -0.03125 -0.289062 0 -0.363281 0.0625 -0.40625 C 0.132812 -0.445312 0.222656 -0.492188 0.328125 -0.546875 C 0.441406 -0.597656 0.5625 -0.691406 0.6875 -0.828125 C 0.820312 -0.960938 0.945312 -1.179688 1.0625 -1.484375 L 3.625 -8.109375 C 3.6875 -8.273438 3.695312 -8.398438 3.65625 -8.484375 C 3.625 -8.566406 3.566406 -8.628906 3.484375 -8.671875 C 3.398438 -8.710938 3.320312 -8.757812 3.25 -8.8125 C 3.1875 -8.863281 3.15625 -8.929688 3.15625 -9.015625 C 3.15625 -9.078125 3.175781 -9.128906 3.21875 -9.171875 C 3.257812 -9.222656 3.347656 -9.25 3.484375 -9.25 L 4.515625 -9.25 C 4.640625 -9.25 4.722656 -9.191406 4.765625 -9.078125 L 7.75 -1.46875 C 7.851562 -1.195312 7.960938 -0.992188 8.078125 -0.859375 C 8.191406 -0.722656 8.296875 -0.625 8.390625 -0.5625 C 8.484375 -0.5 8.5625 -0.445312 8.625 -0.40625 C 8.6875 -0.375 8.71875 -0.3125 8.71875 -0.21875 C 8.71875 -0.132812 8.664062 -0.078125 8.5625 -0.046875 C 8.46875 -0.015625 8.320312 0 8.125 0 L 6.9375 0 C 6.800781 0 6.6875 -0.0078125 6.59375 -0.03125 C 6.5 -0.0625 6.453125 -0.113281 6.453125 -0.1875 C 6.453125 -0.28125 6.488281 -0.347656 6.5625 -0.390625 C 6.644531 -0.441406 6.722656 -0.503906 6.796875 -0.578125 C 6.878906 -0.648438 6.929688 -0.75 6.953125 -0.875 C 6.984375 -1.007812 6.945312 -1.207031 6.84375 -1.46875 L 6.4375 -2.515625 C 6.394531 -2.617188 6.351562 -2.691406 6.3125 -2.734375 C 6.269531 -2.785156 6.179688 -2.820312 6.046875 -2.84375 C 5.921875 -2.863281 5.71875 -2.875 5.4375 -2.875 C 5.15625 -2.882812 4.757812 -2.890625 4.25 -2.890625 C 3.707031 -2.890625 3.28125 -2.882812 2.96875 -2.875 C 2.664062 -2.875 2.445312 -2.859375 2.3125 -2.828125 C 2.175781 -2.804688 2.082031 -2.765625 2.03125 -2.703125 C 1.988281 -2.648438 1.953125 -2.570312 1.921875 -2.46875 Z M 4.265625 -3.28125 C 4.734375 -3.28125 5.09375 -3.28125 5.34375 -3.28125 C 5.601562 -3.289062 5.78125 -3.304688 5.875 -3.328125 C 5.976562 -3.347656 6.03125 -3.378906 6.03125 -3.421875 C 6.039062 -3.472656 6.03125 -3.539062 6 -3.625 L 4.140625 -8.3125 L 2.328125 -3.53125 C 2.296875 -3.46875 2.285156 -3.421875 2.296875 -3.390625 C 2.316406 -3.359375 2.382812 -3.332031 2.5 -3.3125 C 2.613281 -3.300781 2.804688 -3.289062 3.078125 -3.28125 C 3.359375 -3.28125 3.753906 -3.28125 4.265625 -3.28125 Z M 4.265625 -3.28125 "/></g></g></g><g fill="#ffffff" fill-opacity="1"><g transform="translate(92.634718, 242.770802)"><g><path d="M 7.53125 -6 L 7.53125 -12.8125 C 7.53125 -13.46875 7.460938 -13.945312 7.328125 -14.25 C 7.191406 -14.5625 7.035156 -14.78125 6.859375 -14.90625 C 6.679688 -15.039062 6.523438 -15.148438 6.390625 -15.234375 C 6.265625 -15.328125 6.203125 -15.476562 6.203125 -15.6875 C 6.203125 -15.863281 6.289062 -15.984375 6.46875 -16.046875 C 6.644531 -16.117188 6.9375 -16.15625 7.34375 -16.15625 L 9.90625 -16.15625 C 10.65625 -16.15625 11.03125 -16 11.03125 -15.6875 C 11.03125 -15.476562 10.957031 -15.328125 10.8125 -15.234375 C 10.675781 -15.148438 10.519531 -15.039062 10.34375 -14.90625 C 10.164062 -14.78125 10.007812 -14.5625 9.875 -14.25 C 9.738281 -13.945312 9.671875 -13.46875 9.671875 -12.8125 L 9.671875 -6.515625 C 9.671875 -4.359375 9.289062 -2.703125 8.53125 -1.546875 C 7.78125 -0.390625 6.488281 0.1875 4.65625 0.1875 C 3.707031 0.1875 2.910156 0 2.265625 -0.375 C 1.628906 -0.757812 1.15625 -1.234375 0.84375 -1.796875 C 0.53125 -2.367188 0.375 -2.953125 0.375 -3.546875 C 0.375 -3.953125 0.476562 -4.257812 0.6875 -4.46875 C 0.894531 -4.6875 1.148438 -4.796875 1.453125 -4.796875 C 1.804688 -4.796875 2.078125 -4.679688 2.265625 -4.453125 C 2.460938 -4.222656 2.582031 -3.953125 2.625 -3.640625 C 2.75 -2.878906 2.988281 -2.238281 3.34375 -1.71875 C 3.695312 -1.207031 4.242188 -0.953125 4.984375 -0.953125 C 5.890625 -0.953125 6.539062 -1.40625 6.9375 -2.3125 C 7.332031 -3.226562 7.53125 -4.457031 7.53125 -6 Z M 7.53125 -6 "/></g></g></g><g fill="#ffffff" fill-opacity="1"><g transform="translate(103.899013, 242.770802)"><g><path d="M 12.203125 -10.796875 L 12.1875 -7.609375 L 12.1875 -3.015625 C 12.1875 -2.585938 12.253906 -2.273438 12.390625 -2.078125 C 12.523438 -1.878906 12.679688 -1.742188 12.859375 -1.671875 C 13.035156 -1.597656 13.191406 -1.53125 13.328125 -1.46875 C 13.472656 -1.414062 13.546875 -1.300781 13.546875 -1.125 C 13.546875 -0.882812 13.351562 -0.664062 12.96875 -0.46875 C 12.675781 -0.289062 12.328125 -0.128906 11.921875 0.015625 C 11.523438 0.160156 11.191406 0.234375 10.921875 0.234375 C 10.640625 0.234375 10.441406 0.128906 10.328125 -0.078125 C 10.210938 -0.285156 10.144531 -0.582031 10.125 -0.96875 L 10.109375 -1.921875 C 9.597656 -1.210938 8.976562 -0.675781 8.25 -0.3125 C 7.519531 0.0507812 6.835938 0.234375 6.203125 0.234375 C 5.066406 0.234375 4.132812 -0.128906 3.40625 -0.859375 C 2.675781 -1.597656 2.3125 -2.765625 2.3125 -4.359375 L 2.3125 -7.609375 C 2.3125 -8.117188 2.253906 -8.492188 2.140625 -8.734375 C 2.023438 -8.984375 1.890625 -9.160156 1.734375 -9.265625 C 1.578125 -9.378906 1.441406 -9.472656 1.328125 -9.546875 C 1.210938 -9.628906 1.15625 -9.765625 1.15625 -9.953125 C 1.15625 -10.066406 1.195312 -10.160156 1.28125 -10.234375 C 1.363281 -10.316406 1.546875 -10.421875 1.828125 -10.546875 C 2.328125 -10.796875 2.769531 -10.976562 3.15625 -11.09375 C 3.539062 -11.21875 3.8125 -11.289062 3.96875 -11.3125 C 4.125 -11.320312 4.238281 -11.289062 4.3125 -11.21875 C 4.394531 -11.15625 4.4375 -11.015625 4.4375 -10.796875 L 4.40625 -7.609375 L 4.40625 -4.59375 C 4.40625 -3.5625 4.59375 -2.722656 4.96875 -2.078125 C 5.34375 -1.441406 5.972656 -1.132812 6.859375 -1.15625 C 7.347656 -1.164062 7.84375 -1.316406 8.34375 -1.609375 C 8.84375 -1.898438 9.253906 -2.316406 9.578125 -2.859375 C 9.910156 -3.410156 10.078125 -4.066406 10.078125 -4.828125 L 10.078125 -7.609375 C 10.078125 -8.117188 10.019531 -8.492188 9.90625 -8.734375 C 9.789062 -8.984375 9.65625 -9.160156 9.5 -9.265625 C 9.351562 -9.378906 9.222656 -9.472656 9.109375 -9.546875 C 8.992188 -9.628906 8.9375 -9.765625 8.9375 -9.953125 C 8.9375 -10.066406 8.976562 -10.160156 9.0625 -10.234375 C 9.144531 -10.316406 9.320312 -10.421875 9.59375 -10.546875 C 10.101562 -10.796875 10.546875 -10.976562 10.921875 -11.09375 C 11.304688 -11.21875 11.582031 -11.289062 11.75 -11.3125 C 11.90625 -11.320312 12.019531 -11.289062 12.09375 -11.21875 C 12.164062 -11.15625 12.203125 -11.015625 12.203125 -10.796875 Z M 12.203125 -10.796875 "/></g></g></g><g fill="#ffffff" fill-opacity="1"><g transform="translate(118.09482, 242.770802)"><g><path d="M 7.484375 -11.3125 C 8.109375 -11.3125 8.5625 -11.144531 8.84375 -10.8125 C 9.132812 -10.476562 9.28125 -10.113281 9.28125 -9.71875 C 9.28125 -9.425781 9.191406 -9.160156 9.015625 -8.921875 C 8.835938 -8.679688 8.617188 -8.550781 8.359375 -8.53125 C 8.109375 -8.53125 7.910156 -8.582031 7.765625 -8.6875 C 7.628906 -8.789062 7.503906 -8.90625 7.390625 -9.03125 C 7.273438 -9.164062 7.140625 -9.28125 6.984375 -9.375 C 6.835938 -9.476562 6.632812 -9.53125 6.375 -9.53125 C 5.863281 -9.53125 5.40625 -9.207031 5 -8.5625 C 4.59375 -7.914062 4.390625 -7.082031 4.390625 -6.0625 L 4.390625 -3.046875 C 4.390625 -2.492188 4.441406 -2.082031 4.546875 -1.8125 C 4.648438 -1.539062 4.769531 -1.34375 4.90625 -1.21875 C 5.050781 -1.09375 5.175781 -0.976562 5.28125 -0.875 C 5.394531 -0.78125 5.453125 -0.632812 5.453125 -0.4375 C 5.453125 -0.269531 5.375 -0.15625 5.21875 -0.09375 C 5.0625 -0.03125 4.835938 0 4.546875 0 L 2.078125 0 C 1.816406 0 1.597656 -0.03125 1.421875 -0.09375 C 1.242188 -0.15625 1.15625 -0.28125 1.15625 -0.46875 C 1.15625 -0.664062 1.210938 -0.804688 1.328125 -0.890625 C 1.441406 -0.984375 1.570312 -1.09375 1.71875 -1.21875 C 1.863281 -1.34375 1.992188 -1.539062 2.109375 -1.8125 C 2.222656 -2.082031 2.28125 -2.492188 2.28125 -3.046875 L 2.28125 -7.6875 C 2.28125 -8.082031 2.238281 -8.421875 2.15625 -8.703125 C 2.070312 -8.992188 1.875 -9.234375 1.5625 -9.421875 C 1.445312 -9.492188 1.347656 -9.570312 1.265625 -9.65625 C 1.191406 -9.738281 1.15625 -9.835938 1.15625 -9.953125 C 1.15625 -10.066406 1.195312 -10.171875 1.28125 -10.265625 C 1.363281 -10.359375 1.546875 -10.46875 1.828125 -10.59375 C 2.222656 -10.78125 2.597656 -10.929688 2.953125 -11.046875 C 3.304688 -11.160156 3.5625 -11.222656 3.71875 -11.234375 C 3.875 -11.234375 3.988281 -11.195312 4.0625 -11.125 C 4.132812 -11.0625 4.171875 -10.929688 4.171875 -10.734375 L 4.15625 -8.859375 C 4.507812 -9.535156 4.984375 -10.113281 5.578125 -10.59375 C 6.171875 -11.070312 6.804688 -11.3125 7.484375 -11.3125 Z M 7.484375 -11.3125 "/></g></g></g><g fill="#ffffff" fill-opacity="1"><g transform="translate(127.835643, 242.770802)"><g><path d="M 2.515625 -13.046875 C 2.203125 -13.066406 1.945312 -13.179688 1.75 -13.390625 C 1.550781 -13.597656 1.460938 -13.863281 1.484375 -14.1875 C 1.492188 -14.46875 1.601562 -14.742188 1.8125 -15.015625 C 2.019531 -15.296875 2.269531 -15.519531 2.5625 -15.6875 C 2.863281 -15.863281 3.171875 -15.925781 3.484375 -15.875 C 3.796875 -15.863281 4.050781 -15.734375 4.25 -15.484375 C 4.445312 -15.234375 4.535156 -14.960938 4.515625 -14.671875 C 4.503906 -14.410156 4.394531 -14.148438 4.1875 -13.890625 C 3.976562 -13.628906 3.722656 -13.414062 3.421875 -13.25 C 3.128906 -13.09375 2.828125 -13.023438 2.515625 -13.046875 Z M 2.3125 -3.046875 L 2.3125 -7.609375 C 2.3125 -8.117188 2.253906 -8.492188 2.140625 -8.734375 C 2.023438 -8.972656 1.890625 -9.148438 1.734375 -9.265625 C 1.585938 -9.378906 1.457031 -9.472656 1.34375 -9.546875 C 1.226562 -9.628906 1.171875 -9.765625 1.171875 -9.953125 C 1.171875 -10.066406 1.207031 -10.160156 1.28125 -10.234375 C 1.363281 -10.316406 1.546875 -10.421875 1.828125 -10.546875 C 2.347656 -10.796875 2.796875 -10.976562 3.171875 -11.09375 C 3.546875 -11.21875 3.8125 -11.289062 3.96875 -11.3125 C 4.125 -11.320312 4.238281 -11.289062 4.3125 -11.21875 C 4.394531 -11.15625 4.4375 -11.015625 4.4375 -10.796875 L 4.40625 -7.609375 L 4.40625 -3.046875 C 4.40625 -2.492188 4.457031 -2.082031 4.5625 -1.8125 C 4.675781 -1.539062 4.804688 -1.34375 4.953125 -1.21875 C 5.097656 -1.09375 5.222656 -0.976562 5.328125 -0.875 C 5.441406 -0.78125 5.5 -0.632812 5.5 -0.4375 C 5.5 -0.269531 5.414062 -0.15625 5.25 -0.09375 C 5.09375 -0.03125 4.875 0 4.59375 0 L 2.125 0 C 1.84375 0 1.617188 -0.03125 1.453125 -0.09375 C 1.285156 -0.15625 1.203125 -0.28125 1.203125 -0.46875 C 1.203125 -0.664062 1.257812 -0.804688 1.375 -0.890625 C 1.488281 -0.984375 1.617188 -1.09375 1.765625 -1.21875 C 1.910156 -1.34375 2.035156 -1.539062 2.140625 -1.8125 C 2.253906 -2.082031 2.3125 -2.492188 2.3125 -3.046875 Z M 2.3125 -3.046875 "/></g></g></g><g fill="#ffffff" fill-opacity="1"><g transform="translate(133.975558, 242.770802)"><g><path d="M 2.453125 0.234375 C 2.296875 0.234375 2.179688 0.179688 2.109375 0.078125 C 2.035156 -0.015625 1.929688 -0.222656 1.796875 -0.546875 C 1.628906 -1.015625 1.476562 -1.425781 1.34375 -1.78125 C 1.21875 -2.132812 1.085938 -2.539062 0.953125 -3 C 0.867188 -3.320312 0.953125 -3.53125 1.203125 -3.625 C 1.328125 -3.664062 1.445312 -3.648438 1.5625 -3.578125 C 1.6875 -3.503906 1.828125 -3.378906 1.984375 -3.203125 C 2.890625 -2.234375 3.675781 -1.59375 4.34375 -1.28125 C 5.019531 -0.976562 5.664062 -0.828125 6.28125 -0.828125 C 6.800781 -0.828125 7.253906 -0.953125 7.640625 -1.203125 C 8.023438 -1.460938 8.21875 -1.847656 8.21875 -2.359375 C 8.21875 -2.847656 7.925781 -3.269531 7.34375 -3.625 C 6.757812 -3.976562 5.992188 -4.347656 5.046875 -4.734375 C 4.390625 -4.992188 3.765625 -5.269531 3.171875 -5.5625 C 2.578125 -5.863281 2.09375 -6.222656 1.71875 -6.640625 C 1.351562 -7.054688 1.171875 -7.582031 1.171875 -8.21875 C 1.171875 -8.925781 1.351562 -9.503906 1.71875 -9.953125 C 2.09375 -10.410156 2.5625 -10.75 3.125 -10.96875 C 3.6875 -11.195312 4.257812 -11.3125 4.84375 -11.3125 C 5.457031 -11.3125 5.960938 -11.265625 6.359375 -11.171875 C 6.765625 -11.085938 7.113281 -11.039062 7.40625 -11.03125 C 7.59375 -11.019531 7.726562 -11.0625 7.8125 -11.15625 C 7.894531 -11.257812 8.015625 -11.3125 8.171875 -11.3125 C 8.328125 -11.3125 8.445312 -11.238281 8.53125 -11.09375 C 8.625 -10.957031 8.742188 -10.773438 8.890625 -10.546875 C 9.054688 -10.222656 9.191406 -9.945312 9.296875 -9.71875 C 9.410156 -9.5 9.507812 -9.28125 9.59375 -9.0625 C 9.75 -8.65625 9.722656 -8.390625 9.515625 -8.265625 C 9.328125 -8.148438 9.128906 -8.179688 8.921875 -8.359375 C 8.722656 -8.535156 8.425781 -8.769531 8.03125 -9.0625 C 7.582031 -9.40625 7.082031 -9.695312 6.53125 -9.9375 C 5.988281 -10.175781 5.453125 -10.296875 4.921875 -10.296875 C 4.304688 -10.296875 3.828125 -10.15625 3.484375 -9.875 C 3.148438 -9.601562 2.984375 -9.265625 2.984375 -8.859375 C 2.984375 -8.347656 3.25 -7.929688 3.78125 -7.609375 C 4.320312 -7.285156 5.125 -6.910156 6.1875 -6.484375 C 6.925781 -6.191406 7.597656 -5.882812 8.203125 -5.5625 C 8.804688 -5.25 9.289062 -4.890625 9.65625 -4.484375 C 10.019531 -4.078125 10.203125 -3.582031 10.203125 -3 C 10.203125 -2.425781 10.023438 -1.894531 9.671875 -1.40625 C 9.328125 -0.914062 8.835938 -0.519531 8.203125 -0.21875 C 7.578125 0.0820312 6.84375 0.234375 6 0.234375 C 5.25 0.234375 4.671875 0.160156 4.265625 0.015625 C 3.867188 -0.128906 3.554688 -0.203125 3.328125 -0.203125 C 3.140625 -0.203125 3 -0.128906 2.90625 0.015625 C 2.8125 0.160156 2.660156 0.234375 2.453125 0.234375 Z M 2.453125 0.234375 "/></g></g></g><g fill="#ffffff" fill-opacity="1"><g transform="translate(144.478125, 242.770802)"><g><path d="M 11.890625 -4.0625 C 12.054688 -4.039062 12.15625 -3.957031 12.1875 -3.8125 C 12.226562 -3.664062 12.242188 -3.488281 12.234375 -3.28125 C 12.203125 -2.726562 12.160156 -2.257812 12.109375 -1.875 C 12.054688 -1.488281 11.984375 -1.132812 11.890625 -0.8125 C 11.804688 -0.53125 11.65625 -0.320312 11.4375 -0.1875 C 11.226562 -0.0625 10.753906 0 10.015625 0 L 2.125 0 C 1.738281 0 1.445312 -0.0234375 1.25 -0.078125 C 1.0625 -0.128906 0.96875 -0.257812 0.96875 -0.46875 C 0.96875 -0.675781 1.035156 -0.816406 1.171875 -0.890625 C 1.316406 -0.972656 1.476562 -1.0625 1.65625 -1.15625 C 1.84375 -1.257812 2.003906 -1.457031 2.140625 -1.75 C 2.285156 -2.039062 2.359375 -2.507812 2.359375 -3.15625 L 2.359375 -12.8125 C 2.359375 -13.46875 2.285156 -13.945312 2.140625 -14.25 C 2.003906 -14.5625 1.851562 -14.78125 1.6875 -14.90625 C 1.519531 -15.039062 1.363281 -15.148438 1.21875 -15.234375 C 1.082031 -15.328125 1.015625 -15.476562 1.015625 -15.6875 C 1.015625 -15.863281 1.101562 -15.984375 1.28125 -16.046875 C 1.457031 -16.117188 1.753906 -16.15625 2.171875 -16.15625 L 4.703125 -16.15625 C 5.460938 -16.15625 5.84375 -16 5.84375 -15.6875 C 5.84375 -15.476562 5.769531 -15.328125 5.625 -15.234375 C 5.488281 -15.148438 5.332031 -15.039062 5.15625 -14.90625 C 4.976562 -14.78125 4.820312 -14.5625 4.6875 -14.25 C 4.550781 -13.945312 4.484375 -13.46875 4.484375 -12.8125 L 4.484375 -2.171875 C 4.484375 -1.765625 4.601562 -1.472656 4.84375 -1.296875 C 5.09375 -1.117188 5.640625 -1.03125 6.484375 -1.03125 L 7.9375 -1.0625 C 8.613281 -1.0625 9.128906 -1.132812 9.484375 -1.28125 C 9.847656 -1.425781 10.132812 -1.65625 10.34375 -1.96875 C 10.550781 -2.289062 10.765625 -2.6875 10.984375 -3.15625 C 11.148438 -3.5625 11.300781 -3.820312 11.4375 -3.9375 C 11.582031 -4.050781 11.734375 -4.09375 11.890625 -4.0625 Z M 11.890625 -4.0625 "/></g></g></g><g fill="#ffffff" fill-opacity="1"><g transform="translate(156.758069, 242.770802)"><g><path d="M 10.6875 -2.984375 C 10.882812 -3.191406 11.078125 -3.242188 11.265625 -3.140625 C 11.453125 -3.046875 11.484375 -2.851562 11.359375 -2.5625 C 11.203125 -2.1875 10.898438 -1.78125 10.453125 -1.34375 C 10.003906 -0.90625 9.425781 -0.53125 8.71875 -0.21875 C 8.007812 0.0820312 7.171875 0.234375 6.203125 0.234375 C 5.128906 0.234375 4.1875 -0.00390625 3.375 -0.484375 C 2.570312 -0.960938 1.941406 -1.601562 1.484375 -2.40625 C 1.035156 -3.21875 0.8125 -4.128906 0.8125 -5.140625 C 0.8125 -6.316406 1.0625 -7.363281 1.5625 -8.28125 C 2.0625 -9.207031 2.753906 -9.941406 3.640625 -10.484375 C 4.523438 -11.035156 5.535156 -11.3125 6.671875 -11.3125 C 7.929688 -11.3125 8.960938 -10.988281 9.765625 -10.34375 C 10.578125 -9.695312 11.082031 -8.875 11.28125 -7.875 C 11.332031 -7.664062 11.320312 -7.476562 11.25 -7.3125 C 11.175781 -7.15625 11.007812 -7.023438 10.75 -6.921875 C 9.507812 -6.441406 8.265625 -5.988281 7.015625 -5.5625 C 5.765625 -5.132812 4.472656 -4.695312 3.140625 -4.25 C 3.296875 -3.800781 3.539062 -3.351562 3.875 -2.90625 C 4.21875 -2.457031 4.65625 -2.082031 5.1875 -1.78125 C 5.71875 -1.488281 6.332031 -1.34375 7.03125 -1.34375 C 7.800781 -1.34375 8.5 -1.503906 9.125 -1.828125 C 9.75 -2.160156 10.269531 -2.546875 10.6875 -2.984375 Z M 5.953125 -10.21875 C 5.265625 -10.21875 4.6875 -10.03125 4.21875 -9.65625 C 3.757812 -9.289062 3.414062 -8.835938 3.1875 -8.296875 C 2.957031 -7.753906 2.84375 -7.195312 2.84375 -6.625 C 2.84375 -6.332031 2.847656 -6.070312 2.859375 -5.84375 C 2.878906 -5.625 2.921875 -5.414062 2.984375 -5.21875 C 3.929688 -5.519531 4.847656 -5.820312 5.734375 -6.125 C 6.628906 -6.4375 7.503906 -6.753906 8.359375 -7.078125 C 8.710938 -7.222656 8.859375 -7.488281 8.796875 -7.875 C 8.710938 -8.34375 8.523438 -8.757812 8.234375 -9.125 C 7.941406 -9.488281 7.59375 -9.765625 7.1875 -9.953125 C 6.789062 -10.148438 6.378906 -10.238281 5.953125 -10.21875 Z M 5.953125 -10.21875 "/></g></g></g><g fill="#ffffff" fill-opacity="1"><g transform="translate(168.414772, 242.770802)"><g><path d="M 9.09375 -8.5 L 7.15625 -5.9375 L 9.515625 -2.609375 C 9.890625 -2.085938 10.234375 -1.707031 10.546875 -1.46875 C 10.867188 -1.226562 11.125 -1.046875 11.3125 -0.921875 C 11.507812 -0.796875 11.609375 -0.632812 11.609375 -0.4375 C 11.609375 -0.269531 11.53125 -0.15625 11.375 -0.09375 C 11.21875 -0.03125 10.992188 0 10.703125 0 L 7.65625 0 C 7.382812 0 7.160156 -0.03125 6.984375 -0.09375 C 6.816406 -0.15625 6.734375 -0.28125 6.734375 -0.46875 C 6.734375 -0.601562 6.796875 -0.71875 6.921875 -0.8125 C 7.046875 -0.914062 7.160156 -1.03125 7.265625 -1.15625 C 7.378906 -1.28125 7.421875 -1.453125 7.390625 -1.671875 C 7.367188 -1.890625 7.222656 -2.203125 6.953125 -2.609375 L 5.515625 -4.640625 L 3.921875 -2.578125 C 3.628906 -2.191406 3.460938 -1.890625 3.421875 -1.671875 C 3.390625 -1.453125 3.425781 -1.28125 3.53125 -1.15625 C 3.632812 -1.03125 3.742188 -0.914062 3.859375 -0.8125 C 3.972656 -0.71875 4.03125 -0.59375 4.03125 -0.4375 C 4.03125 -0.269531 3.953125 -0.15625 3.796875 -0.09375 C 3.648438 -0.03125 3.429688 0 3.140625 0 L 1.515625 0 C 1.242188 0 1.019531 -0.03125 0.84375 -0.09375 C 0.675781 -0.15625 0.59375 -0.28125 0.59375 -0.46875 C 0.59375 -0.664062 0.6875 -0.820312 0.875 -0.9375 C 1.0625 -1.0625 1.316406 -1.238281 1.640625 -1.46875 C 1.960938 -1.707031 2.320312 -2.078125 2.71875 -2.578125 L 4.96875 -5.421875 L 2.8125 -8.46875 C 2.445312 -9.007812 2.101562 -9.394531 1.78125 -9.625 C 1.457031 -9.851562 1.195312 -10.03125 1 -10.15625 C 0.8125 -10.28125 0.71875 -10.441406 0.71875 -10.640625 C 0.71875 -10.804688 0.789062 -10.921875 0.9375 -10.984375 C 1.09375 -11.046875 1.316406 -11.078125 1.609375 -11.078125 L 4.6875 -11.078125 C 4.945312 -11.078125 5.160156 -11.046875 5.328125 -10.984375 C 5.492188 -10.921875 5.578125 -10.804688 5.578125 -10.640625 C 5.578125 -10.484375 5.515625 -10.351562 5.390625 -10.25 C 5.273438 -10.15625 5.160156 -10.046875 5.046875 -9.921875 C 4.941406 -9.796875 4.898438 -9.617188 4.921875 -9.390625 C 4.953125 -9.171875 5.101562 -8.863281 5.375 -8.46875 L 6.578125 -6.765625 L 7.890625 -8.5 C 8.179688 -8.894531 8.34375 -9.195312 8.375 -9.40625 C 8.40625 -9.625 8.363281 -9.796875 8.25 -9.921875 C 8.144531 -10.046875 8.035156 -10.15625 7.921875 -10.25 C 7.804688 -10.351562 7.75 -10.484375 7.75 -10.640625 C 7.75 -10.804688 7.828125 -10.921875 7.984375 -10.984375 C 8.140625 -11.046875 8.363281 -11.078125 8.65625 -11.078125 L 10.296875 -11.078125 C 10.554688 -11.078125 10.769531 -11.046875 10.9375 -10.984375 C 11.101562 -10.921875 11.1875 -10.804688 11.1875 -10.640625 C 11.1875 -10.441406 11.09375 -10.28125 10.90625 -10.15625 C 10.726562 -10.03125 10.476562 -9.851562 10.15625 -9.625 C 9.84375 -9.394531 9.488281 -9.019531 9.09375 -8.5 Z M 9.09375 -8.5 "/></g></g></g><g fill="#ffffff" fill-opacity="1"><g transform="translate(180.117632, 242.770802)"><g/></g></g><g fill="#ffffff" fill-opacity="1"><g transform="translate(184.272423, 242.770802)"><g><path d="M 6.1875 0.234375 C 5.101562 0.234375 4.15625 -0.00390625 3.34375 -0.484375 C 2.539062 -0.972656 1.914062 -1.625 1.46875 -2.4375 C 1.03125 -3.257812 0.8125 -4.160156 0.8125 -5.140625 C 0.8125 -6.316406 1.066406 -7.363281 1.578125 -8.28125 C 2.097656 -9.207031 2.800781 -9.9375 3.6875 -10.46875 C 4.570312 -11.007812 5.554688 -11.28125 6.640625 -11.28125 C 7.597656 -11.28125 8.410156 -11.09375 9.078125 -10.71875 C 9.742188 -10.351562 10.25 -9.882812 10.59375 -9.3125 C 10.945312 -8.75 11.125 -8.160156 11.125 -7.546875 C 11.125 -7.160156 11.019531 -6.851562 10.8125 -6.625 C 10.601562 -6.40625 10.34375 -6.296875 10.03125 -6.296875 C 9.6875 -6.296875 9.425781 -6.414062 9.25 -6.65625 C 9.082031 -6.894531 8.953125 -7.171875 8.859375 -7.484375 C 8.640625 -8.242188 8.316406 -8.882812 7.890625 -9.40625 C 7.460938 -9.9375 6.835938 -10.207031 6.015625 -10.21875 C 5.015625 -10.21875 4.234375 -9.847656 3.671875 -9.109375 C 3.117188 -8.378906 2.84375 -7.457031 2.84375 -6.34375 C 2.84375 -5.332031 3.019531 -4.445312 3.375 -3.6875 C 3.726562 -2.9375 4.222656 -2.351562 4.859375 -1.9375 C 5.492188 -1.519531 6.234375 -1.3125 7.078125 -1.3125 C 7.847656 -1.3125 8.503906 -1.476562 9.046875 -1.8125 C 9.585938 -2.144531 10.066406 -2.523438 10.484375 -2.953125 C 10.679688 -3.148438 10.867188 -3.203125 11.046875 -3.109375 C 11.234375 -3.023438 11.265625 -2.832031 11.140625 -2.53125 C 10.992188 -2.15625 10.710938 -1.75 10.296875 -1.3125 C 9.890625 -0.882812 9.347656 -0.519531 8.671875 -0.21875 C 7.992188 0.0820312 7.164062 0.234375 6.1875 0.234375 Z M 6.1875 0.234375 "/></g></g></g><g fill="#ffffff" fill-opacity="1"><g transform="translate(195.721378, 242.770802)"><g><path d="M 6.234375 0.234375 C 5.203125 0.234375 4.273438 0.015625 3.453125 -0.421875 C 2.628906 -0.859375 1.984375 -1.476562 1.515625 -2.28125 C 1.046875 -3.082031 0.8125 -4.03125 0.8125 -5.125 C 0.8125 -6.289062 1.066406 -7.335938 1.578125 -8.265625 C 2.097656 -9.203125 2.816406 -9.941406 3.734375 -10.484375 C 4.660156 -11.035156 5.71875 -11.3125 6.90625 -11.3125 C 7.9375 -11.3125 8.847656 -11.066406 9.640625 -10.578125 C 10.429688 -10.097656 11.054688 -9.445312 11.515625 -8.625 C 11.972656 -7.800781 12.203125 -6.863281 12.203125 -5.8125 C 12.203125 -4.675781 11.945312 -3.648438 11.4375 -2.734375 C 10.9375 -1.816406 10.238281 -1.09375 9.34375 -0.5625 C 8.457031 -0.03125 7.421875 0.234375 6.234375 0.234375 Z M 6.953125 -0.875 C 7.929688 -0.875 8.703125 -1.226562 9.265625 -1.9375 C 9.835938 -2.644531 10.125 -3.550781 10.125 -4.65625 C 10.125 -5.625 9.945312 -6.523438 9.59375 -7.359375 C 9.238281 -8.191406 8.757812 -8.859375 8.15625 -9.359375 C 7.550781 -9.867188 6.863281 -10.125 6.09375 -10.125 C 5.0625 -10.125 4.269531 -9.75 3.71875 -9 C 3.175781 -8.25 2.90625 -7.328125 2.90625 -6.234375 C 2.90625 -5.234375 3.078125 -4.320312 3.421875 -3.5 C 3.773438 -2.6875 4.253906 -2.046875 4.859375 -1.578125 C 5.460938 -1.109375 6.160156 -0.875 6.953125 -0.875 Z M 6.953125 -0.875 "/></g></g></g><g fill="#ffffff" fill-opacity="1"><g transform="translate(208.32447, 242.770802)"><g><path d="M 7.484375 -11.3125 C 8.109375 -11.3125 8.5625 -11.144531 8.84375 -10.8125 C 9.132812 -10.476562 9.28125 -10.113281 9.28125 -9.71875 C 9.28125 -9.425781 9.191406 -9.160156 9.015625 -8.921875 C 8.835938 -8.679688 8.617188 -8.550781 8.359375 -8.53125 C 8.109375 -8.53125 7.910156 -8.582031 7.765625 -8.6875 C 7.628906 -8.789062 7.503906 -8.90625 7.390625 -9.03125 C 7.273438 -9.164062 7.140625 -9.28125 6.984375 -9.375 C 6.835938 -9.476562 6.632812 -9.53125 6.375 -9.53125 C 5.863281 -9.53125 5.40625 -9.207031 5 -8.5625 C 4.59375 -7.914062 4.390625 -7.082031 4.390625 -6.0625 L 4.390625 -3.046875 C 4.390625 -2.492188 4.441406 -2.082031 4.546875 -1.8125 C 4.648438 -1.539062 4.769531 -1.34375 4.90625 -1.21875 C 5.050781 -1.09375 5.175781 -0.976562 5.28125 -0.875 C 5.394531 -0.78125 5.453125 -0.632812 5.453125 -0.4375 C 5.453125 -0.269531 5.375 -0.15625 5.21875 -0.09375 C 5.0625 -0.03125 4.835938 0 4.546875 0 L 2.078125 0 C 1.816406 0 1.597656 -0.03125 1.421875 -0.09375 C 1.242188 -0.15625 1.15625 -0.28125 1.15625 -0.46875 C 1.15625 -0.664062 1.210938 -0.804688 1.328125 -0.890625 C 1.441406 -0.984375 1.570312 -1.09375 1.71875 -1.21875 C 1.863281 -1.34375 1.992188 -1.539062 2.109375 -1.8125 C 2.222656 -2.082031 2.28125 -2.492188 2.28125 -3.046875 L 2.28125 -7.6875 C 2.28125 -8.082031 2.238281 -8.421875 2.15625 -8.703125 C 2.070312 -8.992188 1.875 -9.234375 1.5625 -9.421875 C 1.445312 -9.492188 1.347656 -9.570312 1.265625 -9.65625 C 1.191406 -9.738281 1.15625 -9.835938 1.15625 -9.953125 C 1.15625 -10.066406 1.195312 -10.171875 1.28125 -10.265625 C 1.363281 -10.359375 1.546875 -10.46875 1.828125 -10.59375 C 2.222656 -10.78125 2.597656 -10.929688 2.953125 -11.046875 C 3.304688 -11.160156 3.5625 -11.222656 3.71875 -11.234375 C 3.875 -11.234375 3.988281 -11.195312 4.0625 -11.125 C 4.132812 -11.0625 4.171875 -10.929688 4.171875 -10.734375 L 4.15625 -8.859375 C 4.507812 -9.535156 4.984375 -10.113281 5.578125 -10.59375 C 6.171875 -11.070312 6.804688 -11.3125 7.484375 -11.3125 Z M 7.484375 -11.3125 "/></g></g></g><g fill="#ffffff" fill-opacity="1"><g transform="translate(218.065293, 242.770802)"><g><path d="M 8.171875 -11.3125 C 9.140625 -11.3125 9.972656 -11.070312 10.671875 -10.59375 C 11.367188 -10.113281 11.90625 -9.460938 12.28125 -8.640625 C 12.664062 -7.816406 12.859375 -6.875 12.859375 -5.8125 C 12.859375 -4.65625 12.640625 -3.617188 12.203125 -2.703125 C 11.765625 -1.796875 11.164062 -1.082031 10.40625 -0.5625 C 9.65625 -0.0507812 8.800781 0.210938 7.84375 0.234375 C 7.164062 0.242188 6.5 0.132812 5.84375 -0.09375 C 5.195312 -0.320312 4.648438 -0.625 4.203125 -1 L 4.21875 1.5625 C 4.21875 2.125 4.269531 2.535156 4.375 2.796875 C 4.488281 3.066406 4.613281 3.265625 4.75 3.390625 C 4.894531 3.515625 5.019531 3.625 5.125 3.71875 C 5.226562 3.820312 5.28125 3.972656 5.28125 4.171875 C 5.28125 4.347656 5.203125 4.460938 5.046875 4.515625 C 4.898438 4.578125 4.679688 4.609375 4.390625 4.609375 L 1.921875 4.609375 C 1.648438 4.609375 1.429688 4.578125 1.265625 4.515625 C 1.097656 4.460938 1.015625 4.347656 1.015625 4.171875 C 1.015625 3.972656 1.070312 3.820312 1.1875 3.71875 C 1.300781 3.625 1.429688 3.515625 1.578125 3.390625 C 1.722656 3.265625 1.847656 3.066406 1.953125 2.796875 C 2.066406 2.535156 2.125 2.125 2.125 1.5625 L 2.078125 -7.78125 C 2.078125 -8.164062 2.035156 -8.5 1.953125 -8.78125 C 1.878906 -9.0625 1.691406 -9.296875 1.390625 -9.484375 C 1.265625 -9.554688 1.160156 -9.632812 1.078125 -9.71875 C 1.003906 -9.8125 0.96875 -9.910156 0.96875 -10.015625 C 0.96875 -10.148438 1.007812 -10.265625 1.09375 -10.359375 C 1.175781 -10.453125 1.359375 -10.5625 1.640625 -10.6875 C 2.035156 -10.851562 2.410156 -10.992188 2.765625 -11.109375 C 3.117188 -11.222656 3.375 -11.289062 3.53125 -11.3125 C 3.6875 -11.320312 3.800781 -11.289062 3.875 -11.21875 C 3.957031 -11.15625 4 -11.015625 4 -10.796875 L 3.96875 -8.9375 C 4.332031 -9.5625 4.863281 -10.113281 5.5625 -10.59375 C 6.269531 -11.070312 7.140625 -11.3125 8.171875 -11.3125 Z M 7.84375 -0.8125 C 8.519531 -0.820312 9.070312 -1.007812 9.5 -1.375 C 9.9375 -1.75 10.257812 -2.242188 10.46875 -2.859375 C 10.675781 -3.472656 10.78125 -4.148438 10.78125 -4.890625 C 10.78125 -5.992188 10.617188 -6.914062 10.296875 -7.65625 C 9.984375 -8.394531 9.566406 -8.945312 9.046875 -9.3125 C 8.535156 -9.675781 7.988281 -9.859375 7.40625 -9.859375 C 6.695312 -9.859375 6.101562 -9.664062 5.625 -9.28125 C 5.15625 -8.894531 4.800781 -8.421875 4.5625 -7.859375 C 4.320312 -7.296875 4.203125 -6.726562 4.203125 -6.15625 L 4.203125 -4.546875 C 4.203125 -3.742188 4.394531 -3.0625 4.78125 -2.5 C 5.164062 -1.9375 5.632812 -1.515625 6.1875 -1.234375 C 6.75 -0.953125 7.300781 -0.8125 7.84375 -0.8125 Z M 7.84375 -0.8125 "/></g></g></g><g fill="#ffffff" fill-opacity="1"><g transform="translate(231.291625, 242.770802)"><g><path d="M 6.234375 0.234375 C 5.203125 0.234375 4.273438 0.015625 3.453125 -0.421875 C 2.628906 -0.859375 1.984375 -1.476562 1.515625 -2.28125 C 1.046875 -3.082031 0.8125 -4.03125 0.8125 -5.125 C 0.8125 -6.289062 1.066406 -7.335938 1.578125 -8.265625 C 2.097656 -9.203125 2.816406 -9.941406 3.734375 -10.484375 C 4.660156 -11.035156 5.71875 -11.3125 6.90625 -11.3125 C 7.9375 -11.3125 8.847656 -11.066406 9.640625 -10.578125 C 10.429688 -10.097656 11.054688 -9.445312 11.515625 -8.625 C 11.972656 -7.800781 12.203125 -6.863281 12.203125 -5.8125 C 12.203125 -4.675781 11.945312 -3.648438 11.4375 -2.734375 C 10.9375 -1.816406 10.238281 -1.09375 9.34375 -0.5625 C 8.457031 -0.03125 7.421875 0.234375 6.234375 0.234375 Z M 6.953125 -0.875 C 7.929688 -0.875 8.703125 -1.226562 9.265625 -1.9375 C 9.835938 -2.644531 10.125 -3.550781 10.125 -4.65625 C 10.125 -5.625 9.945312 -6.523438 9.59375 -7.359375 C 9.238281 -8.191406 8.757812 -8.859375 8.15625 -9.359375 C 7.550781 -9.867188 6.863281 -10.125 6.09375 -10.125 C 5.0625 -10.125 4.269531 -9.75 3.71875 -9 C 3.175781 -8.25 2.90625 -7.328125 2.90625 -6.234375 C 2.90625 -5.234375 3.078125 -4.320312 3.421875 -3.5 C 3.773438 -2.6875 4.253906 -2.046875 4.859375 -1.578125 C 5.460938 -1.109375 6.160156 -0.875 6.953125 -0.875 Z M 6.953125 -0.875 "/></g></g></g><g fill="#ffffff" fill-opacity="1"><g transform="translate(243.894716, 242.770802)"><g><path d="M 7.484375 -11.3125 C 8.109375 -11.3125 8.5625 -11.144531 8.84375 -10.8125 C 9.132812 -10.476562 9.28125 -10.113281 9.28125 -9.71875 C 9.28125 -9.425781 9.191406 -9.160156 9.015625 -8.921875 C 8.835938 -8.679688 8.617188 -8.550781 8.359375 -8.53125 C 8.109375 -8.53125 7.910156 -8.582031 7.765625 -8.6875 C 7.628906 -8.789062 7.503906 -8.90625 7.390625 -9.03125 C 7.273438 -9.164062 7.140625 -9.28125 6.984375 -9.375 C 6.835938 -9.476562 6.632812 -9.53125 6.375 -9.53125 C 5.863281 -9.53125 5.40625 -9.207031 5 -8.5625 C 4.59375 -7.914062 4.390625 -7.082031 4.390625 -6.0625 L 4.390625 -3.046875 C 4.390625 -2.492188 4.441406 -2.082031 4.546875 -1.8125 C 4.648438 -1.539062 4.769531 -1.34375 4.90625 -1.21875 C 5.050781 -1.09375 5.175781 -0.976562 5.28125 -0.875 C 5.394531 -0.78125 5.453125 -0.632812 5.453125 -0.4375 C 5.453125 -0.269531 5.375 -0.15625 5.21875 -0.09375 C 5.0625 -0.03125 4.835938 0 4.546875 0 L 2.078125 0 C 1.816406 0 1.597656 -0.03125 1.421875 -0.09375 C 1.242188 -0.15625 1.15625 -0.28125 1.15625 -0.46875 C 1.15625 -0.664062 1.210938 -0.804688 1.328125 -0.890625 C 1.441406 -0.984375 1.570312 -1.09375 1.71875 -1.21875 C 1.863281 -1.34375 1.992188 -1.539062 2.109375 -1.8125 C 2.222656 -2.082031 2.28125 -2.492188 2.28125 -3.046875 L 2.28125 -7.6875 C 2.28125 -8.082031 2.238281 -8.421875 2.15625 -8.703125 C 2.070312 -8.992188 1.875 -9.234375 1.5625 -9.421875 C 1.445312 -9.492188 1.347656 -9.570312 1.265625 -9.65625 C 1.191406 -9.738281 1.15625 -9.835938 1.15625 -9.953125 C 1.15625 -10.066406 1.195312 -10.171875 1.28125 -10.265625 C 1.363281 -10.359375 1.546875 -10.46875 1.828125 -10.59375 C 2.222656 -10.78125 2.597656 -10.929688 2.953125 -11.046875 C 3.304688 -11.160156 3.5625 -11.222656 3.71875 -11.234375 C 3.875 -11.234375 3.988281 -11.195312 4.0625 -11.125 C 4.132812 -11.0625 4.171875 -10.929688 4.171875 -10.734375 L 4.15625 -8.859375 C 4.507812 -9.535156 4.984375 -10.113281 5.578125 -10.59375 C 6.171875 -11.070312 6.804688 -11.3125 7.484375 -11.3125 Z M 7.484375 -11.3125 "/></g></g></g><g fill="#ffffff" fill-opacity="1"><g transform="translate(253.635539, 242.770802)"><g><path d="M 11.984375 -1.4375 C 12.097656 -1.4375 12.203125 -1.421875 12.296875 -1.390625 C 12.390625 -1.359375 12.4375 -1.28125 12.4375 -1.15625 C 12.4375 -0.863281 12.242188 -0.570312 11.859375 -0.28125 C 11.472656 0.0078125 11.019531 0.15625 10.5 0.15625 C 9.957031 0.15625 9.582031 0 9.375 -0.3125 C 9.164062 -0.625 9.007812 -1.054688 8.90625 -1.609375 C 8.425781 -1.015625 7.820312 -0.554688 7.09375 -0.234375 C 6.375 0.078125 5.679688 0.234375 5.015625 0.234375 C 4.066406 0.234375 3.257812 0.078125 2.59375 -0.234375 C 1.9375 -0.554688 1.4375 -0.984375 1.09375 -1.515625 C 0.75 -2.054688 0.578125 -2.648438 0.578125 -3.296875 C 0.578125 -4.035156 0.78125 -4.6875 1.1875 -5.25 C 1.59375 -5.8125 2.15625 -6.25 2.875 -6.5625 C 3.601562 -6.875 4.4375 -7.03125 5.375 -7.03125 C 5.863281 -7.03125 6.289062 -7.007812 6.65625 -6.96875 C 7.03125 -6.925781 7.4375 -6.847656 7.875 -6.734375 C 7.71875 -7.347656 7.550781 -7.894531 7.375 -8.375 C 7.207031 -8.851562 6.953125 -9.226562 6.609375 -9.5 C 6.273438 -9.769531 5.769531 -9.90625 5.09375 -9.90625 C 4.4375 -9.90625 3.875 -9.8125 3.40625 -9.625 C 2.9375 -9.4375 2.457031 -9.207031 1.96875 -8.9375 C 1.75 -8.789062 1.566406 -8.78125 1.421875 -8.90625 C 1.285156 -9.039062 1.296875 -9.226562 1.453125 -9.46875 C 1.640625 -9.738281 1.941406 -10.007812 2.359375 -10.28125 C 2.773438 -10.5625 3.273438 -10.796875 3.859375 -10.984375 C 4.441406 -11.179688 5.078125 -11.28125 5.765625 -11.28125 C 6.609375 -11.28125 7.296875 -11.117188 7.828125 -10.796875 C 8.359375 -10.472656 8.773438 -10.039062 9.078125 -9.5 C 9.378906 -8.96875 9.597656 -8.363281 9.734375 -7.6875 L 10.796875 -2.671875 C 10.921875 -2.085938 11.09375 -1.734375 11.3125 -1.609375 C 11.539062 -1.492188 11.765625 -1.4375 11.984375 -1.4375 Z M 5.53125 -0.921875 C 6.070312 -0.921875 6.585938 -1.035156 7.078125 -1.265625 C 7.578125 -1.492188 7.972656 -1.78125 8.265625 -2.125 C 8.554688 -2.476562 8.671875 -2.820312 8.609375 -3.15625 C 8.554688 -3.414062 8.488281 -3.710938 8.40625 -4.046875 C 8.320312 -4.378906 8.226562 -4.800781 8.125 -5.3125 C 8.09375 -5.488281 7.929688 -5.632812 7.640625 -5.75 C 7.359375 -5.875 7.039062 -5.957031 6.6875 -6 C 6.332031 -6.039062 6.035156 -6.0625 5.796875 -6.0625 C 4.773438 -6.0625 4 -5.832031 3.46875 -5.375 C 2.9375 -4.925781 2.679688 -4.316406 2.703125 -3.546875 C 2.734375 -2.796875 3 -2.171875 3.5 -1.671875 C 4 -1.171875 4.675781 -0.921875 5.53125 -0.921875 Z M 5.53125 -0.921875 "/></g></g></g><g fill="#ffffff" fill-opacity="1"><g transform="translate(265.846223, 242.770802)"><g><path d="M 7.109375 -2.09375 C 7.273438 -2.269531 7.429688 -2.300781 7.578125 -2.1875 C 7.722656 -2.082031 7.757812 -1.921875 7.6875 -1.703125 C 7.582031 -1.441406 7.394531 -1.160156 7.125 -0.859375 C 6.851562 -0.566406 6.507812 -0.3125 6.09375 -0.09375 C 5.675781 0.125 5.175781 0.234375 4.59375 0.234375 C 3.65625 0.234375 2.957031 -0.0507812 2.5 -0.625 C 2.050781 -1.195312 1.828125 -2.003906 1.828125 -3.046875 L 1.828125 -3.734375 C 1.828125 -5.085938 1.832031 -6.296875 1.84375 -7.359375 C 1.863281 -8.421875 1.890625 -9.304688 1.921875 -10.015625 L 1.03125 -10.015625 C 0.601562 -10.015625 0.390625 -10.171875 0.390625 -10.484375 C 0.390625 -10.554688 0.398438 -10.625 0.421875 -10.6875 C 0.453125 -10.757812 0.507812 -10.851562 0.59375 -10.96875 C 1.03125 -11.457031 1.457031 -11.878906 1.875 -12.234375 C 2.289062 -12.597656 2.6875 -12.925781 3.0625 -13.21875 C 3.238281 -13.34375 3.367188 -13.410156 3.453125 -13.421875 C 3.535156 -13.441406 3.613281 -13.453125 3.6875 -13.453125 C 3.96875 -13.453125 4.09375 -13.269531 4.0625 -12.90625 C 4.039062 -12.664062 4.023438 -12.414062 4.015625 -12.15625 C 4.003906 -11.894531 3.988281 -11.535156 3.96875 -11.078125 L 6.28125 -11.078125 C 6.476562 -11.078125 6.640625 -11.050781 6.765625 -11 C 6.898438 -10.945312 6.9375 -10.78125 6.875 -10.5 C 6.8125 -10.207031 6.695312 -10.03125 6.53125 -9.96875 C 6.375 -9.90625 6.195312 -9.882812 6 -9.90625 L 3.953125 -9.96875 L 3.859375 -3.734375 C 3.835938 -2.960938 3.921875 -2.367188 4.109375 -1.953125 C 4.304688 -1.546875 4.722656 -1.34375 5.359375 -1.34375 C 5.660156 -1.34375 5.976562 -1.421875 6.3125 -1.578125 C 6.644531 -1.742188 6.910156 -1.914062 7.109375 -2.09375 Z M 7.109375 -2.09375 "/></g></g></g><g fill="#ffffff" fill-opacity="1"><g transform="translate(273.555766, 242.770802)"><g><path d="M 2.515625 -13.046875 C 2.203125 -13.066406 1.945312 -13.179688 1.75 -13.390625 C 1.550781 -13.597656 1.460938 -13.863281 1.484375 -14.1875 C 1.492188 -14.46875 1.601562 -14.742188 1.8125 -15.015625 C 2.019531 -15.296875 2.269531 -15.519531 2.5625 -15.6875 C 2.863281 -15.863281 3.171875 -15.925781 3.484375 -15.875 C 3.796875 -15.863281 4.050781 -15.734375 4.25 -15.484375 C 4.445312 -15.234375 4.535156 -14.960938 4.515625 -14.671875 C 4.503906 -14.410156 4.394531 -14.148438 4.1875 -13.890625 C 3.976562 -13.628906 3.722656 -13.414062 3.421875 -13.25 C 3.128906 -13.09375 2.828125 -13.023438 2.515625 -13.046875 Z M 2.3125 -3.046875 L 2.3125 -7.609375 C 2.3125 -8.117188 2.253906 -8.492188 2.140625 -8.734375 C 2.023438 -8.972656 1.890625 -9.148438 1.734375 -9.265625 C 1.585938 -9.378906 1.457031 -9.472656 1.34375 -9.546875 C 1.226562 -9.628906 1.171875 -9.765625 1.171875 -9.953125 C 1.171875 -10.066406 1.207031 -10.160156 1.28125 -10.234375 C 1.363281 -10.316406 1.546875 -10.421875 1.828125 -10.546875 C 2.347656 -10.796875 2.796875 -10.976562 3.171875 -11.09375 C 3.546875 -11.21875 3.8125 -11.289062 3.96875 -11.3125 C 4.125 -11.320312 4.238281 -11.289062 4.3125 -11.21875 C 4.394531 -11.15625 4.4375 -11.015625 4.4375 -10.796875 L 4.40625 -7.609375 L 4.40625 -3.046875 C 4.40625 -2.492188 4.457031 -2.082031 4.5625 -1.8125 C 4.675781 -1.539062 4.804688 -1.34375 4.953125 -1.21875 C 5.097656 -1.09375 5.222656 -0.976562 5.328125 -0.875 C 5.441406 -0.78125 5.5 -0.632812 5.5 -0.4375 C 5.5 -0.269531 5.414062 -0.15625 5.25 -0.09375 C 5.09375 -0.03125 4.875 0 4.59375 0 L 2.125 0 C 1.84375 0 1.617188 -0.03125 1.453125 -0.09375 C 1.285156 -0.15625 1.203125 -0.28125 1.203125 -0.46875 C 1.203125 -0.664062 1.257812 -0.804688 1.375 -0.890625 C 1.488281 -0.984375 1.617188 -1.09375 1.765625 -1.21875 C 1.910156 -1.34375 2.035156 -1.539062 2.140625 -1.8125 C 2.253906 -2.082031 2.3125 -2.492188 2.3125 -3.046875 Z M 2.3125 -3.046875 "/></g></g></g><g fill="#ffffff" fill-opacity="1"><g transform="translate(279.69568, 242.770802)"><g><path d="M 9.671875 -11.078125 L 10.921875 -11.078125 C 11.191406 -11.078125 11.410156 -11.046875 11.578125 -10.984375 C 11.753906 -10.921875 11.84375 -10.804688 11.84375 -10.640625 C 11.84375 -10.441406 11.757812 -10.285156 11.59375 -10.171875 C 11.4375 -10.054688 11.238281 -9.875 11 -9.625 C 10.757812 -9.375 10.515625 -8.941406 10.265625 -8.328125 L 7.3125 -0.625 C 7.25 -0.4375 7.160156 -0.289062 7.046875 -0.1875 C 6.929688 -0.09375 6.675781 0 6.28125 0.09375 C 5.84375 0.195312 5.539062 0.210938 5.375 0.140625 C 5.207031 0.078125 5.085938 -0.0507812 5.015625 -0.25 L 1.828125 -8.328125 C 1.597656 -8.941406 1.363281 -9.375 1.125 -9.625 C 0.882812 -9.875 0.6875 -10.054688 0.53125 -10.171875 C 0.375 -10.285156 0.296875 -10.441406 0.296875 -10.640625 C 0.296875 -10.804688 0.375 -10.921875 0.53125 -10.984375 C 0.6875 -11.046875 0.910156 -11.078125 1.203125 -11.078125 L 3.78125 -11.078125 C 4.039062 -11.078125 4.253906 -11.046875 4.421875 -10.984375 C 4.597656 -10.921875 4.6875 -10.804688 4.6875 -10.640625 C 4.6875 -10.484375 4.617188 -10.359375 4.484375 -10.265625 C 4.359375 -10.171875 4.222656 -10.0625 4.078125 -9.9375 C 3.941406 -9.820312 3.851562 -9.640625 3.8125 -9.390625 C 3.78125 -9.148438 3.851562 -8.796875 4.03125 -8.328125 L 6.640625 -1.59375 L 9.234375 -8.328125 C 9.421875 -8.796875 9.5 -9.148438 9.46875 -9.390625 C 9.445312 -9.640625 9.378906 -9.820312 9.265625 -9.9375 C 9.148438 -10.0625 9.035156 -10.171875 8.921875 -10.265625 C 8.804688 -10.359375 8.75 -10.484375 8.75 -10.640625 C 8.75 -10.804688 8.828125 -10.921875 8.984375 -10.984375 C 9.148438 -11.046875 9.378906 -11.078125 9.671875 -11.078125 Z M 9.671875 -11.078125 "/></g></g></g><g fill="#ffffff" fill-opacity="1"><g transform="translate(291.329296, 242.770802)"><g><path d="M 6.234375 0.234375 C 5.203125 0.234375 4.273438 0.015625 3.453125 -0.421875 C 2.628906 -0.859375 1.984375 -1.476562 1.515625 -2.28125 C 1.046875 -3.082031 0.8125 -4.03125 0.8125 -5.125 C 0.8125 -6.289062 1.066406 -7.335938 1.578125 -8.265625 C 2.097656 -9.203125 2.816406 -9.941406 3.734375 -10.484375 C 4.660156 -11.035156 5.71875 -11.3125 6.90625 -11.3125 C 7.9375 -11.3125 8.847656 -11.066406 9.640625 -10.578125 C 10.429688 -10.097656 11.054688 -9.445312 11.515625 -8.625 C 11.972656 -7.800781 12.203125 -6.863281 12.203125 -5.8125 C 12.203125 -4.675781 11.945312 -3.648438 11.4375 -2.734375 C 10.9375 -1.816406 10.238281 -1.09375 9.34375 -0.5625 C 8.457031 -0.03125 7.421875 0.234375 6.234375 0.234375 Z M 6.953125 -0.875 C 7.929688 -0.875 8.703125 -1.226562 9.265625 -1.9375 C 9.835938 -2.644531 10.125 -3.550781 10.125 -4.65625 C 10.125 -5.625 9.945312 -6.523438 9.59375 -7.359375 C 9.238281 -8.191406 8.757812 -8.859375 8.15625 -9.359375 C 7.550781 -9.867188 6.863281 -10.125 6.09375 -10.125 C 5.0625 -10.125 4.269531 -9.75 3.71875 -9 C 3.175781 -8.25 2.90625 -7.328125 2.90625 -6.234375 C 2.90625 -5.234375 3.078125 -4.320312 3.421875 -3.5 C 3.773438 -2.6875 4.253906 -2.046875 4.859375 -1.578125 C 5.460938 -1.109375 6.160156 -0.875 6.953125 -0.875 Z M 6.953125 -0.875 "/></g></g></g></svg>