<svg xmlns="http://www.w3.org/2000/svg" xmlns:xlink="http://www.w3.org/1999/xlink" width="500" zoomAndPan="magnify" viewBox="0 0 375 374.999991" height="500" preserveAspectRatio="xMidYMid meet" version="1.0"><defs><clipPath id="8857759a41"><path d="M 26 32.003906 L 348.949219 32.003906 L 348.949219 343 L 26 343 Z M 26 32.003906 " clip-rule="nonzero"/></clipPath></defs><g clip-path="url(#8857759a41)"><path fill="#d4a160" d="M 118.429688 34.722656 C 119.898438 33.738281 121.179688 32.007812 123.164062 32.503906 C 122.15625 34.726562 119.863281 35.953125 118.714844 38.074219 C 112.894531 53.328125 102.121094 53.792969 101.558594 60.921875 C 105.988281 58.34375 110.082031 55.1875 114.644531 52.796875 C 116.117188 52.109375 117.328125 51.003906 118.242188 49.675781 C 128.554688 35.6875 145.492188 32.804688 162.375 36.917969 C 163.300781 37.023438 163.582031 37.851562 163.800781 38.632812 C 161.183594 39 158.519531 38.871094 155.910156 39.257812 C 145.441406 42.34375 142.625 56.183594 125.6875 53.457031 C 123.3125 53.527344 120.988281 52.84375 118.628906 52.878906 C 113.535156 55.390625 103.25 61.847656 100.859375 64.355469 C 102.558594 65.269531 104.527344 64.996094 106.378906 64.898438 C 109.277344 64.546875 111.589844 62.664062 114.117188 61.386719 C 122.472656 57.03125 123.023438 58.171875 134.214844 59.558594 C 138.234375 60.371094 142.34375 59.683594 146.398438 59.890625 C 146.324219 60.140625 146.171875 60.644531 146.09375 60.898438 C 143.8125 61.703125 141.382812 61.808594 139.015625 62.199219 C 134.28125 63.964844 130.234375 67.378906 125.28125 68.585938 C 115.605469 68.800781 105.984375 67.296875 96.316406 67.648438 C 89.761719 72.996094 83.457031 78.714844 78.046875 85.25 C 82.015625 87.789062 89.003906 80.050781 92.222656 78.015625 C 94.992188 75.96875 98.449219 75.132812 101.84375 75.066406 C 119.074219 73.550781 109.832031 74.769531 120.503906 72.453125 C 120.496094 72.789062 120.480469 73.457031 120.476562 73.792969 C 118.375 74.808594 116.058594 75.285156 113.953125 76.273438 C 110.066406 78.398438 104.472656 84.820312 100.671875 85.308594 C 72.332031 89.675781 75.691406 88.277344 73.960938 90.179688 C 68.464844 96.925781 61.554688 107.683594 60.792969 110.335938 C 66.46875 110.242188 70.199219 100.390625 75.699219 97.566406 C 82.597656 93.714844 85.683594 95.800781 99.023438 89.234375 C 99.0625 89.558594 99.140625 90.210938 99.175781 90.535156 C 97.105469 92.449219 94.160156 93.136719 92.242188 95.253906 C 87.773438 100.160156 85.644531 104.28125 81.632812 105.875 C 56.777344 114.890625 58.664062 113.5625 57.433594 116.332031 C 54.230469 123.421875 51.089844 130.625 49.304688 138.21875 C 53.617188 138.375 55.945312 128.175781 60.796875 123.207031 C 65.84375 118.839844 72.589844 117.328125 77.976562 113.492188 C 79.601562 112.363281 81.132812 111.113281 82.769531 109.996094 C 82.808594 110.660156 83.121094 111.445312 82.515625 111.964844 C 80.941406 113.777344 78.699219 114.921875 77.347656 116.953125 C 74.660156 121.011719 73.214844 125.988281 69.550781 129.355469 C 62.714844 133.761719 49.359375 141.703125 47.742188 143.664062 C 46.101562 150.375 45.1875 157.238281 44.335938 164.085938 C 47.671875 163.675781 48.121094 154.019531 52.414062 148.273438 C 56.542969 143.628906 62.453125 141.15625 66.992188 136.980469 C 68.144531 135.917969 68.21875 134.046875 69.6875 133.261719 C 69.859375 135.59375 67.988281 137.324219 67.554688 139.515625 C 64.492188 153.996094 61.398438 152.914062 48.324219 165.523438 C 46.980469 166.863281 45.332031 167.914062 44.234375 169.488281 C 43.867188 173.902344 44.039062 187.457031 45.203125 192.636719 L 46.03125 192.636719 C 47.011719 190.957031 47.867188 189.089844 47.820312 187.105469 C 47.890625 173.105469 50.5625 174.660156 60.792969 163.277344 C 62.328125 161.933594 62.8125 159.898438 63.273438 158.003906 C 63.492188 157.933594 63.917969 157.796875 64.136719 157.726562 C 64.414062 159.992188 63.015625 161.96875 63.019531 164.199219 C 62.277344 178.863281 60.515625 173.222656 45.863281 196.789062 C 46.746094 204.34375 48.847656 211.753906 51.1875 218.992188 C 51.339844 219.921875 52.851562 219.402344 52.808594 218.605469 C 53.621094 214.71875 52.691406 210.78125 52.332031 206.90625 C 52.207031 205.550781 51.535156 204.171875 52.074219 202.820312 C 53.839844 196.40625 58.738281 191.5625 61.410156 185.589844 C 62.089844 184.285156 61.191406 182.207031 62.585938 181.402344 C 64.621094 207.304688 64.90625 191.246094 53.808594 221.878906 C 53.570312 222.722656 53.070312 223.605469 53.3125 224.5 C 55.890625 231.695312 59.539062 238.441406 63.238281 245.105469 C 63.441406 245.164062 63.839844 245.292969 64.039062 245.359375 C 64.246094 243.117188 64.480469 240.726562 63.515625 238.621094 C 57.902344 225.59375 61.359375 225.839844 66.128906 210.164062 C 66.636719 208.253906 65.886719 206.292969 66.34375 204.378906 C 67.0625 205.449219 67.640625 206.652344 67.660156 207.972656 C 67.964844 212.425781 73.257812 222.195312 70.738281 228.101562 C 68.300781 234.722656 67.125 241.707031 65.535156 248.550781 C 71.054688 257.429688 79.617188 267.769531 81.871094 269.292969 C 82.4375 263.625 75.125 257.085938 74.921875 251.0625 C 75.058594 245.421875 76.613281 239.910156 76.949219 234.28125 C 77.1875 232.492188 76.242188 230.886719 76.050781 229.152344 C 78.398438 230.242188 78.125 233.414062 79.390625 235.378906 C 87.597656 247.617188 85.503906 257.433594 84.304688 270.203125 C 84.316406 270.90625 83.890625 271.820312 84.574219 272.355469 C 86.648438 274.421875 100.410156 287.558594 103.167969 287.484375 C 103.234375 282.65625 96.394531 276.835938 93.445312 272.683594 C 90.5 267.148438 91.890625 260.6875 91.015625 254.742188 C 90.890625 252.808594 89.253906 251.398438 89.171875 249.457031 C 91.410156 251.082031 92.058594 253.964844 94.039062 255.828125 C 97.789062 259.546875 100.390625 264.246094 102.480469 269.054688 C 103.792969 273.246094 103.949219 277.671875 104.632812 281.984375 C 105.226562 291.371094 105.726562 289.707031 108.390625 291.757812 C 113.96875 295.238281 119.664062 298.628906 125.703125 301.257812 C 125.535156 300.597656 125.660156 299.800781 125.179688 299.273438 C 122.339844 295.914062 118.125 294.199219 114.914062 291.28125 C 111.042969 285.972656 109.109375 273.671875 107.511719 269.820312 C 106.785156 268.519531 105.660156 267.503906 104.933594 266.199219 C 106.804688 266.355469 107.75 268.128906 108.921875 269.355469 C 110.292969 271.003906 117.28125 275.164062 121.195312 282.386719 C 124.789062 290.414062 127.46875 302.355469 130.558594 303.570312 C 137.890625 306.6875 145.472656 309.253906 153.210938 311.164062 C 153.285156 310.851562 153.4375 310.234375 153.519531 309.929688 C 151.566406 306.824219 145.453125 304.933594 139.84375 301.765625 C 133.691406 298.316406 134.097656 292.285156 129.636719 285.71875 C 128.386719 283.683594 125.585938 283.03125 124.820312 280.628906 C 127.585938 281.015625 129.574219 283.15625 131.945312 284.429688 C 134.601562 286.070312 137.632812 287.035156 140.179688 288.855469 C 148.207031 295.402344 151.5 306.046875 159.625 312.484375 C 162.910156 313.320312 176.082031 315.363281 178.449219 314.941406 C 178.398438 311.019531 169.898438 311.113281 163.703125 307.410156 C 158.34375 303.84375 157.28125 296.273438 151.414062 293.285156 C 150.519531 292.78125 149.730469 292.113281 149.195312 291.234375 C 151.75 291.441406 154.046875 292.757812 156.496094 293.433594 C 159.972656 294.734375 163.902344 294.894531 167.050781 297.003906 C 174.023438 301.675781 177.226562 310.074219 183.933594 315.046875 C 185.0625 315.585938 186.40625 315.285156 187.625 315.386719 C 189.089844 315.261719 190.796875 315.707031 192.042969 314.714844 C 194.269531 313.265625 195.617188 310.902344 197.460938 309.0625 C 210.160156 292.671875 209.605469 296.824219 218.875 293.460938 C 221.304688 292.65625 223.671875 291.5 226.242188 291.234375 C 225.273438 293.136719 222.925781 293.554688 221.492188 295.011719 C 217.894531 298.632812 216.363281 303.914062 212.230469 307.078125 C 208.226562 309.867188 203.152344 310.25 198.851562 312.40625 C 197.863281 312.789062 197.34375 313.738281 196.78125 314.570312 C 197.9375 315.5 199.402344 314.808594 200.726562 314.804688 C 217.527344 312.773438 215.589844 312.804688 217.851562 310.683594 C 224 304.636719 227.460938 296.445312 233.546875 290.34375 C 236.277344 287.566406 240.117188 286.5 243.359375 284.507812 C 245.703125 283.15625 247.789062 281.320312 250.40625 280.492188 C 250.394531 280.816406 250.363281 281.46875 250.347656 281.792969 C 248.367188 283.355469 246.175781 284.847656 244.96875 287.136719 C 242.804688 290.578125 241.894531 294.640625 239.660156 298.039062 C 235.917969 304.058594 222.917969 305.6875 221.734375 310.757812 C 226.109375 311.144531 241.53125 305.054688 245.820312 303.160156 C 252.238281 294.132812 249.9375 280.960938 265.152344 270.746094 C 267.152344 269.460938 267.890625 266.492188 270.464844 266.171875 C 269.761719 267.84375 268.050781 268.910156 267.605469 270.703125 C 264.210938 283.472656 263.246094 287.296875 260.707031 291.136719 C 257.59375 293.996094 253.523438 295.679688 250.65625 298.839844 C 250.101562 299.453125 249.957031 300.292969 249.742188 301.0625 C 255.878906 298.917969 268.628906 291.15625 269.863281 289.519531 C 270.59375 287.109375 271.035156 277.988281 272.3125 271.648438 C 273.164062 267.511719 275.464844 263.878906 277.707031 260.363281 C 279.335938 257.664062 282.046875 255.796875 283.527344 252.988281 C 284.183594 251.699219 284.988281 250.472656 286.089844 249.523438 C 286.175781 249.773438 286.347656 250.265625 286.433594 250.511719 C 282.457031 255.667969 285.636719 258.15625 283.320312 269.175781 C 282.964844 271.179688 282.074219 273.089844 280.660156 274.566406 C 272.25 283.761719 272.644531 284.601562 272.441406 287.558594 C 275.847656 286.492188 286.960938 276.4375 291.414062 271.867188 C 290.726562 268.828125 290.945312 265.695312 290.421875 262.636719 C 289.785156 253.503906 288.972656 250.710938 293.421875 240.074219 C 294.433594 237.464844 296.496094 235.390625 297.222656 232.660156 C 297.785156 231.386719 297.804688 229.386719 299.515625 229.125 C 296.363281 236.316406 302.410156 247.8125 299.921875 254.347656 C 297.894531 259.265625 293.855469 263.492188 293.5 269 C 296.203125 268.089844 306.148438 254.582031 309.691406 248.96875 C 309.839844 245.6875 306.585938 234.382812 306.296875 232.957031 C 304.828125 226.074219 302.867188 228.433594 304.964844 218.0625 C 305.917969 213.351562 306.941406 214.777344 308.269531 205.21875 C 308.527344 205.128906 309.035156 204.949219 309.289062 204.863281 C 309.292969 206.539062 308.824219 208.234375 309.222656 209.894531 C 310.9375 215.417969 313.558594 220.675781 314.671875 226.378906 C 315.496094 231.34375 312.902344 235.890625 311.300781 240.394531 C 311.199219 242.078125 310.808594 244.046875 311.871094 245.5 C 315.890625 238.996094 319.242188 232.089844 322.054688 224.980469 C 322.679688 223.867188 321.910156 222.695312 321.605469 221.621094 C 319.148438 215.242188 316.828125 208.777344 313.632812 202.726562 C 309.65625 196.515625 313.25 190.859375 312.699219 181.785156 C 312.957031 181.75 313.472656 181.671875 313.722656 181.628906 C 313.753906 182.757812 313.710938 183.890625 313.875 185.007812 C 316.453125 191.640625 322.289062 196.75 323.546875 203.925781 C 323.15625 207.53125 320.648438 220.875 324.167969 219.367188 C 325.046875 216.703125 330.828125 198.179688 329.113281 195.960938 C 314.976562 173.929688 314.421875 178.207031 312.96875 170.015625 C 312.4375 167.707031 312.863281 165.296875 312.289062 162.992188 C 311.960938 161.167969 310.921875 159.207031 311.894531 157.410156 C 312.609375 159.273438 312.847656 161.425781 314.289062 162.921875 C 317.183594 166.109375 320.449219 168.949219 323.335938 172.148438 C 330.882812 181.398438 325.433594 186.003906 329.195312 192.148438 C 329.417969 192.707031 329.804688 192.855469 330.359375 192.585938 C 331.105469 189.058594 331.847656 176.0625 331.257812 169.4375 C 315.125 152.875 311.625 156.171875 308.011719 139.859375 C 307.472656 137.566406 305.828125 135.644531 305.757812 133.222656 C 307.304688 134.21875 307.449219 136.277344 308.898438 137.367188 C 313.578125 141.515625 319.703125 143.984375 323.578125 149.042969 C 327.425781 154.953125 327.714844 163.199219 330.875 163.601562 C 330.890625 157.332031 327.828125 144.003906 327.78125 143.519531 C 320.65625 138.257812 312.886719 133.957031 305.535156 129.046875 C 302.0625 125.488281 300.636719 120.511719 297.777344 116.519531 C 296.046875 114.570312 293.8125 113.101562 292.25 110.996094 C 292.535156 110.707031 292.824219 110.421875 293.113281 110.132812 C 304.726562 119.757812 312.925781 118.628906 317.378906 126.820312 C 319.097656 129.234375 322.894531 138.882812 326.1875 138.179688 C 324.078125 129.984375 320.90625 122.039062 317.007812 114.535156 C 310.199219 111.382812 302.941406 109.273438 295.921875 106.632812 C 294.191406 105.9375 292.195312 105.578125 290.886719 104.148438 C 288.019531 101.230469 285.648438 97.875 282.84375 94.90625 C 281.117188 93.105469 278.601562 92.453125 276.667969 90.9375 C 276.085938 90.578125 276.226562 89.796875 276.078125 89.234375 C 279.058594 90.089844 281.558594 92.132812 284.605469 92.8125 C 289.597656 94.433594 294.996094 94.917969 299.660156 97.476562 C 305.964844 100.917969 308.601562 109.996094 314.667969 110.289062 C 311.28125 103.101562 306.488281 96.644531 301.703125 90.324219 C 300.433594 88.0625 290.945312 87.949219 274.601562 85.277344 C 271.515625 84.761719 266.269531 79.734375 263.019531 77.183594 C 260.921875 75.539062 258.183594 75.289062 255.835938 74.164062 C 255.132812 73.910156 254.894531 73.144531 254.613281 72.535156 C 257.679688 72.695312 260.507812 74.195312 263.585938 74.253906 C 267.941406 74.832031 272.355469 74.820312 276.714844 75.335938 C 285.863281 76.582031 288.292969 85.839844 297.082031 85.824219 C 297.089844 84.578125 296.152344 83.730469 295.40625 82.859375 C 290.191406 77.507812 284.992188 72.046875 278.96875 67.597656 C 268.917969 67.4375 251.609375 69.339844 249.082031 68.328125 C 245.488281 67.042969 242.242188 65.003906 238.867188 63.265625 C 236.058594 61.4375 232.53125 62.078125 229.457031 61 C 229.425781 60.691406 229.359375 60.0625 229.324219 59.746094 C 246.136719 60.410156 247.539062 57.539062 254.417969 58.53125 C 262.90625 60.511719 266.78125 67.207031 274.460938 64.394531 C 271.59375 61.238281 260.859375 54.957031 257.117188 52.917969 C 254.6875 52.5 245.140625 55.375 237.402344 52.023438 C 231.382812 49.191406 227.742188 43.121094 221.847656 40.121094 C 218.636719 38.378906 214.867188 39.496094 211.472656 38.472656 C 213.171875 35.910156 216.699219 36.496094 219.3125 35.734375 C 251.933594 33.320312 254.683594 49.511719 260.003906 52.328125 C 263.945312 54.601562 267.863281 56.933594 271.582031 59.558594 C 272.316406 60.097656 273.113281 60.535156 273.976562 60.847656 C 272.996094 53.984375 262.660156 52.554688 257.464844 39.714844 C 255.652344 35.082031 252.730469 34.910156 252.554688 32.375 C 254.488281 32.234375 255.734375 33.851562 257.195312 34.828125 C 259.675781 36.839844 262.945312 37.40625 265.554688 39.210938 C 273.460938 44.011719 275.214844 57.265625 277.339844 63.457031 C 278.980469 65.519531 281.511719 66.648438 283.324219 68.5625 C 286.640625 71.316406 289.683594 74.375 292.8125 77.339844 C 294.167969 78.753906 295.378906 80.339844 297 81.476562 C 297.230469 73.210938 285.664062 68.125 284.328125 58.65625 C 283.90625 55.242188 283.339844 51.363281 280.402344 49.136719 C 278.757812 47.429688 276.015625 46.570312 275.328125 44.121094 C 277.660156 43.566406 279.066406 45.609375 280.515625 47.015625 C 283.9375 50.574219 288.359375 52.96875 291.8125 56.488281 C 300.644531 65.9375 298.636719 78.496094 299.691406 84.695312 C 303.921875 89.96875 308.121094 95.28125 311.695312 101.035156 C 312.480469 102.183594 312.992188 103.640625 314.335938 104.273438 C 314.722656 97.421875 307.121094 92.214844 307.121094 81.582031 C 307.132812 78.273438 307.132812 74.898438 306.003906 71.746094 C 304.707031 68.214844 300.09375 65.375 299.835938 63.003906 C 300.410156 62.972656 300.988281 62.941406 301.566406 62.925781 C 302.992188 64.414062 304.265625 66.039062 305.433594 67.734375 C 309.25 72.582031 314.875 76.371094 316.625 82.574219 C 318.25 89.953125 316.054688 97.449219 316.335938 104.886719 C 315.824219 110.476562 319.394531 111.941406 326.304688 131.324219 C 326.566406 131.390625 327.089844 131.515625 327.351562 131.582031 C 327.765625 124.007812 322.238281 118.082031 324.878906 108.011719 C 325.371094 104.992188 326.15625 101.9375 325.71875 98.863281 C 324.699219 94.691406 321.527344 91.511719 320.1875 87.472656 C 320.792969 87.464844 321.675781 86.972656 322.125 87.613281 C 324.886719 90.953125 326.519531 95.015625 328.808594 98.660156 C 331.167969 102.953125 333.753906 107.457031 333.804688 112.496094 C 333.492188 120.582031 330.535156 128.191406 328.691406 135.984375 C 327.785156 139.730469 330.839844 143.507812 332.21875 157.667969 C 332.519531 157.746094 333.117188 157.890625 333.421875 157.96875 C 333.914062 152.761719 332.136719 147.535156 333.28125 142.347656 C 334.222656 137.511719 337.527344 133.546875 338.53125 128.722656 C 339.207031 124.140625 336.222656 120.140625 335.84375 115.679688 C 336.191406 115.683594 336.902344 115.6875 337.253906 115.695312 C 338.519531 117.488281 344.617188 133.597656 343.015625 142.722656 C 340.367188 151.671875 334.054688 160.152344 333.050781 164.238281 C 333.953125 172.773438 333.5 181.378906 332.777344 189.910156 C 336.816406 189.53125 334.007812 176.621094 340.5 167.90625 C 349.296875 155.597656 344.71875 155.191406 345.59375 146.046875 C 345.925781 146.078125 346.585938 146.136719 346.910156 146.167969 C 348.164062 149.984375 348.035156 154.0625 348.339844 158.027344 C 349 161.425781 348.8125 164.902344 348.832031 168.347656 C 349.082031 174.546875 343.011719 181.417969 338.425781 187.199219 C 333.042969 194.148438 332.070312 192.632812 331.46875 198.753906 C 330.585938 204.492188 328.886719 210.058594 327.621094 215.710938 C 330.246094 215.210938 330.816406 206.808594 334.59375 201.585938 C 337.097656 197.1875 343.867188 194.929688 345.625 188.730469 C 346.324219 186.15625 346.527344 183.453125 347.398438 180.917969 C 347.796875 180.167969 349.011719 180.832031 348.8125 181.613281 C 348.359375 186.140625 346.945312 190.527344 346.578125 195.074219 C 343.972656 205.550781 344.570312 204.585938 338.234375 210.273438 C 334.761719 213.464844 330.941406 216.234375 327.199219 219.097656 C 325.644531 220.15625 325.28125 222.125 324.632812 223.769531 C 322.765625 229.246094 319.914062 234.316406 317.710938 239.636719 C 322.179688 239.367188 322.820312 225.941406 332.601562 223.109375 C 343.949219 219.421875 340.929688 213.234375 344.492188 211.382812 C 344.761719 212.53125 344.621094 213.710938 344.164062 214.796875 C 334.832031 237.816406 332.449219 233.703125 315.835938 242.761719 C 315.167969 243.613281 309.398438 254.421875 300.640625 264.5625 C 300.503906 264.902344 300.234375 265.574219 300.105469 265.910156 C 306.796875 263.867188 307.464844 255.523438 315.757812 251.910156 C 318.964844 250.65625 322.539062 250.273438 325.449219 248.328125 C 330.707031 244.785156 328.550781 245.609375 333.355469 238.960938 C 333.683594 238.972656 334.339844 238.992188 334.667969 239 C 334.902344 242.21875 332.421875 244.640625 331.015625 247.304688 C 321.347656 262.484375 322.984375 259.640625 299.554688 268.5 C 298.128906 269.066406 296.511719 269.359375 295.414062 270.527344 C 282.382812 284.3125 279.105469 284.085938 278.625 286.777344 C 286.242188 285.214844 289.675781 276.644531 297.199219 274.9375 C 301.117188 273.964844 305.394531 275.527344 309.160156 273.699219 C 311.214844 272.445312 312.777344 270.546875 314.699219 269.113281 C 315.675781 268.492188 316.148438 270.113281 315.589844 270.742188 C 313.804688 273.640625 303.609375 283.53125 298.191406 285.902344 C 292.570312 288.5625 275.800781 287.976562 273.761719 289.472656 C 268.296875 293.417969 262.570312 297.027344 256.546875 300.066406 C 255.601562 300.558594 254.582031 301 254.023438 301.964844 C 255.511719 302.015625 257.054688 302.140625 258.503906 301.710938 C 263.324219 300.476562 266.375 295.632812 271.410156 294.929688 C 275.519531 294.652344 279.691406 295.417969 283.753906 294.546875 C 290.296875 293.289062 286.988281 294.574219 294.640625 289.738281 C 294.886719 289.898438 295.378906 290.210938 295.628906 290.375 C 294.753906 293.042969 292.082031 294.433594 289.941406 295.976562 C 284.339844 299.859375 278.503906 304.476562 271.382812 304.722656 C 249.648438 303.507812 250.117188 303.085938 248.027344 304.277344 C 243.039062 306.5625 237.894531 308.488281 232.675781 310.175781 C 231.09375 310.695312 229.460938 311.09375 227.972656 311.847656 C 232.386719 314.960938 239.1875 310.257812 243.433594 308.871094 C 246.042969 308.0625 248.585938 309.421875 251.082031 310.015625 C 254.632812 311.03125 258.371094 310.722656 262.019531 310.652344 C 265.378906 310.761719 268.003906 308.332031 271.144531 307.5625 C 271.324219 307.761719 271.671875 308.167969 271.84375 308.378906 C 269.851562 310.628906 266.945312 311.746094 264.207031 312.828125 C 257.703125 315.351562 251.082031 318.292969 243.960938 318.207031 C 230.308594 316.519531 226.667969 313.652344 223.6875 312.808594 C 204.863281 317.675781 202.414062 315.261719 200.347656 317.511719 C 202.398438 318.15625 204.550781 319.078125 206.730469 318.46875 C 210.058594 318 213.519531 316.601562 216.84375 317.800781 C 218.652344 318.390625 220.117188 319.664062 221.851562 320.410156 C 225.558594 322.199219 232.636719 323.441406 241.203125 321.734375 C 241.355469 321.972656 241.664062 322.449219 241.816406 322.6875 C 239.484375 324.652344 236.257812 324.644531 233.402344 325.117188 C 213.804688 328.675781 213.359375 326.859375 206.640625 323.785156 C 202.964844 321.992188 199.433594 319.890625 196.222656 317.359375 C 194.882812 317.152344 193.523438 317.296875 192.183594 317.363281 C 193.289062 318.910156 195.191406 319.5625 196.636719 320.742188 C 211.863281 332.222656 211.492188 339.550781 225.398438 339.640625 C 218.964844 341.867188 212.0625 342.996094 205.253906 342.617188 C 201.488281 324.914062 190.929688 317.355469 187.183594 317.8125 C 177.992188 320.578125 172.394531 332.96875 170.140625 342.707031 C 163.300781 342.863281 156.378906 341.933594 149.941406 339.597656 C 164.414062 339.367188 164.253906 331.445312 179.609375 320.179688 C 180.746094 319.265625 182.359375 318.800781 182.949219 317.355469 C 181.453125 317.421875 179.679688 316.753906 178.457031 317.917969 C 174.722656 320.796875 170.550781 323.0625 166.269531 325.007812 C 159.785156 328.535156 152.121094 326.84375 145.226562 325.726562 C 141.605469 324.652344 137.589844 325.097656 134.207031 323.230469 C 134.058594 322.738281 133.941406 322.242188 133.859375 321.738281 C 136.738281 321.972656 139.558594 322.941406 142.46875 322.671875 C 145.546875 322.25 148.71875 322.285156 151.683594 321.226562 C 155.035156 320.277344 157.648438 317.378906 161.261719 317.253906 C 164.179688 317.394531 166.996094 318.304688 169.882812 318.652344 C 171.574219 318.871094 173.160156 318.171875 174.738281 317.695312 C 174.765625 317.476562 174.816406 317.035156 174.839844 316.816406 C 167.046875 315.9375 159.261719 314.742188 151.652344 312.773438 C 145.59375 315.707031 138.949219 317.195312 132.316406 318.144531 C 124.585938 318.527344 117.410156 315.132812 110.320312 312.523438 C 108.214844 311.566406 105.941406 310.71875 104.316406 308.996094 C 103.695312 308.472656 103.917969 307.15625 104.925781 307.769531 C 110.042969 309.578125 109.429688 311.40625 122.113281 310.554688 C 125.578125 310.214844 128.902344 307.816406 132.433594 309.023438 C 137.972656 310.625 139.527344 313.832031 146.546875 312.511719 C 146.703125 312.253906 147.019531 311.738281 147.175781 311.476562 C 140.371094 309.617188 133.714844 307.175781 127.308594 304.203125 C 125.457031 303.144531 123.289062 303.609375 121.269531 303.6875 C 116.664062 304.253906 111.996094 303.925781 107.398438 304.550781 C 104.488281 304.917969 101.515625 304.664062 98.71875 303.785156 C 93.0625 301.820312 82.148438 293.925781 80.355469 291.824219 C 80.050781 291.195312 79.980469 289.71875 81.011719 289.839844 C 84.203125 291.800781 86.558594 295.855469 101.871094 294.871094 C 109.707031 294.140625 113.003906 303.460938 121.445312 301.902344 C 120.957031 301.339844 120.382812 300.882812 119.722656 300.570312 C 113.445312 297.222656 107.328125 293.566406 101.550781 289.421875 C 97.730469 288.246094 93.605469 288.601562 89.679688 287.929688 C 79.640625 287.304688 76.355469 287.027344 68.082031 279.242188 C 65.121094 276.375 61.714844 273.871094 59.566406 270.285156 C 59.699219 269.910156 59.957031 269.164062 60.089844 268.789062 C 62.554688 270.046875 64.085938 272.53125 66.523438 273.835938 C 70.734375 275.609375 75.488281 273.664062 79.726562 275.371094 C 86.394531 277.714844 89.726562 285.632812 97.035156 286.617188 C 96.65625 285.910156 96.171875 285.265625 95.527344 284.78125 C 90.09375 280.445312 84.96875 275.722656 80.234375 270.636719 C 78.285156 268.25 58.191406 263.640625 53 258.777344 C 48.414062 254.390625 45.296875 248.785156 42.09375 243.382812 C 41.257812 241.847656 39.914062 239.878906 41.53125 238.394531 C 45.226562 242.265625 44.507812 245.289062 50.839844 248.835938 C 54.199219 250.726562 58.242188 250.867188 61.554688 252.859375 C 67.457031 256.117188 69.945312 265.085938 75.84375 266.011719 C 74.636719 264.039062 72.957031 262.417969 71.535156 260.601562 C 51.707031 234.328125 69.167969 248.730469 44.191406 235.097656 C 39.515625 232.476562 36.472656 226.066406 33.222656 219.304688 C 32.160156 216.753906 30.40625 214.25 31.101562 211.347656 C 33.617188 213.410156 33.566406 217.269531 36.109375 219.367188 C 38.980469 222.613281 43.726562 222.621094 47.023438 225.230469 C 52.640625 229.441406 53.554688 238.4375 57.863281 240.066406 C 57.710938 239.328125 57.515625 238.59375 57.140625 237.9375 C 49.347656 222.40625 50.457031 220.507812 48.6875 219.441406 C 30.882812 206.117188 30.847656 204.734375 29.109375 196.078125 C 27.855469 186.644531 26.304688 183.625 26.863281 180.640625 C 27.171875 180.636719 27.792969 180.625 28.101562 180.617188 C 29.191406 184.523438 29.074219 188.949219 31.703125 192.261719 C 34.363281 196.042969 38.828125 198.070312 41.265625 202.03125 C 45.394531 208.691406 44.980469 214.980469 47.839844 215.3125 C 46.214844 209.023438 44.398438 202.746094 43.644531 196.269531 C 43.355469 192.742188 35.6875 187.4375 28.445312 175.328125 C 25.707031 170.082031 26.589844 163.960938 27.089844 158.308594 C 27.816406 154.285156 26.902344 149.933594 28.695312 146.132812 C 29.035156 146.121094 29.710938 146.109375 30.042969 146.105469 C 30.3125 149.800781 29.289062 153.445312 29.574219 157.132812 C 31.28125 166.027344 37.824219 167.609375 39.296875 179.460938 C 39.96875 183.53125 40.117188 189.40625 42.667969 189.425781 C 42.289062 182.570312 41.429688 175.683594 42.117188 168.804688 C 42.074219 166.570312 42.949219 164.105469 41.691406 162.070312 C 32.710938 145.027344 29.625 142.09375 34.125 127.351562 C 35.226562 123.773438 35.925781 120.035156 37.671875 116.691406 C 38.042969 115.941406 38.828125 115.570312 39.488281 115.117188 C 39.777344 119.292969 36.8125 123 36.804688 127.164062 C 37.234375 132.734375 41.242188 137.144531 42.25 142.550781 C 43.167969 153.0625 40.714844 155.21875 42.515625 158.148438 C 44.011719 156.308594 42.558594 156.023438 46.648438 139.808594 C 47.445312 135.953125 45.714844 132.265625 44.75 128.617188 C 40.203125 109.9375 40.066406 110.4375 48.808594 94.929688 C 50.332031 92.417969 51.457031 89.617188 53.5 87.453125 C 54.042969 87.3125 54.59375 87.226562 55.164062 87.199219 C 54.265625 91.8125 50.027344 95.105469 49.648438 99.890625 C 49.402344 105.171875 51.84375 110.257812 51.125 115.558594 C 50.929688 121.082031 47.65625 126.097656 48.28125 131.707031 C 48.519531 131.671875 49.003906 131.601562 49.246094 131.566406 C 51.335938 124.414062 54.628906 117.675781 57.882812 111 C 60.308594 106.121094 58.289062 95 58.390625 90.675781 C 58.558594 82.640625 56.875 81.230469 67.832031 70.34375 C 70.046875 68.132812 71.460938 65.234375 73.832031 63.164062 C 74.355469 62.992188 74.890625 62.863281 75.445312 62.800781 C 75.308594 63.574219 75.398438 64.507812 74.71875 65.066406 C 67.878906 72.355469 69.046875 71.355469 68.242188 82.074219 C 68.574219 91.027344 60.992188 97.722656 61.089844 104.082031 C 63.207031 103.617188 61.285156 102.898438 75.640625 84.910156 C 76.726562 80.574219 75.285156 70.148438 80.222656 60.878906 C 82.65625 56.683594 86.667969 53.765625 90.460938 50.882812 C 93.03125 49.109375 95.007812 46.632812 97.4375 44.6875 C 98.050781 44.113281 98.917969 44.085938 99.695312 43.898438 C 99.695312 44.265625 99.699219 45.011719 99.699219 45.386719 C 97.683594 47.292969 95.167969 48.65625 93.4375 50.855469 C 90.722656 54.613281 91.84375 59.691406 89.464844 63.578125 C 85.839844 70.0625 78.757812 74.464844 78.480469 81.277344 C 80.117188 80.34375 81.234375 78.765625 82.554688 77.457031 C 85.199219 74.855469 87.796875 72.195312 90.671875 69.835938 C 92.898438 67.632812 95.644531 66.027344 97.816406 63.773438 C 100.300781 59.5 100.714844 43.90625 111.386719 38.355469 C 113.6875 37.050781 116.34375 36.410156 118.429688 34.722656 Z M 118.429688 34.722656 " fill-opacity="1" fill-rule="nonzero"/></g><path fill="#d4a160" d="M 184.78125 71.570312 C 186.699219 71.417969 188.621094 71.46875 190.539062 71.589844 C 191.09375 76.8125 190.519531 82.101562 190.851562 87.339844 C 194.289062 83.910156 196.433594 79.324219 199.921875 75.941406 C 199.585938 113.597656 200.445312 113.71875 199.4375 115.21875 C 196.613281 119.132812 193.53125 122.859375 190.871094 126.878906 C 190.667969 129.386719 190.632812 131.96875 190.953125 134.472656 C 201.441406 124.941406 210.316406 127.910156 228.988281 125.707031 C 236.585938 124.503906 244.648438 122.851562 250.605469 117.625 C 252.589844 115.90625 253.476562 113.386719 254.070312 110.910156 C 256.359375 108.261719 260.871094 107.785156 263.515625 110.175781 C 265.390625 112.5 265.265625 116.019531 263.539062 118.394531 C 262.265625 119.902344 260.324219 120.539062 258.6875 121.550781 C 259.101562 122.632812 295.28125 203.964844 297.6875 205.96875 C 274.738281 229.480469 237.558594 227.796875 216.957031 205.898438 C 219.394531 204.941406 215.972656 211.113281 253.949219 127.480469 C 254.667969 125.914062 255.425781 124.363281 255.921875 122.714844 C 235.417969 127.667969 199.195312 130.054688 191.019531 148.933594 C 190.65625 149.800781 190.59375 264.277344 190.921875 267.25 C 193.542969 265.835938 196.175781 264.433594 198.871094 263.160156 C 195.753906 270.929688 191.914062 278.394531 188.621094 286.097656 C 188.277344 286.542969 188.25 287.832031 187.4375 287.308594 C 183.789062 279.234375 180.066406 271.199219 176.449219 263.109375 C 179.308594 264.269531 181.863281 266.09375 184.746094 267.234375 C 184.816406 249.3125 184.824219 156.820312 184.738281 149.5625 C 177.148438 129.933594 137.707031 127.222656 119.589844 122.707031 C 119.960938 124.175781 117.753906 119.167969 156.140625 203.757812 C 156.480469 204.855469 157.328125 205.546875 158.328125 206.027344 C 137.371094 228.523438 99.066406 228.65625 77.953125 205.972656 C 79.933594 204.210938 115.574219 124.558594 116.734375 121.550781 C 115.152344 120.613281 113.390625 119.871094 112.054688 118.582031 C 107.503906 112.445312 113.800781 104.992188 121.175781 110.46875 C 122.425781 113.160156 121.5625 118.363281 134.582031 123 C 154.246094 129.757812 170.335938 122.917969 182.222656 132.667969 C 183.039062 133.3125 183.851562 133.960938 184.734375 134.515625 C 184.796875 132.085938 184.84375 129.648438 184.769531 127.21875 C 182.066406 122.878906 178.625 119.019531 175.792969 114.761719 C 175.585938 113.40625 175.703125 76.097656 175.703125 75.902344 C 180.15625 81.109375 182.777344 85.953125 184.726562 87.371094 C 184.898438 82.101562 184.738281 76.835938 184.78125 71.570312 M 186.414062 74.835938 C 186.636719 77.359375 185.914062 80.042969 186.898438 82.4375 C 189.265625 81.386719 188.984375 84.589844 188.941406 74.660156 C 188.097656 74.71875 187.257812 74.769531 186.414062 74.835938 M 191.5 91.019531 C 190.269531 92.382812 190.699219 94.363281 190.535156 96.035156 C 190.792969 95.964844 191.300781 95.824219 191.558594 95.753906 C 193.363281 93.605469 194.890625 91.222656 196.648438 89.03125 C 198.039062 87.441406 197.445312 85.191406 197.40625 83.28125 C 195.257812 85.714844 193.519531 88.476562 191.5 91.019531 M 177.808594 83.65625 C 177.808594 84.984375 177.746094 86.316406 177.835938 87.644531 C 179.117188 89.863281 180.867188 91.765625 182.339844 93.855469 C 183.035156 94.773438 183.527344 96.050781 184.851562 96.160156 C 184.789062 94.710938 185.042969 93.207031 184.628906 91.804688 C 183.421875 89.957031 181.933594 88.320312 180.714844 86.480469 C 179.910156 85.390625 179.289062 83.925781 177.808594 83.65625 M 194.882812 95.457031 C 193.507812 97.46875 191.84375 99.273438 190.574219 101.355469 C 190.433594 102.535156 190.480469 103.734375 190.480469 104.925781 C 190.742188 104.808594 191.265625 104.582031 191.53125 104.46875 C 199.140625 94.054688 197.402344 97.679688 197.53125 92.53125 C 196.265625 93.097656 195.675781 94.402344 194.882812 95.457031 M 177.792969 92.648438 C 177.820312 93.816406 177.652344 95.023438 177.933594 96.175781 C 178.972656 97.992188 180.410156 99.527344 181.597656 101.238281 C 182.542969 102.542969 183.335938 104.042969 184.785156 104.867188 C 184.832031 103.6875 184.898438 102.5 184.753906 101.328125 C 183.089844 98.402344 180.84375 95.875 178.828125 93.195312 C 178.570312 93.058594 178.050781 92.785156 177.792969 92.648438 M 177.839844 101.074219 C 177.777344 102.339844 177.726562 103.613281 177.847656 104.875 C 178.996094 106.628906 180.410156 108.191406 181.539062 109.957031 C 182.410156 111.117188 183.15625 112.664062 184.753906 112.898438 C 184.730469 111.773438 184.941406 110.621094 184.703125 109.507812 C 179.4375 102.015625 179.011719 101.621094 177.839844 101.074219 M 194 105.222656 C 192.980469 106.71875 191.792969 108.097656 190.789062 109.605469 C 190.6875 110.808594 190.742188 112.015625 190.773438 113.222656 C 191.34375 112.917969 191.949219 112.625 192.28125 112.035156 C 193.964844 109.601562 195.925781 107.363281 197.558594 104.898438 C 197.679688 103.5625 197.589844 102.21875 197.476562 100.886719 C 195.945312 102.003906 195.097656 103.730469 194 105.222656 M 194.035156 113.863281 C 192.890625 115.457031 191.535156 116.90625 190.589844 118.636719 C 190.398438 119.714844 190.707031 120.800781 190.804688 121.871094 C 193.238281 120.230469 194.4375 117.304688 196.40625 115.167969 C 197.933594 113.757812 197.574219 111.621094 197.488281 109.761719 C 195.960938 110.773438 195.148438 112.46875 194.035156 113.863281 M 177.773438 110.050781 C 177.796875 111.179688 177.6875 112.320312 177.890625 113.441406 C 178.921875 115.132812 180.238281 116.617188 181.324219 118.273438 C 182.378906 119.628906 183.207031 121.277344 184.789062 122.105469 C 184.53125 116.832031 186.476562 120.84375 179.703125 111.351562 C 179.265625 110.644531 178.566406 110.226562 177.773438 110.050781 M 82.839844 200.574219 C 82.136719 202.207031 81.183594 203.765625 80.910156 205.550781 C 105.601562 205.636719 130.292969 205.605469 154.984375 205.566406 C 153.761719 202.046875 118.90625 125.253906 117.71875 123.933594 C 105.992188 149.433594 94.472656 175.027344 82.835938 200.574219 M 257.242188 124.214844 C 218.804688 208.902344 220.863281 203.914062 220.621094 205.574219 C 245.3125 205.617188 270.003906 205.609375 294.695312 205.570312 C 294.121094 203.527344 273.285156 158.132812 258.488281 125.421875 C 258.234375 124.839844 258.023438 124.121094 257.242188 124.214844 Z M 257.242188 124.214844 " fill-opacity="1" fill-rule="nonzero"/></svg>