<svg xmlns="http://www.w3.org/2000/svg" xmlns:xlink="http://www.w3.org/1999/xlink" width="500" zoomAndPan="magnify" viewBox="0 0 375 374.999991" height="500" preserveAspectRatio="xMidYMid meet" version="1.0"><defs><clipPath id="744ecc14d5"><path d="M 35.371094 45.257812 L 331 45.257812 L 331 329.507812 L 35.371094 329.507812 Z M 35.371094 45.257812 " clip-rule="nonzero"/></clipPath></defs><g clip-path="url(#744ecc14d5)"><path fill="#af8b45" d="M 63.363281 145.828125 L 161.964844 145.828125 C 164.507812 145.828125 166.53125 147.910156 166.53125 150.394531 C 166.53125 152.941406 164.449219 154.964844 161.964844 154.964844 L 63.363281 154.964844 C 57.289062 154.847656 57.347656 145.886719 63.363281 145.828125 Z M 63.363281 191.6875 L 141.375 191.6875 C 147.390625 191.570312 147.449219 182.609375 141.375 182.492188 C 141.375 182.492188 63.363281 182.492188 63.363281 182.492188 C 57.347656 182.609375 57.289062 191.570312 63.363281 191.6875 Z M 63.363281 228.351562 L 107.199219 228.351562 C 113.210938 228.238281 113.210938 219.273438 107.199219 219.15625 C 107.199219 219.15625 63.363281 219.15625 63.363281 219.15625 C 57.347656 219.273438 57.289062 228.238281 63.363281 228.351562 Z M 141.320312 255.878906 L 63.363281 255.878906 C 57.347656 255.996094 57.289062 264.960938 63.363281 265.074219 C 63.363281 265.074219 141.320312 265.074219 141.320312 265.074219 C 147.332031 264.960938 147.390625 255.9375 141.320312 255.878906 Z M 304.632812 329.558594 C 297.519531 329.558594 290.695312 326.609375 285.839844 321.402344 C 285.839844 321.402344 251.140625 284.332031 251.140625 284.332031 C 244.488281 277.335938 230.320312 262.125 223.613281 254.957031 L 223.613281 285.722656 C 223.613281 291.445312 218.929688 296.132812 213.203125 296.132812 L 207.1875 296.132812 L 207.1875 301.277344 C 217.828125 303.359375 225.925781 312.730469 225.925781 324.003906 C 225.925781 326.550781 223.84375 328.574219 221.355469 328.574219 L 71.34375 328.574219 C 68.796875 328.574219 66.773438 326.492188 66.773438 324.003906 C 66.542969 313.191406 74.929688 303.128906 85.511719 301.277344 L 85.511719 296.132812 L 45.839844 296.132812 C 40.113281 296.132812 35.429688 291.445312 35.429688 285.722656 L 35.429688 88.113281 C 35.429688 86.898438 35.949219 85.742188 36.757812 84.871094 L 75.042969 46.589844 C 75.910156 45.777344 77.066406 45.257812 78.28125 45.257812 L 213.085938 45.257812 C 218.8125 45.257812 223.496094 49.941406 223.496094 55.667969 L 223.496094 158.953125 C 223.496094 158.953125 244.835938 176.59375 244.835938 176.59375 C 259.757812 189.257812 244.605469 212.796875 227.023438 204.527344 L 223.148438 209.210938 L 229.050781 214.066406 C 233.097656 217.421875 234.195312 222.972656 232.230469 227.542969 C 257.210938 243.621094 296.191406 267.503906 321.117188 284.042969 C 339.566406 299.136719 328.519531 329.730469 304.632812 329.558594 Z M 216.035156 164.621094 C 214.707031 163.8125 192.789062 144.613281 191.574219 145.132812 C 183.535156 142.589844 177.984375 153.34375 184.921875 158.433594 C 184.921875 158.433594 229.050781 194.925781 229.050781 194.925781 C 232.230469 197.875 237.320312 197.644531 240.035156 194.289062 C 242.695312 191.109375 242.234375 186.308594 239.054688 183.707031 C 238.996094 183.589844 216.035156 164.621094 216.035156 164.621094 Z M 219.621094 199.03125 L 182.609375 168.382812 C 177.808594 174.164062 154.097656 202.90625 148.777344 209.324219 L 185.789062 239.917969 C 190.011719 234.773438 214.765625 204.875 219.621094 199.03125 Z M 183.710938 250.15625 C 183.710938 250.15625 139.0625 213.257812 139.0625 213.257812 C 131.257812 206.957031 121.828125 218.175781 129.347656 224.765625 C 129.347656 224.765625 174.28125 261.953125 174.28125 261.953125 C 178.5625 265.710938 185.964844 262.820312 186.542969 257.152344 C 186.949219 254.492188 185.734375 251.773438 183.710938 250.15625 Z M 51.101562 83.484375 L 72.5 83.484375 C 73.191406 83.484375 73.714844 82.90625 73.714844 82.269531 L 73.714844 60.871094 Z M 202.621094 310.070312 L 90.136719 310.070312 C 84.238281 309.894531 78.570312 313.886719 76.722656 319.4375 L 215.980469 319.4375 C 214.070312 313.941406 208.75 310.011719 202.621094 310.070312 Z M 197.761719 292.890625 C 196.664062 288.613281 192.960938 285.722656 188.683594 285.722656 L 104.074219 285.722656 C 98.929688 285.664062 94.707031 290.058594 94.707031 295.089844 L 94.707031 300.875 L 198.050781 300.875 C 197.9375 299.3125 198.28125 294.339844 197.761719 292.890625 Z M 214.359375 248.015625 C 211.0625 249.519531 207.1875 249.34375 204.007812 247.609375 C 202.621094 246.917969 197.644531 242.578125 196.375 241.539062 L 192.558594 246.164062 C 203.71875 262.300781 183.941406 281.035156 168.441406 268.949219 C 168.441406 268.949219 123.507812 231.824219 123.507812 231.824219 C 108.585938 219.214844 123.738281 195.734375 141.375 203.890625 C 145.078125 199.4375 172.953125 165.722656 175.84375 162.195312 C 167.226562 150.742188 177.117188 133.566406 191.402344 135.707031 C 194.523438 136.113281 197.472656 137.324219 199.960938 139.40625 L 214.359375 151.320312 L 214.359375 55.609375 C 214.359375 54.917969 213.78125 54.394531 213.085938 54.394531 L 82.910156 54.394531 L 82.910156 82.269531 C 82.910156 87.996094 78.222656 92.679688 72.5 92.679688 L 44.625 92.679688 L 44.625 285.722656 C 44.625 286.414062 45.203125 286.992188 45.839844 286.992188 L 87.417969 286.992188 C 90.484375 280.746094 97.078125 276.527344 104.074219 276.585938 L 188.683594 276.585938 C 195.621094 276.585938 202.332031 280.746094 205.339844 286.992188 L 213.144531 286.992188 C 213.839844 286.992188 214.417969 286.414062 214.417969 285.722656 L 214.417969 248.015625 Z M 223.554688 224.363281 C 224.363281 223.378906 224.25 221.875 223.265625 221.066406 L 217.367188 216.207031 L 202.214844 234.484375 L 208.113281 239.339844 C 209.097656 240.148438 210.601562 240.035156 211.410156 239.050781 C 213.261719 236.796875 221.644531 226.617188 223.554688 224.363281 Z M 243.101562 262.359375 L 252.414062 251.082031 L 226.792969 234.828125 C 225.695312 236.160156 223.496094 238.820312 222.398438 240.148438 Z M 254.207031 274.214844 L 266.117188 259.8125 L 260.21875 256.054688 L 249.40625 269.125 Z M 313.539062 289.769531 L 273.984375 264.730469 L 260.566406 280.980469 C 260.566406 280.980469 292.605469 315.15625 292.605469 315.15625 C 299.082031 322.445312 311.457031 322.039062 317.53125 314.40625 C 323.835938 306.773438 321.925781 295.03125 313.539062 289.769531 Z M 134.4375 99.273438 C 136.34375 52.949219 202.332031 52.949219 204.238281 99.273438 C 204.238281 118.53125 188.566406 134.203125 169.308594 134.203125 C 150.050781 134.203125 134.4375 118.53125 134.4375 99.273438 Z M 143.632812 99.273438 C 144.902344 133.335938 193.828125 133.394531 195.101562 99.273438 C 195.101562 85.105469 183.535156 73.539062 169.367188 73.539062 C 155.199219 73.539062 143.632812 85.105469 143.632812 99.273438 Z M 161.445312 111.011719 C 163.238281 112.804688 166.128906 112.804688 167.921875 111.011719 L 184.867188 94.066406 C 189.03125 89.730469 182.726562 83.371094 178.386719 87.589844 C 178.386719 87.589844 164.683594 101.296875 164.683594 101.296875 L 160.34375 96.960938 C 156.007812 92.796875 149.644531 99.097656 153.867188 103.4375 C 153.867188 103.4375 161.445312 111.011719 161.445312 111.011719 Z M 161.445312 111.011719 " fill-opacity="1" fill-rule="nonzero"/></g></svg>